<svg id="Layer_1" data-name="Layer 1" xmlns="http://www.w3.org/2000/svg" viewBox="0 0 792 335.2"><defs><style>.cls-1{fill:#fff;}.cls-2{fill:#f4b61c;}</style></defs><path class="cls-1" d="M219.25,144.71v63H186.59V192.07A44.36,44.36,0,0,1,150,211.44c-38.26,0-69.29-29.87-69.29-66.73S111.7,78,150,78,219.25,107.85,219.25,144.71Zm-33.6,0a35,35,0,1,0,0,.1Z"/><path class="cls-1" d="M305.58,78h4.66v31.73a35,35,0,0,0-35,35h0v63h-35v-63C240.25,107.85,266.85,78,305.58,78Z"/><path class="cls-1" d="M396.56,135.38,454,207.7H411.5l-51.1-66.49V207.7h-35V39.7h35V130L401,81.72h42Z"/><path class="cls-1" d="M711.53,168.51c0,27.06-24.26,42.93-51.33,42.93s-51.32-15.87-51.32-42.93h35c0,10.73,8.63,13.53,16.33,13.53s16.34-4,16.34-12.13c0-5.84-7.7-11.2-18.2-12.6-24.5-3-48.06-18-48.06-37.8C610.28,93.85,633.14,78,660.2,78s49.93,15.87,49.93,42.93h-35c0-10.73-7.24-13.53-14.94-13.53s-14.93,2.8-14.93,11.2c0,7.46,15.4,13.3,28.93,14.93C692.63,135.61,711.53,147.28,711.53,168.51Z"/><path class="cls-2" d="M446.48,304.6V270.55c0-8.43-4.93-12.15-11.17-12.15S424,262.23,424,270.55V304.6H412.87V226.66H424v28a19,19,0,0,1,14.34-6.24c12.37,0,19.26,8.32,19.26,20.36v35.8Z"/><path class="cls-2" d="M483,280.08c0,9.52,5,15.54,14.12,15.54,6.24,0,9.52-1.75,13.46-5.69l7.12,6.68c-5.69,5.69-11.06,8.64-20.8,8.64-13.9,0-25-7.33-25-28.46,0-18,9.31-28.35,23.54-28.35,14.89,0,23.53,10.95,23.53,26.71v4.93Zm23.42-15.33a11.44,11.44,0,0,0-10.94-7,11.59,11.59,0,0,0-11.06,7c-1.09,2.52-1.31,4.16-1.42,7.55h25a17.38,17.38,0,0,0-1.54-7.55Z"/><path class="cls-2" d="M563.71,304.6v-5c-4,4-7.88,5.69-14.77,5.69s-11.5-1.64-14.89-5a17,17,0,0,1-4.38-11.93c0-9.31,6.46-16,19.16-16H563.5v-3.94c0-7-3.51-10.4-12.15-10.4-6.14,0-9.09,1.43-12.16,5.37l-7.33-6.9c5.25-6.13,10.73-8,19.92-8,15.22,0,22.88,6.46,22.88,19.05V304.6Zm-.21-24.52h-13c-6.57,0-10,2.95-10,8s3.17,7.88,10.18,7.88c4.27,0,7.44-.33,10.4-3.18,1.64-1.64,2.41-4.27,2.41-8.21Z"/><path class="cls-2" d="M606.74,304.6c-10.51,0-15.22-7.12-15.22-15.33V226.66h11.17v62c0,4.27,1.53,6.46,6,6.46h4.92v9.53Z"/><path class="cls-2" d="M642.42,304.6c-10.4,0-15.21-7.45-15.21-15.44V258.62h-6.35v-8.54h6.35V233.22h11.16v16.86H649.1v8.54H638.37v30c0,4.05,2,6.46,6.13,6.46h4.6v9.53Z"/><path class="cls-2" d="M696.94,304.6V270.55c0-8.43-4.93-12.15-11.17-12.15s-11.27,3.83-11.27,12.15V304.6H663.33V226.66H674.5v28a19,19,0,0,1,14.34-6.24c12.37,0,19.26,8.32,19.26,20.36v35.8Z"/><path class="cls-2" d="M503.08,212.17c.6,0,3.23.44,3.9.47l6.17.27,2.38.11h2.58c.32,0,1.13-.06,1.45-.05a18.22,18.22,0,0,0,2.09,0c1.15-.09,2.32-.24,3.44-.38l1.63-.2a24.45,24.45,0,0,0,5.08-1.08c.33-.08,2-.56,2.25-.62a39.53,39.53,0,0,0,4.52-1.56l1-.35,2.1-.78c.64-.25,1.27-.53,1.9-.82h.08c.43-.19.84-.4,1.25-.61l.4-.2.33-.17.39-.2a14.06,14.06,0,0,0,2.67-1.38l.22-.12.25-.14,1.28-.72c1-.57,2-1.16,3-1.79,1.26-.8,2.55-1.7,4.07-2.83.46-.35.89-.73,1.3-1.09s.75-.68,1.13-1a6.27,6.27,0,0,0,2.28-3.34,3.72,3.72,0,0,0,.09-2.14,6,6,0,0,0-2.08-3.39,5.75,5.75,0,0,0-7-.23l-1.25.95c-.57.44-1.14.88-1.73,1.29-1.46,1-3,2-4.46,2.94l-.59.38a22.63,22.63,0,0,1-2.17,1.3c-1.27.64-3,1.46-4.67,2.16-2,.8-4.21,1.72-6.43,2.41a53.07,53.07,0,0,1-6.33,1.54c-1.94.34-4,.5-5.94.66h-.49a43.91,43.91,0,0,1-5,.2c-1.5,0-3-.17-4.51-.3l-1.49-.13a42.88,42.88,0,0,1-7.87-1.34,58.5,58.5,0,0,1-6-2c-1.13-.41-2.26-.93-3.36-1.43l-1.84-.82a45.22,45.22,0,0,1-7.42-4.28,48.18,48.18,0,0,1-5.42-4.24c-1.85-1.66-3.72-3.51-5.71-5.67a49.31,49.31,0,0,1-5.27-7l-.24-.38a35,35,0,0,1-2-3.28c-.68-1.34-1.38-2.72-2-4.11s-1.22-2.82-1.72-4.22a60.47,60.47,0,0,1-1.94-6.31c-.43-1.78-.71-3.65-1-5.46l-.13-.89a36.62,36.62,0,0,1-.27-6.45,6.29,6.29,0,0,0-2.35-5.06,5.3,5.3,0,0,0-3.92-1.32,5.47,5.47,0,0,0-3.81,2,3.43,3.43,0,0,0-.82,2,27.49,27.49,0,0,0-.23,8.25c.09,1,.19,2.07.2,3.22a1.52,1.52,0,0,0,.06.42,1.27,1.27,0,0,0,.12.36,2.91,2.91,0,0,1,.12.39l.06.52a17.39,17.39,0,0,0,.8,4.11,7,7,0,0,1,.26.89c.1.44.2.87.29,1.31.2.94.42,1.91.7,2.86.4,1.39.92,2.76,1.42,4.09l.05.15c.39,1,.85,2,1.22,2.88l.5,1.1c.56,1.26,1.14,2.57,1.79,3.82.84,1.64,1.8,3.25,2.62,4.6.65,1.08,1.4,2.19,2.34,3.51.64.9,1.33,1.75,2,2.58l.76,1a27.08,27.08,0,0,0,2,2.35c.88.94,1.78,1.85,2.68,2.77l2,2a33.14,33.14,0,0,0,3.48,3c.38.31.76.6,1.13.91.81.66,1.66,1.27,2.48,1.86l.81.57a27.12,27.12,0,0,0,3.92,2.5,11.43,11.43,0,0,1,1.12.67l1,.64c1.53.83,2.71,1.44,3.83,2,1.47.7,3,1.43,4.64,2.08,1,.42,2.1.77,3.13,1.12l1.15.38a7.83,7.83,0,0,0,1.34.37"/><path class="cls-2" d="M462.83,152.06c.23,1.07.54,2.11.84,3.11l.15.51a40.48,40.48,0,0,0,1.85,5.15c.57,1.25,1.12,2.51,1.68,3.76L468,166c0,.08.09.16.14.24l.73,1.18c.55.9,1.11,1.8,1.68,2.69a48.88,48.88,0,0,0,5,6.64,59.91,59.91,0,0,0,5.86,5.74c1.32,1.1,2.72,2.11,4.07,3.09l.51.37a57.76,57.76,0,0,0,5.58,3.41l.18.1c.21.11.42.21.64.3l2,.85,3.84,1.63.13.06a8.82,8.82,0,0,0,1.12.41l1.42.39c1.54.42,3.13.86,4.71,1.24a55.42,55.42,0,0,0,9.07,1.15l2.11.16H517a5.33,5.33,0,0,0,1.25-.19l.24-.06a6.25,6.25,0,0,0,3.8-2.91,4.93,4.93,0,0,0,.7-4.1,6.28,6.28,0,0,0-6.18-4.74c-.94,0-1.9,0-2.85-.06a49.33,49.33,0,0,1-8-1.35h-.14a32.51,32.51,0,0,1-6-2,36.37,36.37,0,0,1-3.72-1.93l-.85-.48a38.81,38.81,0,0,1-7.07-5.07,51.74,51.74,0,0,1-5.73-6.11c-.34-.43-.65-.89-1-1.39l-.21-.32-.63-.92c-.55-.8-1.07-1.56-1.53-2.36a40.75,40.75,0,0,1-2.94-6.19c-.52-1.4-.93-2.88-1.3-4.27s-.59-2.54-.81-3.75c-.17-.88-.27-1.77-.34-2.52l-.06-.63c-.1-1-.21-2-.22-3a55.14,55.14,0,0,1,.4-7.6,43.59,43.59,0,0,1,2-8.35,38.9,38.9,0,0,1,4.73-9.45c.8-1.21,1.56-2.26,2.34-3.22a52.14,52.14,0,0,1,5-5.19,41.87,41.87,0,0,1,8.21-5.77,32.28,32.28,0,0,1,5-2.39l.66-.23a36.58,36.58,0,0,1,9.65-2.44,6.15,6.15,0,0,0,1-.11l.59-.07.62-.07c.62-.07,1.25-.14,1.88-.17a50.65,50.65,0,0,1,9.45.59,20.84,20.84,0,0,1,2.22.47l.8.2c.47.11.93.24,1.39.37l.35.1a36.91,36.91,0,0,1,6.73,2.61c1.53.78,3,1.73,4.5,2.64l.18.11a28.5,28.5,0,0,1,2.76,2A11.94,11.94,0,0,0,547,107a4.18,4.18,0,0,0,2.79.09,6.4,6.4,0,0,0,4.24-3.7,4.89,4.89,0,0,0,0-4,7.74,7.74,0,0,0-2-2.8,50.49,50.49,0,0,0-6.59-4.65,45.21,45.21,0,0,0-12.59-5.37h-.09a15.89,15.89,0,0,0-4-1.13l-.48-.09L527,85.08q-1.56-.35-3.15-.54c-1.46-.16-2.94-.23-4.36-.3l-1.83-.1H516l-1.47.08a30.42,30.42,0,0,0-5.86.67,20.26,20.26,0,0,1-2.17.42,27.51,27.51,0,0,0-4.66,1.21c-1,.32-1.94.62-2.9.85a3.07,3.07,0,0,0-.5.2l-2.38.92-.27.09a3.85,3.85,0,0,0-.86.37,16.53,16.53,0,0,1-2.13,1A17.18,17.18,0,0,0,490,91.36c-.64.44-1.34.86-2,1.26s-1.66,1-2.46,1.57c-1.59,1.13-3.27,2.44-5.16,4A47.65,47.65,0,0,0,473,106l-.07.09c-.34.45-.68.9-1,1.37l-.38.56c-.88,1.29-1.76,2.59-2.61,3.91a15.66,15.66,0,0,0-1.26,2.31c-.24.56-.51,1.11-.78,1.65a22.23,22.23,0,0,0-1.51,3.68.61.61,0,0,1-.05.12c-.05.11-.11.22-.18.41-.31.85-.63,1.7-.92,2.55-.17.48-.32,1-.47,1.43l-.19.58a1.46,1.46,0,0,1-.1.32,5,5,0,0,0-.28,1l-.27,1.6c-.34,2-.69,4-1,6a42.54,42.54,0,0,0-.23,10.21A76.71,76.71,0,0,0,462.83,152.06Z"/><path class="cls-2" d="M541.2,147.77c-.17.44-.34.88-.48,1.34a21.12,21.12,0,0,1-3,5.52,27.79,27.79,0,0,1-3.14,3.54l-.49.5a17.06,17.06,0,0,0-2,2.41,4.9,4.9,0,0,0-.39,4.77,7,7,0,0,0,2.63,3.07,5.37,5.37,0,0,0,6.27-.34,37.07,37.07,0,0,0,4.21-3.91,28.77,28.77,0,0,0,5.4-8,3.77,3.77,0,0,1,.28-.48c.08-.13.16-.26.23-.39l.12-.2a4.64,4.64,0,0,0,.41-.8c.2-.57.42-1.14.63-1.7a31,31,0,0,0,1.41-4.31,39.15,39.15,0,0,0,1.08-8.69,52.77,52.77,0,0,0-.64-7.21,25,25,0,0,0-1.15-4.6,32.8,32.8,0,0,0-2.58-6c-.27-.43-.52-.88-.76-1.33-.47-.83-1-1.69-1.52-2.51a34.48,34.48,0,0,0-5.32-6c-1-.88-1.91-1.64-2.83-2.33a27.8,27.8,0,0,0-3.19-2.2c-1-.54-1.93-1-2.89-1.49l-1.7-.85a27.34,27.34,0,0,0-7.49-2.36,39.82,39.82,0,0,0-13.07-.21,29.88,29.88,0,0,0-11.26,3.9l-.39.21-.53.27c-.35.22-.71.42-1.07.63a28.64,28.64,0,0,0-2.74,1.72A37.45,37.45,0,0,0,485,121.13a38.88,38.88,0,0,0-2.33,4.71,30.74,30.74,0,0,0-2.24,7.75c-.17,1.14-.24,2.27-.32,3.57,0,.6-.08,1.24-.13,1.92v.73c.08,1.43.18,3.17.28,4.92a26.25,26.25,0,0,0,1.31,6c.15.48.29,1,.43,1.44a5.45,5.45,0,0,0,.35.87c.06.11.11.22.16.33a30.15,30.15,0,0,0,2.27,4.68c.25.41.5.82.74,1.24a24.84,24.84,0,0,0,1.59,2.48,39.09,39.09,0,0,0,6.56,6.86,6.09,6.09,0,0,0,3.88,1.39,5.59,5.59,0,0,0,5.29-3.47,2.56,2.56,0,0,1,.11-.24l.1-.21A4.72,4.72,0,0,0,503,162a11.34,11.34,0,0,0-2.86-3.49,24.18,24.18,0,0,1-3.9-4.31,23.31,23.31,0,0,1-4-9.72,22,22,0,0,1-.25-7.15l.18-1a30.19,30.19,0,0,1,.91-4.22,25.2,25.2,0,0,1,4.56-8.39,27.41,27.41,0,0,1,5.1-4.82,21.82,21.82,0,0,1,6.85-3.3,26.42,26.42,0,0,1,17.39.81,25.47,25.47,0,0,1,3.12,1.6l.72.41a21.55,21.55,0,0,1,4.65,3.92,26.93,26.93,0,0,1,2.17,2.6,23.93,23.93,0,0,1,1.65,2.69c.26.47.51.94.78,1.4a4.52,4.52,0,0,1,.36.85l.12.32c.26.67.5,1.33.73,2l.09.23a11.33,11.33,0,0,1,.36,1.17,30.47,30.47,0,0,1,.19,12.07A13,13,0,0,1,541.2,147.77Z"/><path class="cls-2" d="M567.19,134a5.92,5.92,0,0,0-1.19,0c-2.85.39-5.42,3.47-5.19,6.21a15,15,0,0,1,0,2.32,40.15,40.15,0,0,1-1.46,8.91c-.32,1-.64,2-1,3-.08.24-.17.47-.26.7s-.26.64-.36,1a17.07,17.07,0,0,1-1.3,2.93c-.31.6-.62,1.2-.92,1.84l-.18.24-.22.34a7.65,7.65,0,0,0-.58,1,26.9,26.9,0,0,1-3.47,5,42.88,42.88,0,0,1-7.69,7.42,8.38,8.38,0,0,0-2.63,3,5,5,0,0,0,.45,5.51,7.15,7.15,0,0,0,.82,1,5.86,5.86,0,0,0,4,1.75,5.53,5.53,0,0,0,1.28-.15,7.47,7.47,0,0,0,2.36-1A33.41,33.41,0,0,0,553,182.4c1-.82,1.89-1.7,2.78-2.54l.89-.85a40.5,40.5,0,0,0,4.43-5c.84-1.1,1.61-2.24,2.34-3.31s1.4-2.13,2.09-3.25c.3-.48.56-1,.82-1.48l.21-.41c.23-.44.44-.88.66-1.32.29-.61.58-1.22.85-1.84s.54-1.24.79-1.87c.08-.21.15-.43.21-.65a4.68,4.68,0,0,1,.21-.6,31.83,31.83,0,0,0,1.54-4.76c.13-.49.27-1,.4-1.47a47.07,47.07,0,0,0,1.51-11v-2.43A6.15,6.15,0,0,0,567.19,134Z"/><path class="cls-2" d="M545.14,70.54c-.59-.1-3.06-1.11-3.71-1.27l-6-1.57-2.31-.61-1-.18-.24-.08-1.3-.28c-.31-.07-1.11-.18-1.42-.26a17.38,17.38,0,0,0-2-.43c-1.16-.15-2.32-.25-3.45-.35l-1.63-.15a25.1,25.1,0,0,0-5.2,0l-2.33.14a42.16,42.16,0,0,0-4.75.57l-1,.14c-.74.1-1.47.2-2.21.32s-1.36.25-2,.4h-.1c-.45.1-.9.22-1.34.33l-.44.11-.35.1a3,3,0,0,1-.43.11,15.36,15.36,0,0,0-2.9.79l-.24.07-.28.08L497,69c-1.1.34-2.24.7-3.35,1.11-1.39.51-2.84,1.12-4.57,1.91-.52.24-1,.52-1.5.79s-.87.5-1.31.71a6.24,6.24,0,0,0-2.93,2.79,3.83,3.83,0,0,0-.54,2.06,6,6,0,0,0,1.32,3.76,5.73,5.73,0,0,0,6.76,1.69c.48-.21,1-.44,1.43-.67.65-.31,1.3-.62,2-.89,1.64-.68,3.34-1.32,5-1.94l.65-.24a22.62,22.62,0,0,1,2.4-.82c1.38-.35,3.19-.8,5-1.13,2.1-.37,4.48-.79,6.79-1a52.37,52.37,0,0,1,6.51-.17c2,.08,4,.34,6,.6l.48.07a45,45,0,0,1,4.89.84c1.46.36,2.93.81,4.35,1.25l1.42.44a42.21,42.21,0,0,1,7.42,3c1.72.89,3.52,1.94,5.5,3.19,1,.65,2,1.39,3,2.11.54.4,1.08.8,1.63,1.19a46.19,46.19,0,0,1,6.35,5.75,48.38,48.38,0,0,1,4.41,5.28c1.45,2,2.89,4.22,4.38,6.75a48.22,48.22,0,0,1,3.68,8l.15.42c.44,1.18.89,2.39,1.22,3.62.38,1.45.77,3,1.09,4.44s.6,3,.8,4.48A60.39,60.39,0,0,1,578,135c0,1.83-.08,3.71-.2,5.53l-.06.9a37.23,37.23,0,0,1-1.1,6.37,6.34,6.34,0,0,0,1.23,5.44,5.34,5.34,0,0,0,3.56,2.12,5.43,5.43,0,0,0,4.14-1.16,3.48,3.48,0,0,0,1.23-1.78,27.32,27.32,0,0,0,2-8c.13-1,.26-2.07.48-3.2a1.48,1.48,0,0,0,0-.42v-.38a2.81,2.81,0,0,1,0-.41v-.51a17.36,17.36,0,0,0,.08-4.2,4.79,4.79,0,0,0-.06-.92,9.93,9.93,0,0,1,0-1.34c0-1,0-2-.08-2.94-.1-1.45-.32-2.9-.53-4.3v-.15c-.16-1.09-.4-2.19-.59-3.08l-.25-1.18c-.28-1.35-.57-2.75-.94-4.11-.48-1.78-1.08-3.55-1.6-5.05-.41-1.19-.9-2.43-1.55-3.93-.43-1-.93-2-1.4-2.94l-.54-1.1c-.44-.89-.9-1.82-1.43-2.71-.66-1.1-1.35-2.18-2-3.27-.51-.79-1-1.59-1.52-2.4a33.23,33.23,0,0,0-2.76-3.7c-.31-.37-.61-.75-.91-1.13-.65-.81-1.36-1.58-2-2.33l-.66-.73A29.53,29.53,0,0,0,567,84.62c-.35-.28-.68-.58-1-.89s-.58-.58-.89-.85c-1.32-1.13-2.35-2-3.33-2.74-1.28-1-2.67-2-4.1-3-.92-.63-1.89-1.2-2.82-1.75l-1-.61a8,8,0,0,0-1.23-.65"/></svg>