<?xml version="1.0" encoding="UTF-8"?>
<svg version="1.1" xmlns="http://www.w3.org/2000/svg" width="310" height="163">
<path d="M0 0 C102.3 0 204.6 0 310 0 C310 53.79 310 107.58 310 163 C207.7 163 105.4 163 0 163 C0 109.21 0 55.42 0 0 Z " fill="#838383" transform="translate(0,0)"/>
<path d="M0 0 C1.49192194 0.00138269 1.49192194 0.00138269 3.01398373 0.00279331 C4.15126919 0.00141865 5.28855465 0.00004398 6.46030331 -0.00137234 C7.71905773 0.00222294 8.97781216 0.00581821 10.27471066 0.00952244 C11.59158871 0.00937641 12.90846676 0.00923038 14.26525021 0.00907993 C17.88698982 0.00879196 21.5086966 0.01468859 25.13042855 0.02165389 C28.91142598 0.02788753 32.69242409 0.02849124 36.47342587 0.0296793 C43.63805004 0.03279258 50.80265904 0.04100594 57.96727651 0.05102879 C66.12191876 0.06219001 74.27656171 0.0677004 82.43120968 0.07272422 C99.21035107 0.08318855 115.98947717 0.10078794 132.76860714 0.12304783 C132.44891964 0.87843845 132.12923214 1.63382908 131.79985714 2.41211033 C130.57298939 5.6372854 130.23962796 8.70814688 129.76860714 12.12304783 C129.10194047 14.45638116 128.43527381 16.7897145 127.76860714 19.12304783 C127.60360714 20.27804783 127.43860714 21.43304783 127.26860714 22.62304783 C126.76860714 26.12304783 126.76860714 26.12304783 125.76860714 29.49804783 C124.79482547 33.02800637 124.39525165 36.27831336 124.05376339 39.90429783 C123.64174271 43.11015738 122.73154417 46.04164934 121.76860714 49.12304783 C121.76860714 49.45304783 121.76860714 49.78304783 121.76860714 50.12304783 C77.54860714 50.12304783 33.32860714 50.12304783 -12.23139286 50.12304783 C-11.57139286 48.80304783 -10.91139286 47.48304783 -10.23139286 46.12304783 C-9.94617579 44.06657739 -9.94617579 44.06657739 -10.00434208 41.90527439 C-10.00449314 41.08472569 -10.0046442 40.26417698 -10.00479984 39.41876316 C-10.0202837 38.10449345 -10.0202837 38.10449345 -10.03608036 36.76367283 C-10.03891026 35.85929478 -10.04174015 34.95491673 -10.0446558 34.02313328 C-10.05583504 31.13963588 -10.08093553 28.25645108 -10.10639286 25.37304783 C-10.11642558 23.41602107 -10.12555092 21.45898943 -10.13373661 19.50195408 C-10.15576701 14.70886521 -10.19028142 9.91600949 -10.23139286 5.12304783 C-7.59139286 4.79304783 -4.95139286 4.46304783 -2.23139286 4.12304783 C-2.56139286 3.13304783 -2.89139286 2.14304783 -3.23139286 1.12304783 C-2.23139286 0.12304783 -2.23139286 0.12304783 0 0 Z " fill="#737373" transform="translate(144.2313928604126,-0.1230478286743164)"/>
<path d="M0 0 C9.00001907 -0.02751365 17.9999544 -0.05102295 27 -0.0625 C27.66651707 -0.06335602 28.33303413 -0.06421204 29.01974869 -0.06509399 C52.35903676 -0.09156543 75.67272334 0.21721945 99 1 C98.52475167 4.57284908 98.0255007 7.91393514 97 11.375 C96.21424494 14.22336211 95.77557779 16.59659119 95.5 19.5 C95.11901913 23.51390557 94.14701288 27.12883152 93 31 C92.63858045 33.32914823 92.30300475 35.66253478 92 38 C91.27371891 42.15017765 90.17555021 45.88557428 89 50 C59.63 50 30.26 50 0 50 C0 33.5 0 17 0 0 Z " fill="#6A6268" transform="translate(0,0)"/>
<path d="M0 0 C1.51815699 0.00015911 3.0363194 0.00585313 4.55444336 0.01586914 C5.35208603 0.01728409 6.1497287 0.01869904 6.97154236 0.02015686 C9.52916146 0.02577223 12.08669429 0.03832727 14.64428711 0.05102539 C16.37410356 0.05603841 18.10392137 0.06060166 19.83374023 0.06469727 C24.08312264 0.07574664 28.33244023 0.09302153 32.58178711 0.11352539 C32.10225586 1.24661133 32.10225586 1.24661133 31.61303711 2.40258789 C30.38616936 5.62776296 30.05280793 8.69862444 29.58178711 12.11352539 C28.91512044 14.44685872 28.24845378 16.78019206 27.58178711 19.11352539 C27.41678711 20.26852539 27.25178711 21.42352539 27.08178711 22.61352539 C26.58178711 26.11352539 26.58178711 26.11352539 25.58178711 29.48852539 C24.60800544 33.01848393 24.20843162 36.26879092 23.86694336 39.89477539 C23.45492268 43.10063494 22.54472414 46.0321269 21.58178711 49.11352539 C21.58178711 49.44352539 21.58178711 49.77352539 21.58178711 50.11352539 C11.35178711 50.11352539 1.12178711 50.11352539 -9.41821289 50.11352539 C-8.42821289 48.46352539 -7.43821289 46.81352539 -6.41821289 45.11352539 C-6.74821289 44.45352539 -7.07821289 43.79352539 -7.41821289 43.11352539 C-15.33821289 42.78352539 -23.25821289 42.45352539 -31.41821289 42.11352539 C-31.41821289 31.88352539 -31.41821289 21.65352539 -31.41821289 11.11352539 C-22.50821289 10.78352539 -13.59821289 10.45352539 -4.41821289 10.11352539 C-4.41821289 7.14352539 -4.41821289 4.17352539 -4.41821289 1.11352539 C-3.41821289 0.11352539 -3.41821289 0.11352539 0 0 Z " fill="#050505" transform="translate(244.418212890625,-0.113525390625)"/>
<path d="M0 0 C10.23 0 20.46 0 31 0 C31 16.17 31 32.34 31 49 C26.47909166 49.75348472 22.77164994 50.12216791 18.26025391 50.11352539 C17.29333618 50.11374443 17.29333618 50.11374443 16.30688477 50.1139679 C14.19674195 50.11327661 12.08668971 50.10552133 9.9765625 50.09765625 C8.5054021 50.09578928 7.03424108 50.09436669 5.56307983 50.09336853 C1.70634215 50.08956533 -2.15035738 50.07975398 -6.00708008 50.06866455 C-9.94872522 50.05840302 -13.89037658 50.05386078 -17.83203125 50.04882812 C-25.55470482 50.03812959 -33.27734705 50.02107977 -41 50 C-40.67 49.34 -40.34 48.68 -40 48 C-39.3294458 48.0314209 -38.6588916 48.0628418 -37.96801758 48.09521484 C-34.91652448 48.22028252 -31.86557044 48.29807801 -28.8125 48.375 C-27.75740234 48.42527344 -26.70230469 48.47554687 -25.61523438 48.52734375 C-20.12085606 48.78864418 -20.12085606 48.78864418 -15.20751953 46.75634766 C-10.23203122 40.91555703 -8.71446981 34.38285466 -8 27 C-7.7215625 25.6696875 -7.7215625 25.6696875 -7.4375 24.3125 C-6.92254514 21.98284928 -6.92254514 21.98284928 -7 19.5 C-7 17 -7 17 -6.5 14.625 C-5.8828775 11.38510689 -5.93548844 8.29008962 -6 5 C-4.68 5 -3.36 5 -2 5 C-1.34 3.35 -0.68 1.7 0 0 Z " fill="#6A6A6A" transform="translate(210,0)"/>
<path d="M0 0 C1.39456452 0.00667256 2.78911118 0.01863093 4.18359375 0.03515625 C5.2499707 0.04192383 5.2499707 0.04192383 6.33789062 0.04882812 C8.09899388 0.06064761 9.86005411 0.07858362 11.62109375 0.09765625 C10.63109375 1.41765625 9.64109375 2.73765625 8.62109375 4.09765625 C9.28109375 4.75765625 9.94109375 5.41765625 10.62109375 6.09765625 C10.96484375 8.234375 10.96484375 8.234375 11.12109375 10.78515625 C11.46961993 15.11683875 12.36237215 18.92814096 13.62109375 23.09765625 C13.9825133 25.42680448 14.318089 27.76019103 14.62109375 30.09765625 C14.86859375 31.33515625 14.86859375 31.33515625 15.12109375 32.59765625 C15.75112477 35.74781136 16.16682205 38.91775433 16.62109375 42.09765625 C17.12962001 44.8945507 17.72035086 47.39542757 18.62109375 50.09765625 C13.95802361 50.14702904 9.29510502 50.18336252 4.63183594 50.20751953 C3.04489492 50.21758813 1.4579725 50.23124392 -0.12890625 50.24853516 C-2.40759872 50.27274626 -4.68604631 50.28413047 -6.96484375 50.29296875 C-7.6763559 50.30329132 -8.38786804 50.31361389 -9.12094116 50.32424927 C-10.8752229 50.32465047 -12.62887334 50.21967834 -14.37890625 50.09765625 C-15.03890625 49.43765625 -15.69890625 48.77765625 -16.37890625 48.09765625 C-16.37890625 46.77765625 -16.37890625 45.45765625 -16.37890625 44.09765625 C-22.64890625 43.76765625 -28.91890625 43.43765625 -35.37890625 43.09765625 C-35.37890625 29.56765625 -35.37890625 16.03765625 -35.37890625 2.09765625 C-19.94140625 1.66015625 -19.94140625 1.66015625 -15.06469727 1.52954102 C-13.80842529 1.49143311 -12.55215332 1.4533252 -11.2578125 1.4140625 C-9.96431885 1.37740479 -8.6708252 1.34074707 -7.33813477 1.30297852 C-3.77219305 1.05556023 -3.72054964 0.10753034 0 0 Z " fill="#737373" transform="translate(280.37890625,-0.09765625)"/>
<path d="M0 0 C5.94 0 11.88 0 18 0 C18 16.5 18 33 18 50 C-1.305 49.505 -1.305 49.505 -21 49 C-21 45.13412352 -20.82714574 42.63944125 -20 39 C-17.31848107 27.48318157 -17.31848107 27.48318157 -15.5 15.8125 C-15.00606004 12.04620779 -14.06966729 8.63686879 -13 5 C-13 4.01 -13 3.02 -13 2 C-11.71802734 1.90912109 -11.71802734 1.90912109 -10.41015625 1.81640625 C-8.75306641 1.69072266 -8.75306641 1.69072266 -7.0625 1.5625 C-5.96035156 1.48128906 -4.85820312 1.40007813 -3.72265625 1.31640625 C-1.08890097 1.29581916 -1.08890097 1.29581916 0 0 Z " fill="#9B9B9B" transform="translate(292,0)"/>
<path d="M0 0 C1.30807617 -0.00193359 1.30807617 -0.00193359 2.64257812 -0.00390625 C4.02026367 0.00189453 4.02026367 0.00189453 5.42578125 0.0078125 C6.32490234 0.00394531 7.22402344 0.00007813 8.15039062 -0.00390625 C12.79293354 0.00290599 17.17199985 0.17866415 21.73828125 1.1328125 C21.73828125 2.1228125 21.73828125 3.1128125 21.73828125 4.1328125 C20.08828125 4.4628125 18.43828125 4.7928125 16.73828125 5.1328125 C16.73828125 6.1228125 16.73828125 7.1128125 16.73828125 8.1328125 C19.21328125 8.6278125 19.21328125 8.6278125 21.73828125 9.1328125 C21.73828125 22.6628125 21.73828125 36.1928125 21.73828125 50.1328125 C9.85828125 50.1328125 -2.02171875 50.1328125 -14.26171875 50.1328125 C-13.60171875 48.8128125 -12.94171875 47.4928125 -12.26171875 46.1328125 C-11.97650168 44.07634206 -11.97650168 44.07634206 -12.03466797 41.91503906 C-12.03481903 41.09449036 -12.03497009 40.27394165 -12.03512573 39.42852783 C-12.05060959 38.11425812 -12.05060959 38.11425812 -12.06640625 36.7734375 C-12.06923615 35.86905945 -12.07206604 34.9646814 -12.07498169 34.03289795 C-12.08616093 31.14940055 -12.11126142 28.26621575 -12.13671875 25.3828125 C-12.14675147 23.42578574 -12.15587681 21.46875411 -12.1640625 19.51171875 C-12.1860929 14.71862988 -12.22060731 9.92577416 -12.26171875 5.1328125 C-9.62171875 4.8028125 -6.98171875 4.4728125 -4.26171875 4.1328125 C-4.59171875 3.1428125 -4.92171875 2.1528125 -5.26171875 1.1328125 C-3.69868214 -0.43022411 -2.16846017 0.00307864 0 0 Z " fill="#1E1E1E" transform="translate(146.26171875,-0.1328125)"/>
<path d="M0 0 C-0.33 0.99 -0.66 1.98 -1 3 C-0.85763916 3.69182373 -0.71527832 4.38364746 -0.56860352 5.09643555 C0.23952137 9.22311193 0.12251188 13.26239489 0.09765625 17.45703125 C0.0962413 18.35999435 0.09482635 19.26295746 0.09336853 20.19328308 C0.08778823 23.06638963 0.07523934 25.93941716 0.0625 28.8125 C0.05748245 30.76497283 0.05291999 32.71744689 0.04882812 34.66992188 C0.03867779 39.44666924 0.01909853 44.22324656 0 49 C-11.55 49 -23.1 49 -35 49 C-34.34 46.03 -33.68 43.06 -33 40 C-31.98868715 35.28714991 -31.02754289 30.60666166 -30.5 25.8125 C-30 22 -30 22 -29 18.5625 C-28.20013004 15.71296328 -27.77252735 13.34770281 -27.5 10.4375 C-27.15064583 6.72799389 -26.34444509 3.49555723 -25 0 C-16.53095523 -1.29526567 -8.49208584 -0.73598077 0 0 Z " fill="#010101" transform="translate(129,1)"/>
<path d="M0 0 C7.92 0 15.84 0 24 0 C24.66 2.97 25.32 5.94 26 9 C26.63903117 10.67745682 27.30341637 12.34561387 28 14 C28.67258667 16.33163378 29.33847444 18.6652039 30 21 C30.97169716 24.00963498 31.98510834 27.00469812 33 30 C34.33333333 34 35.66666667 38 37 42 C37.37125 43.093125 37.7425 44.18625 38.125 45.3125 C39 48 39 48 39 49 C35.06810858 49.21727572 31.1357768 49.41408356 27.2019043 49.59204102 C25.20632631 49.68660785 23.21153532 49.79732981 21.21679688 49.90820312 C19.33637695 49.99038086 19.33637695 49.99038086 17.41796875 50.07421875 C16.26063232 50.13182373 15.1032959 50.18942871 13.91088867 50.2487793 C11 50 11 50 9.10668945 48.64379883 C7.56848731 46.35906134 7.87052027 44.7190744 8 42 C7.72057545 40.32345271 7.37668344 38.65740715 7 37 C3.18081531 19.9995584 3.18081531 19.9995584 2.5 13.8125 C2.00606004 10.04620779 1.06966729 6.63686879 0 3 C0 2.01 0 1.02 0 0 Z " fill="#B3B3B3" transform="translate(118,0)"/>
<path d="M0 0 C7.77106828 -0.11581206 15.54193475 -0.2046728 23.31364918 -0.25906086 C26.92238133 -0.28516394 30.53052348 -0.32057222 34.13891602 -0.37719727 C37.62081896 -0.43149587 41.10215424 -0.46141518 44.58444786 -0.47438622 C46.56054298 -0.48813178 48.53640941 -0.52716925 50.51216125 -0.56648254 C51.71317978 -0.5668602 52.9141983 -0.56723785 54.15161133 -0.56762695 C55.21084305 -0.57873001 56.27007477 -0.58983307 57.36140442 -0.60127258 C60 0 60 0 61.74052429 2.41047668 C62.15615128 3.26501938 62.57177826 4.11956207 63 5 C63.99 5.99 63.99 5.99 65 7 C43.55 7 22.1 7 0 7 C0 4.69 0 2.38 0 0 Z " fill="#2D262B" transform="translate(0,41)"/>
<path d="M0 0 C18.15 0 36.3 0 55 0 C55 1.65 55 3.3 55 5 C36.85 5 18.7 5 0 5 C0 3.35 0 1.7 0 0 Z " fill="#150612" transform="translate(0,15)"/>
<path d="M0 0 C17.82 0 35.64 0 54 0 C54 1.65 54 3.3 54 5 C36.18 5 18.36 5 0 5 C0 3.35 0 1.7 0 0 Z " fill="#11030F" transform="translate(0,7)"/>
<path d="M0 0 C18.15 0 36.3 0 55 0 C55.495 1.485 55.495 1.485 56 3 C37.52 3 19.04 3 0 3 C0 2.01 0 1.02 0 0 Z " fill="#463042" transform="translate(0,21)"/>
<path d="M0 0 C18.15 0 36.3 0 55 0 C55 0.99 55 1.98 55 3 C36.85 3 18.7 3 0 3 C0 2.01 0 1.02 0 0 Z " fill="#95798F" transform="translate(0,12)"/>
<path d="M0 0 C0.98467255 0.00141495 1.96934509 0.0028299 2.9838562 0.00428772 C6.0908325 0.0098301 9.19773343 0.02237142 12.3046875 0.03515625 C14.42708228 0.04017871 16.54947821 0.0447403 18.671875 0.04882812 C23.84117433 0.05978058 29.01041819 0.07700459 34.1796875 0.09765625 C34.1796875 1.08765625 34.1796875 2.07765625 34.1796875 3.09765625 C16.0296875 3.09765625 -2.1203125 3.09765625 -20.8203125 3.09765625 C-20.8203125 2.43765625 -20.8203125 1.77765625 -20.8203125 1.09765625 C-13.85426419 0.26764774 -7.01183796 -0.03880113 0 0 Z " fill="#947E90" transform="translate(20.8203125,3.90234375)"/>
<path d="M0 0 C18.15 0.33 36.3 0.66 55 1 C54.67 1.99 54.34 2.98 54 4 C36.18 4.33 18.36 4.66 0 5 C0 3.35 0 1.7 0 0 Z " fill="#250920" transform="translate(0,0)"/>
<path d="M0 0 C7.78843397 -0.06943556 15.57679577 -0.12277821 23.36546135 -0.15543652 C26.9818704 -0.17110901 30.59806808 -0.19237553 34.21435547 -0.22631836 C37.70269988 -0.25885631 41.19084068 -0.27684108 44.6793251 -0.28463173 C46.66143769 -0.29289269 48.64346809 -0.31632087 50.62545776 -0.33988953 C51.82655182 -0.34011612 53.02764587 -0.34034271 54.26513672 -0.34057617 C55.32658905 -0.34723801 56.38804138 -0.35389984 57.48165894 -0.36076355 C58.31271149 -0.24171158 59.14376404 -0.12265961 60 0 C60.66 0.99 61.32 1.98 62 3 C41.54 3 21.08 3 0 3 C0 2.01 0 1.02 0 0 Z " fill="#1A1419" transform="translate(0,41)"/>
</svg>
