<svg xmlns="http://www.w3.org/2000/svg" width="267" height="66.725" viewBox="0 0 267 66.725">
  <g id="logo_eminence" transform="translate(0.5 0.5)">
    <path id="Union_4" data-name="Union 4" d="M0,65.725V2.691H56.026V65.725Zm1.958-2.31h52.1V5H1.958ZM185.1,61.75l-.038-.1a3.438,3.438,0,0,0,.038-.452l.106-.038a2.01,2.01,0,0,0,1.363.5c1.517,0,2.121-1.393,2.121-2.863v-.124a2.336,2.336,0,0,1-1.823.845,1.905,1.905,0,0,1-2.026-2.027,2.069,2.069,0,0,1,2.217-2.133c1.373,0,2.266.979,2.266,3.074,0,1.027-.173,3.717-2.706,3.717A2.829,2.829,0,0,1,185.1,61.75Zm.365-4.236A1.37,1.37,0,0,0,186.932,59a2.2,2.2,0,0,0,1.766-.922c0-1.075-.46-2.228-1.679-2.228A1.527,1.527,0,0,0,185.464,57.514ZM159.52,61.183a3.773,3.773,0,0,1-.884-2.517,3.294,3.294,0,0,1,3.34-3.582,3.682,3.682,0,0,1,1.775.423l.049.076a2.285,2.285,0,0,0-.077.509l-.067.048a2.826,2.826,0,0,0-1.7-.529,2.461,2.461,0,0,0-1.92.817,3.467,3.467,0,0,0-.738,2.209,2.722,2.722,0,0,0,4.512,2.295l.076.048a2.894,2.894,0,0,0-.048.567l-.047.1a3.286,3.286,0,0,1-1.873.51A3.144,3.144,0,0,1,159.52,61.183Zm-20.494.48-.038-.106c.021-.191.029-.432.038-.576l.1-.019a2.176,2.176,0,0,0,1.641.672,1.445,1.445,0,0,0,1.613-1.392c0-.826-.739-1.162-1.247-1.374l-.778-.327a1.94,1.94,0,0,1-1.4-1.7c0-.307.134-1.757,2.15-1.757a3.233,3.233,0,0,1,1.612.383l.059.078-.059.47-.094.049a2.61,2.61,0,0,0-1.536-.471c-1.065,0-1.517.6-1.517,1.22,0,.7.519.951,1.162,1.221l.8.336a1.932,1.932,0,0,1-.759,3.785A3.229,3.229,0,0,1,139.026,61.663Zm-38.9-.951a3.757,3.757,0,0,1-.557-2.046,4.333,4.333,0,0,1,.192-1.3,3.212,3.212,0,0,1,3.235-2.286,3.766,3.766,0,0,1,1.843.451l.049.077c-.029.174-.058.346-.077.51l-.067.038a2.453,2.453,0,0,0-1.728-.538,2.756,2.756,0,0,0-2.063.825,3.171,3.171,0,0,0-.729,2.162,2.784,2.784,0,0,0,2.88,3.025,3.612,3.612,0,0,0,1.334-.23V60c0-.414-.01-.817-.049-1.23l.058-.057c.2,0,.4,0,.605-.01l.057.058c-.038.539-.049,1.442-.049,1.826,0,.47,0,.95.01,1.133l-.049.087a5.618,5.618,0,0,1-1.958.346A3.336,3.336,0,0,1,100.125,60.711Zm-16.883.538a3.192,3.192,0,0,1-.374-1.863s.018-2.1.018-2.479c0-.576,0-1.046-.018-1.622l.057-.068s.46-.009.614-.019l.047.058c-.019.567-.057,2.6-.057,2.613v1.68c0,.682.057,2.065,1.766,2.065a1.658,1.658,0,0,0,1.632-.865,4.8,4.8,0,0,0,.221-2.016c0-1.153,0-2.305-.049-3.448l.058-.068s.076,0,.519-.009l.057.056v.529c0,.73-.009,1.652-.009,3.822a2.693,2.693,0,0,1-.355,1.538,2.449,2.449,0,0,1-2.159,1A2.261,2.261,0,0,1,83.241,61.249Zm115.717-1.056a1.679,1.679,0,0,1,1.547-1.748,1.4,1.4,0,0,1-1.326-1.451c0-1.248,1.133-1.632,2.036-1.632,1.352,0,1.949.787,1.949,1.623a1.412,1.412,0,0,1-1.2,1.432,1.653,1.653,0,0,1,1.488,1.729,2.031,2.031,0,0,1-2.266,2A2,2,0,0,1,198.958,60.193Zm.644-.019a1.621,1.621,0,1,0,1.613-1.47A1.458,1.458,0,0,0,199.6,60.174Zm.211-3.131a1.241,1.241,0,0,0,1.383,1.19A1.223,1.223,0,0,0,202.52,57a1.162,1.162,0,0,0-1.315-1.181A1.244,1.244,0,0,0,199.813,57.042ZM192.25,61.7l-.059-.1c.019-.155.029-.308.038-.461l.1-.049a2.687,2.687,0,0,0,1.632.538,1.764,1.764,0,0,0,1.891-1.768,1.555,1.555,0,0,0-1.679-1.633,3.168,3.168,0,0,0-1.613.471l-.077-.057c.049-.614.125-2.055.134-3.093l.068-.058c.143,0,.538.01.8.01h1.777c.259,0,.672-.01.788-.01l.066.058c-.019.134-.038.269-.049.4l-.077.067s-1.42-.019-1.554-.019H193.19l-.076,1.959a2.761,2.761,0,0,1,1.19-.259,2.047,2.047,0,0,1,2.178,2.1,2.344,2.344,0,0,1-2.562,2.334A3.155,3.155,0,0,1,192.25,61.7Zm-25.522.27c.019-.49.019-.979.019-1.47,0-.673,0-1.355-.01-2.027,0-.375-.068-2.834-.077-3.2l.058-.066c.3.009.8.018,1.247.018h1.143c.268,0,.893-.018,1.352-.018l.059.047c-.021.134-.021.308-.03.461l-.076.057c-.826-.028-1.679-.028-3.082-.038,0,.153.01.625.01,1.124v1.355h.95c.681,0,1.343,0,2.025-.029l.057.066a3.13,3.13,0,0,0-.029.424l-.086.058c-.385-.019-.529-.019-1.075-.019-.212,0-1.277.009-1.823.009,0,.922.019,1.979.038,2.767,1.929,0,1.977-.021,3.139-.04l.038.059-.029.451-.049.058c-.374,0-.566-.009-1.122-.009h-1.7c-.259,0-.625.018-.882.038Zm13.283,0s.019-1.806.019-2.191c0-1.027-.038-2.352-.038-3.121,0-.221,0-.442.01-.663-.317.038-.633.1-.95.164l-.076-.057c.009-.134.019-.279.019-.414l.057-.077c.508-.057,1.027-.125,1.545-.211l.076.057c-.029.605-.04,1.192-.04,1.786,0,.528.04,4.024.087,4.707l-.058.057c-.192,0-.393.009-.585.019Zm-29.524-.01c.01-.595.01-1.191.01-1.778,0-.567-.03-4.5-.077-4.907l.056-.057c.25,0,.567-.009.846-.019l.087.058c1.276,2.171,1.737,2.977,3.59,6.262,0-.845-.049-5.667-.106-6.253l.049-.047c.162-.009.364-.019.508-.019l.057.049c-.009.46-.019.921-.019,1.383,0,.71,0,1.421.01,2.131.009,1.066.039,2.1.076,3.18l-.057.057c-.318.01-.854.019-.854.019l-.076-.047c-.308-.5-.616-1.019-.912-1.546l-2.66-4.717c.021.779.021,5.514.1,6.243l-.059.059a4.493,4.493,0,0,0-.5.018Zm-26.166,0c.029-.807.029-1.527.029-1.778,0-.181,0-.442-.02-.922l-.987-1.95c-.193-.374-.414-.778-1.037-2l.047-.077c.163-.019.5-.038.624-.049l.086.059c.183.432.395.884.605,1.315l1.026,2.132.605-1.162c.384-.738.748-1.488,1.1-2.266l.076-.047h.557l.058.077c-.672,1.258-.9,1.652-1.093,2.007l-1.028,1.921c.01.932.03,1.826.049,2.728l-.058.059c-.24.009-.576.018-.576.018Zm-4.75.01c-.759-1.057-1.517-2.037-2.284-3.065,0,0-.768.009-.882.009,0,1.038.028,2.028.066,3.035l-.058.059c-.2,0-.48.009-.585.009l-.059-.058c.02-.557.02-1.115.02-1.672,0-.605-.028-4.351-.086-5.013l.058-.057c.614-.019,1.324-.03,1.919-.03a2.219,2.219,0,0,1,1.834.616,1.7,1.7,0,0,1,.4,1.152,1.777,1.777,0,0,1-.538,1.3,2.294,2.294,0,0,1-1.371.577l.71.932c.365.47.72.941,1.67,2.151l-.038.087c-.231,0-.452.01-.682.028Zm-3.177-6.245v2.691h.47c1.113,0,2.419-.106,2.419-1.432a1.38,1.38,0,0,0-.211-.759c-.317-.481-1.027-.529-1.564-.529C117.133,55.7,116.759,55.707,116.394,55.726ZM91.409,61.96c.01-.595.01-1.191.01-1.778,0-.567-.029-4.5-.076-4.907l.057-.057c.249,0,.566-.009.844-.019l.087.058c1.277,2.171,1.737,2.977,3.59,6.262,0-.845-.049-5.667-.106-6.253l.047-.047c.165-.009.365-.019.51-.019l.057.049c-.009.46-.019.921-.019,1.383,0,.71,0,1.421.01,2.131.009,1.066.039,2.1.077,3.18L96.439,62c-.318.01-.854.019-.854.019l-.078-.047c-.306-.5-.614-1.019-.91-1.546l-2.659-4.717c.019.779.019,5.514.1,6.243l-.059.059a4.5,4.5,0,0,0-.5.018Zm-12.862.01c.01-.346.01-.779.01-1.153V58.589c-.452-.009-.9-.019-1.345-.019-.8,0-1.613.01-2.409.028,0,.3.02,3.122.058,3.362l-.058.049c-.2,0-.442.018-.576.018l-.059-.056V58.06c0-.931-.018-1.853-.066-2.785l.057-.049c.144-.009.393-.009.586-.018l.057.056c-.01.423-.01,1.316-.01,1.614V58.06c.614.01,1.564.01,1.94.01.268,0,1.026-.01,1.813-.038-.009-.568-.009-1.163-.028-1.739-.01-.336-.04-.778-.04-1.018l.059-.049c.191,0,.392-.009.585-.018l.058.066c-.009.529-.009,1.574-.009,1.574,0,1.47.047,4.38.085,5.1l-.057.059c-.2,0-.393.009-.585.018Zm67.611-.01c.01-.47.019-.941.019-1.412,0-.566-.019-4.408-.085-5.273l.056-.049c.2,0,.4,0,.6-.018l.057.066s-.01.625-.01,1.345v2.209c0,.605.068,2.458.076,3.121l-.057.059c-.2,0-.4,0-.595.009ZM112.3,61.941c-.153-.625-.336-1.219-.644-2.19H109l-.115.365c-.191.595-.374,1.2-.527,1.833l-.077.059a2.107,2.107,0,0,0-.279-.021,2.762,2.762,0,0,0-.289.021l-.047-.087c.691-1.921,1.515-4.552,2.227-6.647l.057-.057c.268-.009.633-.009.816-.019l.066.049c.432,1.267,1.459,4.485,2.227,6.675l-.049.066c-.278.01-.653.021-.653.021Zm-3.148-2.708c.394.009.778.009,1.161.009s.778,0,1.162-.009l-1.171-3.669ZM3.715,61.66V6.75h48.6V61.66ZM34.691,51.01c3.563,0,6.155-3.584,6.155-6.993,0-.839-.318-.968-.48-.968-1.664,0-1.046,5.731-11.885,5.731-3.145,0-2.988-1.573-2.988-4.286V38.9c0-2.541-.157-3.06,1.844-3.06h3.236c4.56,0,3.325,4.634,4.721,4.634,1.051,0,.777-1.574.752-2.145l-.313-7.782c-.05-1.184-.522-1.089-.827-1.089-.894,0-1.008,4.021-4.776,4.021H27.4c-1.908,0-1.908-.31-1.908-2.191V25.171c0-3.019.184-3.062,5.468-3.062,8.453,0,5.043,5.114,7.093,5.114.993,0,.772-1.448.738-2.006l-.165-4.329a.848.848,0,0,0-.88-.831c-3.849,0-6.866.167-9.975.167-6.7,0-9.833-.167-11.631-.167-.6,0-.959.35-.959.744,0,1.743,4.951.345,4.951,4.282V45.551c0,5.326-3.337,2.963-3.337,4.971,0,.271.277.488.833.488,2.42,0,4.25-.174,5.588-.174C25.412,50.836,28.032,51.01,34.691,51.01ZM30.483,11.792,25.148,17.3h2.009l6.08-3.852c.924-.571,1.927-1.051,1.927-2.318A1.837,1.837,0,0,0,33.428,9.6C32.542,9.6,32.15,10.082,30.483,11.792ZM131.822,58.773a.768.768,0,1,1,.768.769A.768.768,0,0,1,131.822,58.773ZM216.71,42.361c0-3.156,1.94-7.293,6.657-7.293,2.271,0,3.726,1.143,4.286,1.143.359,0,.371-.633.64-.633.092,0,.222.03.222.125l.336,3.565c.014.188.1.611-.224.611-.3,0-.433-.391-.567-.634-.945-1.8-2.581-3.432-4.761-3.432-2.768,0-4.269,2.627-4.269,5.141,0,2.643,1.5,6.352,5.073,6.352,2.912,0,4.189-2.456,4.679-2.456.082,0,.255.091.255.2,0,.75-1.987,3.59-5.979,3.59C217.562,48.642,216.71,43.841,216.71,42.361Zm-8.175,6.015-9.019-9.755c-.129-.146-.248-.234-.342-.234s-.147.123-.147.3v6.366c0,3.609,2.4,2.329,2.4,3.217,0,.266-.466.239-.717.239-.91,0-1.552-.066-2.226-.066-.581,0-1.081.066-1.613.066-.2,0-.567.1-.567-.222,0-.751,1.808-.415,1.808-2.327V38.835c0-3.6-2.111-2.387-2.111-3.283a.3.3,0,0,1,.328-.32c.345,0,.677.074,1.045.074.491,0,.978-.074,1.975-.074.59,0,.358.135.712.48l7.541,8.275c.235.268.461.489.572.489s.155-.221.155-.693V37.532c0-1.695-2.283-1.357-2.283-1.98a.278.278,0,0,1,.3-.32c.3,0,.834.074,2.147.074,1.168,0,1.827-.074,2.007-.074.35,0,.35.185.35.244,0,.567-1.591.1-1.591,2.076V48.072c0,.421,0,.571-.222.571A.554.554,0,0,1,208.535,48.375Zm-41.241-.436c-.469-.1-.436-.257-.545-.7l-.563-2.574c-.069-.267-.257-.8.208-.8.331,0,.341.167.418.4.6,1.8,1.757,3.508,3.838,3.508a2.38,2.38,0,0,0,2.6-2.4c0-1.595-1.191-1.84-4.206-3.173-1.618-.714-2.715-1.449-2.715-3.406a3.557,3.557,0,0,1,3.693-3.731c1.546,0,2.323.721,2.891.721.267,0,.707-.3.951-.3.285,0,.225.292.267.724l.2,2.51c.059.412-.042.636-.445.636-.419,0-.695-3.484-3.927-3.484a1.894,1.894,0,0,0-2.086,1.963c0,1.262,1.036,1.5,3.556,2.607,2.019.881,3.242,1.685,3.242,4.071a3.965,3.965,0,0,1-4.183,4.128A13.566,13.566,0,0,1,167.294,47.94Zm-20.3-5.579c0-3.156,1.937-7.293,6.665-7.293,2.268,0,3.725,1.143,4.277,1.143.354,0,.354-.633.622-.633.115,0,.243.03.243.125l.339,3.565c.018.188.088.611-.245.611-.284,0-.418-.391-.547-.634-.935-1.8-2.605-3.432-4.767-3.432-2.752,0-4.27,2.627-4.27,5.141,0,2.643,1.5,6.352,5.081,6.352,2.895,0,4.166-2.456,4.674-2.456.092,0,.264.091.264.2,0,.75-2,3.59-5.984,3.59C147.84,48.642,146.992,43.841,146.992,42.361Zm-10.625,6.015-9.021-9.755c-.133-.146-.251-.234-.34-.234-.111,0-.15.123-.15.3v6.366c0,3.609,2.4,2.329,2.4,3.217,0,.266-.473.239-.707.239-.931,0-1.558-.066-2.223-.066-.6,0-1.1.066-1.607.066a1.542,1.542,0,0,1-.439-.008c-.1.011-.249.008-.444.008-.668,0-1.187-.07-2.419-.07-.847,0-1.523.07-2.063.07-.346,0-.586.033-.586-.222,0-.548,1.334-.347,1.334-1.483a3.3,3.3,0,0,0-.334-1.25c-.621-1.475-.712-1.654-1.211-1.654H114.87c-.314,0-.713.073-1.148,1.31a5.232,5.232,0,0,0-.407,1.485c0,1.344,2.042,1.043,2.042,1.545,0,.4-.58.268-.978.268-.6,0-1.157-.07-1.761-.07-.542,0-1.1.07-1.652.07-.257,0-.559.033-.559-.2,0-.436.963-.322,1.424-1.373l5.089-11.356c.129-.292.22-.645.467-.645.166,0,.208.039.446.6l5.07,11.47a1.5,1.5,0,0,0,1.4.949c.448-.372,1.633-.444,1.633-1.995V38.835c0-3.6-2.1-2.387-2.1-3.283a.288.288,0,0,1,.309-.32c.366,0,.7.074,1.059.074.477,0,.978-.074,1.96-.074.618,0,.385.135.724.48l7.534,8.275c.251.268.475.489.583.489s.152-.221.152-.693V37.532c0-1.695-2.29-1.357-2.29-1.98a.286.286,0,0,1,.292-.32c.309,0,.853.074,2.144.074,1.185,0,1.841-.074,2.015-.074.341,0,.341.185.341.244,0,.567-1.583.1-1.583,2.076V48.072c0,.421,0,.571-.237.571A.513.513,0,0,1,136.367,48.375Zm-18.379-5.494c.341,0,.6.015.6-.161a1.858,1.858,0,0,0-.206-.7l-1.544-3.4c-.116-.146-.051-.146-.162-.146-.019,0-.1.021-.19.223l-1.446,3.325a1.986,1.986,0,0,0-.209.7c0,.176.265.161.6.161Zm-20.4-.521c0-3.157,1.942-7.293,6.665-7.293,2.6,0,4.182,1.213,4.693,1.213.4,0,.448-.527.746-.527.28,0,.28.411.28.718V39.6c0,.241-.109.338-.465.338-.422,0-.422-4.094-5.352-4.094-1.739,0-4.217,1.146-4.217,5.892,0,2.57,1.314,5.985,4.357,5.985,3.372,0,3.424-1.572,3.424-2.67,0-2.926-2.225-1.649-2.225-2.357,0-.542.6-.4.906-.4.886,0,1.751.075,2.637.075.695,0,1.352-.075,2.026-.075.082,0,.2.075.2.268,0,.8-1.292-.2-1.292,2.2,0,.771.059,1.292.059,1.554,0,.3-.023.39-.192.487a12.788,12.788,0,0,1-5.9,1.839C98.438,48.642,97.591,43.841,97.591,42.361ZM71.439,42.3c0-4.111,2.506-7.2,6.986-7.228a6.051,6.051,0,0,1,6.459,6.358c0,2.615-1.144,7.216-7.133,7.216A5.987,5.987,0,0,1,71.439,42.3Zm2.32-1.057c0,2.734,1.176,6.658,4.533,6.6,3.218-.057,4.277-2.569,4.277-5.687,0-4.1-2.24-6.281-4.629-6.281h-.079C74.7,35.922,73.76,38.509,73.76,41.238Zm158.69,7.27c-.6,0-1.157-.07-1.752-.07-.567,0-1.111.07-1.659.07-.255,0-.568.033-.568-.2,0-.436.967-.322,1.438-1.373l5.073-11.356c.139-.292.232-.645.47-.645.171,0,.207.039.457.6l5.06,11.47c.449.994,1.126.843,1.444.958.373-.243,1.395-.187,1.395-2.116V37.583c0-2.1-2.05-1.4-2.05-2.071,0-.185.184-.28.416-.28.859,0,1.009.074,2.188.074,1.26,0,2.539-.074,3.792-.074,4.1,0,4.478,2.647,4.478,3.5a2.837,2.837,0,0,1-1.091,2.35c-.538.432-1.077.6-1.077.784,0,.119,1.585,2.834,2.94,5.2a.727.727,0,0,0,.682.3c.185,0,.361-.116.557-.116a.259.259,0,0,1,.281.262c0,.586-1.231.993-1.981.993-1.49,0-2.076-1.175-2.668-2.269L248.7,43.27a1.534,1.534,0,0,0-1.71-.983c-.982,0-.877.123-.877.775v3.255c0,2.005,1.857,1.234,1.857,1.916,0,.167-.145.276-.58.276-.318,0-.817-.066-1.612-.066-1.014,0-1.95.066-2.891.066a1.255,1.255,0,0,1-.423-.032,1.965,1.965,0,0,1-.548.032c-.678,0-1.18-.07-2.422-.07-.828,0-1.52.07-2.061.07-.34,0-.579.033-.579-.222,0-.548,1.327-.347,1.327-1.483a3.24,3.24,0,0,0-.337-1.25c-.62-1.475-.714-1.654-1.2-1.654H232.95c-.327,0-.725.073-1.156,1.31a5.727,5.727,0,0,0-.387,1.485c0,1.344,2.024,1.043,2.024,1.545,0,.241-.208.29-.462.29C232.8,48.53,232.61,48.508,232.449,48.508Zm3.6-5.626c.341,0,.606.015.606-.161a1.653,1.653,0,0,0-.206-.7l-1.541-3.4c-.11-.146-.065-.146-.143-.146-.04,0-.122.021-.221.223l-1.43,3.325a1.69,1.69,0,0,0-.207.7c0,.176.255.161.594.161Zm10.058-5.723v3.8c0,.473.7.473,1.26.473,2.84,0,2.963-1.051,2.963-2.158,0-1.85-1.063-3.238-2.946-3.238C246.7,36.03,246.108,36.03,246.108,37.158ZM85.4,48.2c0-.6,1.523.01,1.523-2.349V37.583c0-2.1-2.043-1.4-2.043-2.071,0-.185.179-.28.41-.28.868,0,1.021.074,2.194.074,1.254,0,2.53-.074,3.779-.074,4.109,0,4.492,2.647,4.492,3.5a2.884,2.884,0,0,1-1.084,2.35c-.556.432-1.1.6-1.1.784,0,.119,1.6,2.834,2.935,5.2a.756.756,0,0,0,.693.3c.181,0,.374-.116.558-.116a.269.269,0,0,1,.285.262c0,.586-1.239.993-2,.993-1.476,0-2.079-1.174-2.657-2.269L91.824,43.27a1.541,1.541,0,0,0-1.715-.983c-.991,0-.875.123-.875.775v3.255c0,2.005,1.862,1.234,1.862,1.916,0,.167-.164.276-.593.276-.31,0-.825-.066-1.609-.066-1.018,0-1.951.066-2.887.066-.054,0-.117.005-.185.005C85.624,48.513,85.4,48.478,85.4,48.2Zm3.83-11.037v3.8c0,.473.689.473,1.258.473,2.845,0,2.952-1.051,2.952-2.158,0-1.85-1.04-3.238-2.941-3.238C89.806,36.03,89.234,36.03,89.234,37.158Zm168.6,11.283c-.59,0-1.379.066-2.4.066-.245,0-.36-.1-.36-.2,0-.866,1.429.148,1.429-2.136V37.383c0-1.68-2.133-1.085-2.133-1.831,0-.174.16-.32.416-.32.781,0,2.126.074,5,.074,1.323,0,2.618-.074,4.271-.074a.359.359,0,0,1,.375.345l.072,1.866c.024.244.12.862-.312.862-.89,0,.575-2.193-3.045-2.193-2.265,0-2.35.022-2.35,1.305v2.628c0,.811,0,.94.806.94h1.182c1.617,0,1.682-1.718,2.059-1.718.12,0,.319-.046.342.469l.134,3.325c.024.253.133.926-.312.926-.607,0-.075-2-2.027-2H259.6c-.87,0-.8.237-.8,1.323v2.4c0,1.153-.073,1.834,1.274,1.834,4.657,0,4.389-2.452,5.11-2.452.071,0,.2.053.2.4a2.906,2.906,0,0,1-2.638,3.006C259.9,48.508,258.768,48.442,257.839,48.442Zm-65.714,0c-.808,0-1.615.066-2.121.066a.2.2,0,0,1-.2-.222c0-.649,1.342-.17,1.342-1.955v-9c0-1.7-2.115-1.18-2.115-1.841,0-.314.48-.254.637-.254.736,0,1.466.075,2.115.075.669,0,1.36-.075,2.418-.075.569,0,.661.039.661.254,0,.647-1.394-.033-1.394,1.755v8.947c0,2.305,2.1,1.449,2.1,2.047,0,.207-.172.273-.6.273C194.272,48.508,193.564,48.442,192.125,48.442Zm-5.07,0c-.346,0-.71.066-1.248.066-.368,0-.538-.036-.919-.536l-3.75-5.13c-.225-.315-.342-.52-.469-.52s-.471.307-.873.787c-.277.322-.231.488-.231.925v2.461c0,1.711,1.836,1.112,1.836,1.791,0,.17-.077.223-.531.223-.5,0-1.009-.066-2.079-.066-.9,0-1.881.066-2.455.066-.336,0-.581-.015-.581-.142,0-.942,1.485.276,1.485-2.564V37.65c0-2.272-1.958-1.315-1.958-2.138,0-.2.178-.28.35-.28.387,0,1,.075,2.277.075,1.056,0,2.225-.075,2.608-.075.152,0,.4,0,.4.221,0,.757-1.348-.264-1.348,1.8v4.306c0,.181-.037.436.09.43s.212-.076.463-.329l2.485-2.412c.531-.525,2.344-2.048,2.344-2.891,0-.575-1.142-.34-1.142-.776,0-.335.157-.345.423-.345.192,0,1.478.075,2.059.075.461,0,.944-.075,1.753-.075.142,0,.484-.024.484.32,0,.5-.6-.065-2.416,1.592l-3.3,3.054c-.1.089-.414.379-.414.551s.161.39.455.764l3.575,4.818c1.433,1.993,2.294,1.47,2.294,1.937,0,.131-.017.24-.258.24C188.054,48.508,187.574,48.442,187.055,48.442Zm-44.311,0c-.811,0-1.619.066-2.1.066a.2.2,0,0,1-.2-.222c0-.649,1.341-.17,1.341-1.955v-9c0-1.7-2.116-1.18-2.116-1.841,0-.314.467-.254.642-.254.7,0,1.471.075,2.115.075.668,0,1.342-.075,2.417-.075.569,0,.663.039.663.254,0,.647-1.415-.033-1.415,1.755v8.947c0,2.305,2.127,1.449,2.127,2.047,0,.207-.188.273-.631.273C144.9,48.508,144.208,48.442,142.745,48.442ZM223.9,17.4c0-4.708,2.885-10.92,9.973-10.92,3.4,0,5.566,1.713,6.414,1.713.525,0,.562-.936.951-.936.147,0,.33.031.33.167l.517,5.338c.021.274.143.937-.34.937-.448,0-.647-.6-.849-.96-1.4-2.7-3.876-5.146-7.132-5.146-4.122,0-6.416,3.931-6.416,7.714,0,3.956,2.263,9.518,7.629,9.518,4.353,0,6.261-3.677,6.99-3.677.139,0,.393.138.393.307,0,1.112-2.97,5.368-8.965,5.368C225.165,26.818,223.9,19.629,223.9,17.4Zm-10.065,9.027L200.314,11.814c-.2-.231-.379-.368-.514-.368-.153,0-.217.2-.217.442V21.45c0,5.4,3.583,3.486,3.583,4.8,0,.4-.687.369-1.043.369-1.386,0-2.344-.107-3.329-.107-.887,0-1.679.107-2.417.107-.3,0-.875.135-.875-.337,0-1.125,2.686-.613,2.686-3.489V12.116c0-5.4-3.117-3.559-3.117-4.924a.434.434,0,0,1,.447-.476c.563,0,1.06.129,1.6.129.731,0,1.46-.129,2.95-.129.906,0,.54.2,1.068.738l11.287,12.387c.379.4.718.737.9.737.158,0,.2-.337.2-1.041V10.174c0-2.555-3.413-2.048-3.413-2.982a.43.43,0,0,1,.435-.476c.464,0,1.271.129,3.209.129,1.767,0,2.758-.129,3.016-.129.531,0,.531.294.531.369,0,.842-2.371.167-2.371,3.12V25.978c0,.609,0,.84-.356.84A.829.829,0,0,1,213.833,26.422Zm-52.629,0L147.7,11.814c-.193-.231-.354-.368-.489-.368-.183,0-.237.2-.237.442V21.45c0,5.4,3.6,3.486,3.6,4.8,0,.4-.715.369-1.072.369-1.35,0-2.329-.107-3.335-.107-.881,0-1.64.107-2.418.107-.291,0-.839.135-.839-.337,0-1.125,2.686-.613,2.686-3.489V12.116c0-5.4-3.145-3.559-3.145-4.924a.443.443,0,0,1,.476-.476c.531,0,1.023.129,1.6.129.7,0,1.443-.129,2.958-.129.875,0,.536.2,1.036.738l11.313,12.387c.357.4.686.737.84.737.19,0,.243-.337.243-1.041V10.174c0-2.555-3.42-2.048-3.42-2.982a.425.425,0,0,1,.424-.476c.464,0,1.276.129,3.222.129,1.78,0,2.75-.129,3-.129.535,0,.535.294.535.369,0,.842-2.365.167-2.365,3.12V25.978c0,.609,0,.84-.334.84A.858.858,0,0,1,161.2,26.422Zm-56.516-.563-5.447-12.1c-.084-.186-.192-.494-.31-.494-.194,0-.194.506-.194.706l-.276,7.878c-.169,4.8,2.919,3.166,2.919,4.33,0,.106.114.443-.679.443-1.01,0-1.595-.107-2.893-.107-1.379,0-2.359.107-2.774.107-.434,0-.538-.222-.538-.4,0-1.008,2.3-.308,2.4-3.26l.4-11.282c.174-4.657-2.844-3.323-2.844-4.564a.4.4,0,0,1,.346-.4c.369,0,.786.129,1.694.129.641,0,1.679-.129,2.61-.129.3,0,.585-.033.981.835l6.182,13.486c.115.244.2.444.366.444s.428-.5.452-.6l6.523-13.6a.668.668,0,0,1,.7-.568c.669,0,1.209.129,1.624.129.5,0,1.036-.129,1.826-.129.742,0,.821.129.821.336,0,1.011-2.76-.071-2.647,3.153l.482,12.452c.138,3.685,2.73,2.45,2.73,3.487,0,.476-.374.476-1.356.476-.82,0-1.6-.107-2.406-.107-1.842,0-2.511.107-3.156.107-.6,0-1.3.081-1.3-.428,0-.949,2.2-.015,2.038-3.139l-.433-8.518c-.03-.842-.048-1.273-.224-1.273-.118,0-.446.567-.868,1.5l-5.315,11.092c-.17.362-.284.791-.733.791C104.984,26.65,104.836,26.177,104.688,25.859Zm149.987.654c-.874,0-2.05.107-3.6.107-.365,0-.526-.139-.526-.3,0-1.3,2.127.226,2.127-3.217V9.943c0-2.523-3.171-1.616-3.171-2.75,0-.244.222-.476.611-.476,1.156,0,3.178.129,7.474.129,2,0,3.94-.129,6.412-.129a.55.55,0,0,1,.563.536l.111,2.784c.026.368.177,1.3-.471,1.3-1.322,0,.859-3.286-4.555-3.286-3.4,0-3.5.009-3.5,1.951v3.94c0,1.2,0,1.4,1.2,1.4h1.76c2.419,0,2.5-2.585,3.07-2.585.192,0,.5-.062.527.7l.2,5c.028.368.2,1.377-.479,1.377-.9,0-.114-2.964-3.033-2.964h-2.082c-1.29,0-1.167.321-1.167,1.955v3.594c0,1.744-.123,2.753,1.9,2.753,6.97,0,6.567-3.669,7.637-3.669.124,0,.31.077.31.612,0,2.185-1.657,4.5-3.958,4.5C257.771,26.62,256.083,26.513,254.674,26.513Zm-77.794,0c-.871,0-2.061.107-3.6.107-.356,0-.536-.139-.536-.3,0-1.3,2.139.226,2.139-3.217V9.943c0-2.523-3.172-1.616-3.172-2.75,0-.244.224-.476.613-.476,1.15,0,3.177.129,7.472.129,2,0,3.939-.129,6.416-.129a.543.543,0,0,1,.556.536l.123,2.784c.021.368.156,1.3-.472,1.3-1.331,0,.869-3.286-4.563-3.286-3.4,0-3.533.009-3.533,1.951v3.94c0,1.2,0,1.4,1.208,1.4h1.791c2.416,0,2.5-2.585,3.042-2.585.24,0,.526-.062.538.7l.24,5c.01.368.162,1.377-.508,1.377-.9,0-.094-2.964-3.03-2.964H179.52c-1.295,0-1.2.321-1.2,1.955v3.594c0,1.744-.093,2.753,1.93,2.753,6.971,0,6.582-3.669,7.649-3.669.086,0,.324.077.324.612,0,2.185-1.673,4.5-4,4.5C179.968,26.62,178.289,26.513,176.88,26.513Zm-46.382,0c-1.206,0-2.416.107-3.146.107a.3.3,0,0,1-.309-.337c0-.979,2.014-.256,2.014-2.919V9.869c0-2.552-3.171-1.776-3.171-2.752,0-.472.7-.4.944-.4,1.115,0,2.2.13,3.2.13,1.009,0,2.017-.13,3.624-.13.832,0,.968.063.968.4,0,.946-2.1-.066-2.1,2.615v13.4c0,3.456,3.148,2.174,3.148,3.062,0,.321-.253.428-.918.428C133.729,26.62,132.682,26.513,130.5,26.513Zm-54.192,0c-.87,0-2.057.107-3.6.107-.36,0-.533-.139-.533-.3,0-1.3,2.138.226,2.138-3.217V9.943c0-2.523-3.176-1.616-3.176-2.75,0-.244.217-.476.619-.476,1.144,0,3.184.129,7.477.129,1.992,0,3.933-.129,6.408-.129a.546.546,0,0,1,.559.536l.11,2.784c.04.368.18,1.3-.469,1.3-1.328,0,.871-3.286-4.56-3.286-3.4,0-3.515.009-3.515,1.951v3.94c0,1.2,0,1.4,1.209,1.4h1.775c2.416,0,2.5-2.585,3.058-2.585.2,0,.509-.062.538.7l.2,5c.029.368.194,1.377-.476,1.377-.9,0-.125-2.964-3.046-2.964H78.951c-1.3,0-1.186.321-1.186,1.955v3.594c0,1.744-.11,2.753,1.914,2.753,6.967,0,6.579-3.669,7.648-3.669.1,0,.305.077.305.612,0,2.185-1.648,4.5-3.965,4.5C79.4,26.62,77.717,26.513,76.306,26.513ZM77.54,4.964l3.442-3.555C82.036.306,82.3,0,82.862,0a1.21,1.21,0,0,1,1.117.977c0,.834-.644,1.136-1.244,1.506l-3.9,2.481Z" fill="#685c21" stroke="rgba(0,0,0,0)" stroke-miterlimit="10" stroke-width="1"/>
  </g>
</svg>
