<?xml version="1.0" standalone="no"?>
<!DOCTYPE svg PUBLIC "-//W3C//DTD SVG 20010904//EN"
 "http://www.w3.org/TR/2001/REC-SVG-20010904/DTD/svg10.dtd">
<svg version="1.0" xmlns="http://www.w3.org/2000/svg"
 width="1200.000000pt" height="630.000000pt" viewBox="0 0 1200.000000 630.000000"
 preserveAspectRatio="xMidYMid meet">
<metadata>
Created by potrace 1.16, written by Peter Selinger 2001-2019
</metadata>
<g transform="translate(0.000000,630.000000) scale(0.100000,-0.100000)"
fill="#000000" stroke="none">
<path d="M3175 4618 c-3 -7 -4 -481 -3 -1052 2 -821 6 -1040 16 -1044 9 -3 12
212 12 1052 0 994 -3 1103 -25 1044z"/>
<path d="M3715 4608 c-3 -7 -4 -465 -3 -1018 l3 -1005 205 0 205 0 2 433 c1
238 5 437 8 442 4 6 159 10 395 10 l388 0 25 43 c54 90 168 207 203 207 12 0
14 -90 14 -570 l0 -570 205 0 205 0 0 1020 0 1020 -205 0 -205 0 0 -400 0
-400 -515 0 -515 0 -2 398 -3 397 -203 3 c-156 2 -204 0 -207 -10z"/>
<path d="M5680 4615 c0 -3 25 -41 55 -85 l55 -80 0 -571 c0 -572 3 -644 37
-759 73 -250 272 -449 537 -535 134 -44 177 -50 336 -50 157 0 262 17 329 51
14 8 31 14 37 14 5 0 41 18 78 41 71 43 96 45 96 7 0 -13 7 -34 16 -46 15 -21
20 -22 215 -22 109 0 199 4 199 9 0 4 -13 41 -30 81 l-30 73 0 938 0 939 -260
0 c-143 0 -260 -3 -260 -7 0 -5 25 -44 55 -88 l55 -80 0 -575 c0 -623 -3 -657
-55 -760 -83 -164 -233 -238 -460 -227 -132 6 -193 24 -275 78 -72 48 -129
120 -168 210 l-27 64 -3 693 -3 692 -264 0 c-146 0 -265 -2 -265 -5z"/>
<path d="M7740 4614 c0 -4 16 -24 35 -45 l35 -39 0 -970 0 -970 205 0 205 0 0
649 c0 401 4 652 10 656 10 6 49 -43 160 -201 41 -58 95 -135 120 -170 25 -35
62 -87 82 -116 21 -29 75 -107 122 -173 47 -66 100 -141 118 -168 18 -26 39
-55 46 -65 7 -9 71 -100 143 -202 71 -102 136 -193 143 -203 12 -16 34 -17
262 -15 l249 3 0 1015 0 1015 -202 3 -203 2 0 -730 c0 -838 7 -790 -90 -649
-30 45 -66 96 -80 114 -26 35 -175 250 -200 290 -15 24 -249 363 -330 480 -25
35 -74 107 -110 160 -36 52 -81 118 -100 145 -19 26 -57 80 -83 119 l-48 71
-245 0 c-134 0 -244 -3 -244 -6z"/>
<path d="M9933 4578 c-14 -24 -36 -59 -48 -78 -12 -19 -45 -71 -73 -115 -29
-43 -52 -84 -52 -91 0 -20 91 -25 517 -24 230 0 424 0 431 0 24 0 12 -28 -25
-56 -46 -35 -201 -114 -224 -114 -10 0 -20 -11 -23 -25 -8 -31 -7 -1460 0
-1480 5 -13 38 -15 205 -15 l199 0 0 845 0 845 248 0 c183 0 252 3 264 13 16
12 228 320 228 331 0 3 -364 6 -810 6 l-810 0 -27 -42z"/>
<path d="M414 4581 c-2 -2 -4 -456 -4 -1008 l0 -1003 1120 0 1120 0 -2 1005
-3 1005 -1113 3 c-613 1 -1116 0 -1118 -2z m2168 -103 c22 -18 28 -41 14 -60
-10 -14 -35 -20 -165 -42 -51 -9 -196 -72 -272 -119 -60 -36 -148 -118 -205
-189 -30 -37 -54 -71 -54 -77 0 -5 -4 -11 -8 -13 -14 -6 -81 -151 -98 -213 -9
-33 -21 -103 -25 -155 -29 -307 93 -582 344 -777 57 -44 230 -133 260 -133 23
0 47 -11 47 -21 0 -29 -181 22 -300 84 -163 86 -284 200 -377 355 -18 30 -33
60 -33 68 0 7 -4 15 -9 19 -5 3 -21 40 -35 83 -74 228 -56 476 49 687 66 132
228 306 344 370 20 11 38 23 41 26 9 10 97 48 161 69 125 43 291 62 321 38z
m-1809 -14 c306 -94 541 -312 636 -590 150 -440 -42 -907 -464 -1126 -111 -57
-302 -103 -405 -96 -47 3 -56 7 -69 30 -22 39 -1 76 48 83 432 69 721 335 790
729 50 279 -66 592 -289 784 -84 73 -241 156 -333 178 -15 3 -30 10 -33 15 -9
15 63 10 119 -7z"/>
</g>
</svg>
