<svg id="Layer_1" data-name="Layer 1" xmlns="http://www.w3.org/2000/svg" viewBox="0 0 225 52.96"><defs><style>.cls-1{fill:#df7e33;}.cls-2{fill:#004da7;}</style></defs><path class="cls-1" d="M155.88,47.8H157l2.18,5.73,2.22-5.73h1v6.77h-.81V49.23l-2.13,5.34h-.71l-2.09-5.32v5.32h-.79Z" transform="translate(-12.55 -3.46)"/><path class="cls-1" d="M168,53.2a1.76,1.76,0,0,1-.63,1.12,2.29,2.29,0,0,1-1.46.41,2.17,2.17,0,0,1-1.71-.68,2.78,2.78,0,0,1-.6-1.9,3.47,3.47,0,0,1,.17-1.12A2.13,2.13,0,0,1,165,49.69a2.6,2.6,0,0,1,.93-.17,2.42,2.42,0,0,1,1,.18,1.69,1.69,0,0,1,.67.5A2.23,2.23,0,0,1,168,51a3.23,3.23,0,0,1,.13,1v.42h-3.65a2.48,2.48,0,0,0,.1.68,1.52,1.52,0,0,0,.29.55,1.28,1.28,0,0,0,.46.37,1.39,1.39,0,0,0,.63.13,1.46,1.46,0,0,0,.91-.23,1.14,1.14,0,0,0,.38-.63Zm-.75-1.49a2.56,2.56,0,0,0-.07-.64,1.32,1.32,0,0,0-.24-.49,1.1,1.1,0,0,0-.42-.31,1.46,1.46,0,0,0-.62-.12,1.35,1.35,0,0,0-1,.4,2,2,0,0,0-.43,1.16Z" transform="translate(-12.55 -3.46)"/><path class="cls-1" d="M172.79,53.87a2.34,2.34,0,0,1-.71.63,1.83,1.83,0,0,1-.93.23,2.07,2.07,0,0,1-.94-.2,1.93,1.93,0,0,1-.65-.55,2.3,2.3,0,0,1-.38-.82,4.11,4.11,0,0,1-.12-1,3.75,3.75,0,0,1,.15-1.1,2.33,2.33,0,0,1,.43-.83,1.9,1.9,0,0,1,.68-.52,2.3,2.3,0,0,1,1.71,0,1.93,1.93,0,0,1,.74.6V47.8h.82v6.77h-.8Zm0-1.9a2.7,2.7,0,0,0-.13-.91,1.43,1.43,0,0,0-.42-.56,1.2,1.2,0,0,0-.43-.23,1.37,1.37,0,0,0-.47-.07,1.47,1.47,0,0,0-.56.1,1.18,1.18,0,0,0-.46.34,1.69,1.69,0,0,0-.3.6,3.22,3.22,0,0,0-.11.89A3,3,0,0,0,170,53a1.73,1.73,0,0,0,.31.59,1.18,1.18,0,0,0,.44.31,1.43,1.43,0,0,0,.5.09,1.83,1.83,0,0,0,.49-.06,1.55,1.55,0,0,0,.44-.23,1.44,1.44,0,0,0,.43-.57,2.17,2.17,0,0,0,.15-.86Z" transform="translate(-12.55 -3.46)"/><path class="cls-1" d="M174.87,47.8h.89v1h-.89Zm0,1.87h.83v4.9h-.83Z" transform="translate(-12.55 -3.46)"/><path class="cls-1" d="M181.28,52.91a2.13,2.13,0,0,1-.65,1.33,2.07,2.07,0,0,1-1.47.49,2.57,2.57,0,0,1-1-.18,1.91,1.91,0,0,1-.72-.52,2.39,2.39,0,0,1-.44-.82,4,4,0,0,1-.14-1.07,3.35,3.35,0,0,1,.16-1.08,2.43,2.43,0,0,1,.46-.82,2.06,2.06,0,0,1,.74-.53,2.4,2.4,0,0,1,1-.19,2,2,0,0,1,1.37.43,2,2,0,0,1,.61,1.19l-.82.15a2.83,2.83,0,0,0-.13-.44,1.11,1.11,0,0,0-.22-.34.93.93,0,0,0-.35-.23,1.44,1.44,0,0,0-.49-.08,1.34,1.34,0,0,0-.66.15,1.11,1.11,0,0,0-.45.41,1.61,1.61,0,0,0-.26.61,3.52,3.52,0,0,0-.08.75,3.67,3.67,0,0,0,.08.75,1.94,1.94,0,0,0,.24.61,1.27,1.27,0,0,0,.45.41,1.38,1.38,0,0,0,.67.15,1.18,1.18,0,0,0,.89-.3,1.49,1.49,0,0,0,.37-.83Z" transform="translate(-12.55 -3.46)"/><path class="cls-1" d="M185.3,53.9a2.33,2.33,0,0,1-.67.56,2.08,2.08,0,0,1-1,.23,2.36,2.36,0,0,1-.67-.09,1.39,1.39,0,0,1-.54-.28,1.23,1.23,0,0,1-.34-.46,1.59,1.59,0,0,1-.13-.64,1.36,1.36,0,0,1,.79-1.31,2.78,2.78,0,0,1,.8-.26,6.83,6.83,0,0,1,.92-.09l.84,0v-.19a1.24,1.24,0,0,0-.26-.9,1.15,1.15,0,0,0-.87-.28,1.52,1.52,0,0,0-.86.2.94.94,0,0,0-.36.53l-.75-.08a1.42,1.42,0,0,1,.64-1,2.64,2.64,0,0,1,1.36-.3,2.88,2.88,0,0,1,.9.12,1.53,1.53,0,0,1,.59.37,1.32,1.32,0,0,1,.33.59,2.75,2.75,0,0,1,.1.79v3.18h-.8Zm0-1.78-.78,0a4.49,4.49,0,0,0-.84.09,1.71,1.71,0,0,0-.52.2.77.77,0,0,0-.28.32,1.19,1.19,0,0,0-.08.44.78.78,0,0,0,.22.59,1,1,0,0,0,.74.22,1.69,1.69,0,0,0,1.14-.36,1.25,1.25,0,0,0,.4-1Z" transform="translate(-12.55 -3.46)"/><path class="cls-1" d="M187.38,47.8h.83v6.77h-.83Z" transform="translate(-12.55 -3.46)"/><path class="cls-1" d="M192.44,52.65a1.46,1.46,0,0,0,.56,1,2.34,2.34,0,0,0,1.34.32,2.62,2.62,0,0,0,.75-.1,1.37,1.37,0,0,0,.48-.27.9.9,0,0,0,.25-.39,1.45,1.45,0,0,0,.08-.47,1.58,1.58,0,0,0-.05-.38.75.75,0,0,0-.18-.34,1.42,1.42,0,0,0-.38-.27,3.24,3.24,0,0,0-.63-.18l-.85-.15a4.28,4.28,0,0,1-.89-.23,2.08,2.08,0,0,1-.66-.36,1.36,1.36,0,0,1-.41-.56,2.12,2.12,0,0,1-.14-.8,1.69,1.69,0,0,1,.2-.82,1.75,1.75,0,0,1,.53-.59,2.54,2.54,0,0,1,.78-.35,4.48,4.48,0,0,1,1-.11,3.57,3.57,0,0,1,1.12.15,1.93,1.93,0,0,1,.74.39,1.65,1.65,0,0,1,.43.56,3.32,3.32,0,0,1,.22.65l-.81.17a2.36,2.36,0,0,0-.2-.51,1.12,1.12,0,0,0-.31-.37,1.34,1.34,0,0,0-.48-.23,2.77,2.77,0,0,0-.69-.07,3.4,3.4,0,0,0-.78.08,1.37,1.37,0,0,0-.5.24.71.71,0,0,0-.27.35,1,1,0,0,0-.08.43,1.4,1.4,0,0,0,.06.43.75.75,0,0,0,.21.32.94.94,0,0,0,.38.23,4,4,0,0,0,.59.16l.95.17a3,3,0,0,1,1.54.66,1.93,1.93,0,0,1-.12,2.74,2.4,2.4,0,0,1-.78.41,3.53,3.53,0,0,1-1.09.16,4.46,4.46,0,0,1-1.08-.12,2.45,2.45,0,0,1-.85-.38,1.91,1.91,0,0,1-.58-.65,2.3,2.3,0,0,1-.27-1Z" transform="translate(-12.55 -3.46)"/><path class="cls-1" d="M197.91,49.67h.83v3.09a1.59,1.59,0,0,0,.22,1,.86.86,0,0,0,.72.28,1.6,1.6,0,0,0,1.36-.84,1.28,1.28,0,0,0,.12-.6v-2.9H202v4.9h-.82v-.75a2.58,2.58,0,0,1-.77.69,2,2,0,0,1-.9.22,1.47,1.47,0,0,1-1.21-.45,2,2,0,0,1-.38-1.36Z" transform="translate(-12.55 -3.46)"/><path class="cls-1" d="M203.27,49.67h.82v.7a2.15,2.15,0,0,1,.71-.64,2,2,0,0,1,.94-.21,2,2,0,0,1,.91.19,1.71,1.71,0,0,1,.66.53,2.54,2.54,0,0,1,.39.81,4.17,4.17,0,0,1,.13,1,3.38,3.38,0,0,1-.16,1.09,2.25,2.25,0,0,1-.43.83,1.88,1.88,0,0,1-.69.53,2.17,2.17,0,0,1-1.73,0,1.73,1.73,0,0,1-.72-.59v2.45h-.83Zm.82,2.59a2.4,2.4,0,0,0,.11.81,1.5,1.5,0,0,0,.3.56,1,1,0,0,0,.45.31,1.57,1.57,0,0,0,.58.1,1.47,1.47,0,0,0,.56-.1,1.09,1.09,0,0,0,.46-.34,1.68,1.68,0,0,0,.29-.6,3,3,0,0,0,.11-.9,3.38,3.38,0,0,0-.11-.91,1.75,1.75,0,0,0-.31-.58,1.13,1.13,0,0,0-.44-.32,1.37,1.37,0,0,0-.49-.09,1.64,1.64,0,0,0-.6.11,1.31,1.31,0,0,0-.48.32,1.44,1.44,0,0,0-.32.54,2.49,2.49,0,0,0-.11.76Z" transform="translate(-12.55 -3.46)"/><path class="cls-1" d="M209,49.67h.81v.7a2.15,2.15,0,0,1,.71-.64,2,2,0,0,1,.94-.21,2,2,0,0,1,.92.19,1.68,1.68,0,0,1,.65.53,2.18,2.18,0,0,1,.39.81,3.75,3.75,0,0,1,.13,1,3.68,3.68,0,0,1-.15,1.09,2.27,2.27,0,0,1-.44.83,1.88,1.88,0,0,1-.69.53,2.15,2.15,0,0,1-1.72,0,1.82,1.82,0,0,1-.73-.59v2.45H209Zm.81,2.59a2.69,2.69,0,0,0,.11.81,1.5,1.5,0,0,0,.3.56,1.11,1.11,0,0,0,.46.31,1.67,1.67,0,0,0,1.14,0,1.12,1.12,0,0,0,.45-.34,1.54,1.54,0,0,0,.3-.6,3.35,3.35,0,0,0,.11-.9,3,3,0,0,0-.12-.91,1.59,1.59,0,0,0-.31-.58,1.18,1.18,0,0,0-.43-.32,1.43,1.43,0,0,0-.5-.09,1.73,1.73,0,0,0-.6.11,1.39,1.39,0,0,0-.48.32,1.42,1.42,0,0,0-.31.54,2.2,2.2,0,0,0-.12.76Z" transform="translate(-12.55 -3.46)"/><path class="cls-1" d="M214.64,47.8h.83v6.77h-.83Z" transform="translate(-12.55 -3.46)"/><path class="cls-1" d="M216.75,55.62a1.6,1.6,0,0,0,.53.09.68.68,0,0,0,.47-.15,1.56,1.56,0,0,0,.32-.59l.2-.52-2.07-4.78h1l1.55,3.85,1.41-3.85H221L218.88,55c-.09.22-.18.42-.26.58a2,2,0,0,1-.3.43,1.29,1.29,0,0,1-.38.28,1.47,1.47,0,0,1-.55.09,2.54,2.54,0,0,1-.41,0,2.73,2.73,0,0,1-.4-.11Z" transform="translate(-12.55 -3.46)"/><path class="cls-2" d="M142.63,41V19.77h12.61l.56,3.71h-8.24V41Z" transform="translate(-12.55 -3.46)"/><path class="cls-2" d="M216.12,41V19.77h12.61l.56,3.71h-8.24V41Z" transform="translate(-12.55 -3.46)"/><path class="cls-2" d="M230.68,12.43h-1.32v-.61h3.33v.61h-1.33v3.41h-.68Zm2.59-.61h.84l1.3,3.23,1.31-3.23h.83v4h-.61v-3l-1.25,3h-.57l-1.24-3v3h-.61Z" transform="translate(-12.55 -3.46)"/><path class="cls-2" d="M101.49,11.86l0,10.7A8.85,8.85,0,0,1,104.42,20a8.16,8.16,0,0,1,3.85-.87,9,9,0,0,1,4,.81A7.52,7.52,0,0,1,115,22.23a10.29,10.29,0,0,1,1.65,3.53,17.82,17.82,0,0,1,.55,4.54,15.56,15.56,0,0,1-.66,4.7,10.27,10.27,0,0,1-1.87,3.57,8.38,8.38,0,0,1-2.93,2.26,9,9,0,0,1-3.83.8,8.55,8.55,0,0,1-3.55-.74,7.93,7.93,0,0,1-3-2.44l0,2.56H96.87V11.86Zm0,19.21a10.81,10.81,0,0,0,.51,3.34,5.64,5.64,0,0,0,1.22,2.08,3.88,3.88,0,0,0,1.73,1.06,7.24,7.24,0,0,0,2,.29,5.49,5.49,0,0,0,2.12-.41,4.48,4.48,0,0,0,1.71-1.28,6.24,6.24,0,0,0,1.14-2.31,13,13,0,0,0,.41-3.5,11.92,11.92,0,0,0-.43-3.4,6.93,6.93,0,0,0-1.12-2.28,4.1,4.1,0,0,0-1.65-1.29,5.05,5.05,0,0,0-2-.41,6.28,6.28,0,0,0-2.58.49,4.63,4.63,0,0,0-1.78,1.39,6,6,0,0,0-1,2.14,11.16,11.16,0,0,0-.32,2.75v1.34Z" transform="translate(-12.55 -3.46)"/><path class="cls-2" d="M139.14,34.7a8.08,8.08,0,0,1-2.81,5.11,10,10,0,0,1-6.44,1.82c-3.37,0-5.93-1-7.68-2.92s-2.63-4.68-2.63-8.21a14.27,14.27,0,0,1,.76-4.85,9.91,9.91,0,0,1,2.11-3.56,9,9,0,0,1,3.26-2.2,11.3,11.3,0,0,1,4.18-.75,11,11,0,0,1,4.24.75,7.94,7.94,0,0,1,3,2.12,8.68,8.68,0,0,1,1.75,3.26,14.58,14.58,0,0,1,.57,4.21v2H124.23a7.84,7.84,0,0,0,1.46,4.69,5,5,0,0,0,4.2,1.79,5.31,5.31,0,0,0,3.3-.86,4.19,4.19,0,0,0,1.47-2.44Zm-4.24-6.4a6.35,6.35,0,0,0-1.22-4.11,4.74,4.74,0,0,0-3.91-1.51,4.92,4.92,0,0,0-3.91,1.53,6.77,6.77,0,0,0-1.55,4.09Z" transform="translate(-12.55 -3.46)"/><path class="cls-2" d="M92.65,19.79V41H88V19.79Z" transform="translate(-12.55 -3.46)"/><path class="cls-2" d="M73,11.86V36.72H84.54L83.9,41H68.1V11.86Z" transform="translate(-12.55 -3.46)"/><path class="cls-2" d="M171,38.2a10,10,0,0,1-2.89,2.37,8.64,8.64,0,0,1-4.16.93,10.1,10.1,0,0,1-2.81-.38A6.39,6.39,0,0,1,158.87,40a5.33,5.33,0,0,1-1.51-2,6.71,6.71,0,0,1-.55-2.83,6,6,0,0,1,1-3.57,6.79,6.79,0,0,1,2.54-2.14,12.57,12.57,0,0,1,3.53-1.08,34.48,34.48,0,0,1,3.91-.38l3.14-.17v-.89a4,4,0,0,0-1.16-3.32,4.79,4.79,0,0,0-3-.92,5.58,5.58,0,0,0-3.2.73,3.44,3.44,0,0,0-1.36,2.12l-4.24-.45a6.45,6.45,0,0,1,2.81-4.52,13.92,13.92,0,0,1,10.33-.77,6.57,6.57,0,0,1,2.63,1.79A6.49,6.49,0,0,1,175,24.29a14.26,14.26,0,0,1,.39,3.44V41H171Zm-3.06-7.13a18.25,18.25,0,0,0-3.36.45,5.94,5.94,0,0,0-2,.84,2.42,2.42,0,0,0-.91,1.18,4.53,4.53,0,0,0-.23,1.44,2.73,2.73,0,0,0,.88,2.16,3.78,3.78,0,0,0,2.59.78,6,6,0,0,0,4.52-1.55,5.84,5.84,0,0,0,1.47-4.2V31Z" transform="translate(-12.55 -3.46)"/><path class="cls-2" d="M177.43,23.49V19.78h3.36V13.89h4.6l0,5.88h4.68l.52,3.72h-5.23V34.54a3.44,3.44,0,0,0,.68,2.37,2.52,2.52,0,0,0,2,.73,11.45,11.45,0,0,0,1.33-.08,6.76,6.76,0,0,0,1.24-.29l.69,3.47a13.46,13.46,0,0,1-4.24.65c-2.33,0-4-.61-4.89-1.81a8.94,8.94,0,0,1-1.38-5.44V23.49Z" transform="translate(-12.55 -3.46)"/><path class="cls-2" d="M202.57,41.63q-5,0-7.7-2.94t-2.73-8.31a14.23,14.23,0,0,1,.71-4.6,10,10,0,0,1,2.06-3.55,9.21,9.21,0,0,1,3.3-2.28,11.56,11.56,0,0,1,4.44-.81,11.22,11.22,0,0,1,4.48.83,9.16,9.16,0,0,1,3.28,2.3,9.64,9.64,0,0,1,2,3.53,14.35,14.35,0,0,1,.67,4.5,14.18,14.18,0,0,1-.77,4.87,9.9,9.9,0,0,1-2.18,3.54,9.14,9.14,0,0,1-3.32,2.18A11.76,11.76,0,0,1,202.57,41.63Zm0-3.75a4.83,4.83,0,0,0,4.3-2,9.71,9.71,0,0,0,1.36-5.52,9.55,9.55,0,0,0-1.36-5.46,5.6,5.6,0,0,0-8.6,0A9.59,9.59,0,0,0,197,30.34a10,10,0,0,0,1.32,5.5A4.79,4.79,0,0,0,202.61,37.88Z" transform="translate(-12.55 -3.46)"/><rect class="cls-2" x="75.36" y="8.41" width="4.94" height="4.6"/><path class="cls-1" d="M58.44,24.76l-21.3,0V12.21l4.64-.68v8.26l16.66,0Z" transform="translate(-12.55 -3.46)"/><path class="cls-1" d="M37.14,49.31l0-21.3H49.69l.68,4.64H42.1l0,16.66Z" transform="translate(-12.55 -3.46)"/><path class="cls-1" d="M12.55,28l21.3,0V40.56l-4.64.68V33L12.55,33Z" transform="translate(-12.55 -3.46)"/><path class="cls-1" d="M33.85,3.46l0,21.3H21.3l-.68-4.64h8.27l0-16.66Z" transform="translate(-12.55 -3.46)"/></svg>