<?xml version="1.0" standalone="no"?>
<!DOCTYPE svg PUBLIC "-//W3C//DTD SVG 20010904//EN"
 "http://www.w3.org/TR/2001/REC-SVG-20010904/DTD/svg10.dtd">
<svg version="1.0" xmlns="http://www.w3.org/2000/svg"
 width="400.000000pt" height="300.000000pt" viewBox="0 0 400.000000 300.000000"
 preserveAspectRatio="xMidYMid meet">
<metadata>
Created by potrace 1.16, written by Peter Selinger 2001-2019
</metadata>
<g transform="translate(0.000000,300.000000) scale(0.100000,-0.100000)"
fill="#000000" stroke="none">
<path d="M937 1663 c-4 -3 -7 -91 -7 -195 l0 -188 30 0 29 0 3 137 3 137 75
-115 c42 -63 81 -114 89 -114 7 0 45 50 85 112 39 62 74 112 79 113 4 0 7 -61
7 -135 l0 -135 24 0 c13 0 26 4 28 10 2 5 2 93 0 196 -3 184 -3 185 -25 182
-15 -2 -45 -40 -104 -133 -46 -71 -87 -131 -92 -133 -5 -2 -43 52 -86 118 -43
67 -84 128 -92 136 -15 15 -35 18 -46 7z"/>
<path d="M1604 1578 c-26 -51 -68 -139 -95 -195 l-48 -103 29 0 c25 0 32 7 49
45 l20 45 116 0 115 0 22 -45 c18 -37 27 -45 50 -45 15 0 28 3 28 8 -1 4 -42
90 -93 192 -83 166 -95 185 -119 188 -25 3 -31 -4 -74 -90z m116 -58 c22 -44
40 -84 40 -90 0 -6 -34 -10 -85 -10 -47 0 -85 2 -85 4 0 9 80 176 85 176 3 0
23 -36 45 -80z"/>
<path d="M1970 1663 c0 -5 32 -48 70 -98 40 -51 66 -94 61 -100 -4 -5 -34 -44
-66 -85 -32 -41 -63 -81 -68 -87 -7 -10 -1 -13 24 -13 30 1 40 9 89 75 30 41
58 75 62 75 4 0 34 -34 68 -75 51 -63 66 -75 91 -75 36 0 36 -1 -45 100 -33
41 -64 80 -69 87 -6 8 14 40 62 100 39 48 71 91 71 95 0 5 -11 8 -24 8 -19 0
-40 -19 -86 -75 -34 -41 -63 -75 -64 -75 -2 0 -31 34 -65 75 -46 57 -67 75
-86 75 -14 0 -25 -3 -25 -7z"/>
<path d="M2407 1663 c-3 -5 36 -92 86 -195 89 -185 91 -188 122 -188 31 0 32
3 118 183 48 101 87 189 87 196 0 7 -9 11 -22 9 -19 -2 -38 -34 -101 -161 -70
-140 -80 -156 -91 -140 -7 10 -41 79 -76 153 -34 74 -67 138 -74 142 -14 10
-44 10 -49 1z"/>
<path d="M2915 1480 c-52 -104 -95 -192 -95 -195 0 -3 13 -5 28 -5 23 0 32 8
50 45 l22 45 115 0 115 0 22 -45 c18 -37 27 -45 50 -45 15 0 28 2 28 5 0 3
-43 91 -95 195 -85 170 -98 190 -120 190 -22 0 -35 -20 -120 -190z m159 53
c59 -119 61 -113 -39 -113 -85 0 -86 0 -79 23 9 30 73 157 79 157 3 0 20 -30
39 -67z"/>
<path d="M3337 1664 c-4 -4 -7 -92 -7 -196 l0 -188 145 0 c138 0 145 1 145 20
0 19 -7 20 -115 20 l-115 0 -2 173 c-3 164 -4 172 -23 175 -12 2 -24 0 -28 -4z"/>
</g>
</svg>
