<svg xmlns="http://www.w3.org/2000/svg" xmlns:xlink="http://www.w3.org/1999/xlink" id="Layer_1" x="0px" y="0px" viewBox="0 0 500 123.2" style="enable-background:new 0 0 500 123.2;" xml:space="preserve"><style type="text/css">	.st0{fill:#1C3D5C;}	.st1{fill:#768692;}	.st2{fill:#00A9E0;}</style><g>	<g>		<path class="st0" d="M191.4,33c0,7.7-6,11.5-14.9,11.5h-13.2v9.9h-9.6V21.5h22.8C185.4,21.5,191.4,25.5,191.4,33z M181.7,33.2   c0-3.3-2.4-4.4-6-4.4h-12.4v8.8h12.4C179.2,37.6,181.7,36.5,181.7,33.2z"></path>		<path class="st0" d="M226.2,54.4L217.5,44h-9.7v10.4h-9.5V21.5h23.1c8.4,0,14.9,3.7,14.9,11.2c0,5.5-3.5,9-8.6,10.5l9.7,11.2   H226.2z M220.7,37.1c3.4,0,5.9-0.9,5.9-4.1s-2.5-4.1-5.9-4.1h-12.9v8.3H220.7z"></path>		<path class="st0" d="M279.4,47.1v7.3h-35.1V21.5h34.6v7.3h-25.1v5.4h20.7v7h-20.7v5.8H279.4z"></path>		<path class="st0" d="M315.6,42.7l8.2,4.2c-3.1,4.8-9.7,8.6-18.5,8.6c-12.4,0-20.8-6.4-20.8-17.5s8.4-17.5,21.1-17.5   c8.5,0,15.1,3.9,18,8.5l-8.3,4.2c-2.2-3.4-5.5-5-9.9-5c-6.8,0-11.3,3.4-11.3,9.7c0,6.3,4.5,9.7,11.3,9.7   C309.9,47.7,313.3,46.2,315.6,42.7z"></path>		<path class="st0" d="M330.5,54.4V21.5h9.6v32.9H330.5z"></path>		<path class="st0" d="M385.9,44.1c0,6.8-6.2,11.4-18.2,11.4c-8.5,0-15.5-2.3-20.7-6.4l5-5.9c3.9,3.3,9.3,5.1,15.9,5.1   c5.6,0,8.5-1,8.5-3.2c0-2.1-2.6-2.8-9.4-3.4c-9.8-0.8-18.6-3-18.6-10.3c0-7,7.6-10.9,18-10.9c7,0,13.5,1.7,18,4.9l-4.8,6   c-3.7-2.6-8.1-3.6-13.2-3.7c-3.9,0-8.5,0.6-8.5,3c0,2.2,3.8,2.5,9.7,3C378.3,34.4,385.9,36.6,385.9,44.1z"></path>		<path class="st0" d="M393.2,54.4V21.5h9.6v32.9H393.2z"></path>		<path class="st0" d="M410.5,38c0-11.1,8.4-17.5,21.4-17.5s21.5,6.4,21.5,17.5s-8.5,17.5-21.5,17.5S410.5,49.1,410.5,38z M443.6,38   c0-6.2-4.5-9.7-11.7-9.7c-7.2,0-11.7,3.5-11.7,9.7s4.5,9.7,11.7,9.7C439.2,47.7,443.6,44.2,443.6,38z"></path>		<path class="st0" d="M500,21.5v32.9h-8.4l-21.2-21.6v21.6h-9.2V21.5h10.1l19.5,20.1V21.5H500z"></path>	</g>	<g>		<path class="st1" d="M170.5,100.9c4.9,0,7.9-1.2,10.8-3.8l3.3,3.5c-3.6,3.2-8.2,4.7-14.3,4.7c-10.5,0-16.6-5.5-16.6-14.1   c0-8.7,6.1-14.2,16.2-14.2c9.5,0,15.6,4.9,15.6,14.2c0,0.6,0,1-0.1,1.2h-26.1C159.7,98.1,163.9,100.9,170.5,100.9z M159.4,88.4   l20.6,0c-1.2-4.8-4.9-7-10.1-7C164.4,81.4,160.5,83.8,159.4,88.4z"></path>		<path class="st1" d="M224.8,94.3l5.3,2.6c-3.2,4.9-9.3,8.4-17.8,8.4c-12.6,0-20.5-6.8-20.5-17.8c0-11,7.9-17.8,20.8-17.8   c8.3,0,14.4,3.6,17.5,8.4l-5.4,2.7c-2.5-4.1-6.8-6-12.3-6c-8.9,0-14.8,4.3-14.8,12.7c0,8.4,5.9,12.7,14.8,12.7   C218,100.2,222.3,98.5,224.8,94.3z"></path>		<path class="st1" d="M235.7,87.5c0-11.1,8-17.8,20.9-17.8c12.9,0,20.9,6.7,20.9,17.8c0,11.1-8,17.8-20.9,17.8   C243.7,105.3,235.7,98.6,235.7,87.5z M271.6,87.5c0-8.2-5.9-12.7-15-12.7c-9.1,0-15,4.6-15,12.7c0,8.2,5.9,12.7,15,12.7   C265.7,100.2,271.6,95.7,271.6,87.5z"></path>		<path class="st1" d="M323.7,70.7v33.6h-5.1l-26.3-26.5v26.5h-5.6V70.7h6.1l25.2,25.5V70.7H323.7z"></path>		<path class="st1" d="M367.5,75.7h-15.3v28.6h-5.8V75.7h-15.2v-5h36.3V75.7z"></path>		<path class="st1" d="M405.4,104.3l-10.4-12.2h-14.2v12.2H375V70.7h22.9c7.8,0,13.6,3.7,13.6,10.7c0,5.8-4,9.4-9.9,10.4l10.9,12.5   H405.4z M397.5,87.2c4.8,0,8.1-1.5,8.1-5.7c0-4.2-3.3-5.7-8.1-5.7h-16.8v11.4H397.5z"></path>		<path class="st1" d="M418.4,87.5c0-11.1,8-17.8,20.9-17.8c12.9,0,20.9,6.7,20.9,17.8c0,11.1-8,17.8-20.9,17.8   C426.3,105.3,418.4,98.6,418.4,87.5z M454.3,87.5c0-8.2-5.9-12.7-15-12.7c-9.1,0-15,4.6-15,12.7c0,8.2,5.9,12.7,15,12.7   C448.4,100.2,454.3,95.7,454.3,87.5z"></path>		<path class="st1" d="M500,99.2v5.1h-30.6V70.7h5.8v28.5H500z"></path>	</g>	<g id="Group_3_00000136393711936163192590000004590424351600633480_" transform="translate(0)">		<g>			<g id="Group_3-2_00000132798459938312264260000002002627903104175267_">				<path id="Fill_1_00000000922212319885886210000014939404225890772377_" class="st2" d="M120.7,123.2c-11.2,0-22.3-1.8-33-5.2     c-17.9-5.7-34.2-15.3-48-28l0.2-0.4c0.5-1.1,1.6-3.9,1.8-4.1c20.8,19.8,48,31.6,76.7,33.1c-0.7-12.1-3.6-24.1-8.4-35.2     c1.1-1.5,2.2-2.9,3.1-4.3c6.4,13.3,9.8,27.7,10,42.5c0,0.7,0,1.3,0,1.7C122.2,123.2,121.5,123.2,120.7,123.2z M0,123.1L0,123.1     c0-0.2,0-0.5,0-0.9C-0.1,112,1.2,101.8,3.9,92c5.5-19.6,15.5-37.6,29.2-52.6l1.1,0.5c1.3,0.6,3.2,1.4,3.4,1.5     c-19.8,20.9-31.5,48.2-33,77c0.2,0,20.1-1.2,35.4-8.6c1.4,1.1,2.8,2.1,4.3,3.1c-13.4,6.6-28.2,10.1-43.1,10.2h0L0,123.1L0,123.1     z M89.9,83.9L89.9,83.9c-0.4-0.2-1-0.5-1.7-0.7c-1-0.4-2.2-0.9-2.8-1.3c19.8-20.9,31.6-48.3,33.1-77.1     c-12.2,0.8-24.2,3.7-35.4,8.6c-1.4-1.1-2.8-2.1-4.3-3.2c13.2-6.5,27.8-10,42.5-10.2c0.7,0,1.3,0,1.7,0c0,0.2,0,0.5,0,0.9     c0.1,10.2-1.2,20.4-3.9,30.2C113.7,50.8,103.7,68.9,89.9,83.9z M10.1,44.2L10.1,44.2C3.7,30.9,0.3,16.4,0.1,1.7     c0-0.7,0-1.3,0-1.7c0.7,0,1.4,0,2,0c11.3,0,22.5,1.8,33.2,5.1c18,5.7,34.4,15.3,48.2,28.1c-0.1,0.3-0.4,0.9-0.7,1.6     c-0.5,1.2-1.1,2.5-1.3,2.9C60.7,18,33.5,6.2,4.8,4.6c0.7,12.1,3.6,24.1,8.4,35.2C12.1,41.4,11.1,42.8,10.1,44.2L10.1,44.2z"></path>			</g>		</g>	</g>	<path id="Fill_4_00000105398779935689578810000007486204192615197313_" class="st0" d="M95.7,45.3c-0.8-0.9-1.6-1.8-2.5-2.8  c-2.5,5.6-5.4,10.9-8.9,16c-10.5-13.2-23.9-23.8-39.2-31c-0.9,0.8-1.8,1.6-2.7,2.5c5.5,2.5,10.9,5.5,15.9,9  C45.2,49.6,34.7,63,27.6,78.2c0.8,0.9,1.6,1.9,2.5,2.8c2.5-5.5,5.4-10.8,8.8-15.7c10.5,13,23.7,23.5,38.7,30.8  c0.9-0.8,1.8-1.6,2.8-2.5C75,91.1,69.9,88.1,65,84.7C78.1,74.1,88.6,60.6,95.7,45.3"></path></g></svg>