<svg xmlns="http://www.w3.org/2000/svg" xmlns:xlink="http://www.w3.org/1999/xlink" id="Layer_1" x="0px" y="0px" viewBox="0 0 500 46.4" style="enable-background:new 0 0 500 46.4;" xml:space="preserve"><style type="text/css">	.st0{fill:#1C3D5C;}	.st1{fill:#768692;}	.st2{fill:#00A9E0;}</style><g>	<g>		<path class="st0" d="M81.8,20.1c0,4.9-3.8,7.3-9.5,7.3H64v6.3h-6.1V12.8h14.5C78.1,12.8,81.8,15.3,81.8,20.1z M75.7,20.2   c0-2.1-1.5-2.8-3.8-2.8H64v5.6h7.9C74.1,22.9,75.7,22.3,75.7,20.2z"></path>		<path class="st0" d="M103.9,33.6L98.4,27h-6.1v6.6h-6V12.8h14.6c5.3,0,9.5,2.4,9.5,7.1c0,3.5-2.2,5.7-5.5,6.6l6.1,7.1H103.9z    M100.4,22.6c2.2,0,3.8-0.6,3.8-2.6s-1.6-2.6-3.8-2.6h-8.2v5.2H100.4z"></path>		<path class="st0" d="M137.7,29v4.6h-22.2V12.8h21.9v4.6h-15.9v3.4h13.1v4.4h-13.1V29H137.7z"></path>		<path class="st0" d="M160.6,26.2l5.2,2.7c-1.9,3.1-6.1,5.4-11.8,5.4c-7.9,0-13.2-4.1-13.2-11.1s5.3-11.1,13.4-11.1   c5.4,0,9.6,2.4,11.4,5.4l-5.2,2.7c-1.4-2.1-3.5-3.2-6.3-3.2c-4.3,0-7.1,2.2-7.1,6.2c0,4,2.9,6.2,7.1,6.2   C157,29.3,159.1,28.4,160.6,26.2z"></path>		<path class="st0" d="M170,33.6V12.8h6.1v20.8H170z"></path>		<path class="st0" d="M205.1,27.1c0,4.3-4,7.2-11.5,7.2c-5.4,0-9.9-1.5-13.1-4.1l3.2-3.8c2.5,2.1,5.9,3.2,10.1,3.2   c3.6,0,5.4-0.7,5.4-2c0-1.3-1.7-1.8-6-2.1c-6.2-0.5-11.8-1.9-11.8-6.5c0-4.5,4.8-6.9,11.4-6.9c4.5,0,8.6,1.1,11.4,3.1l-3.1,3.8   c-2.3-1.6-5.1-2.3-8.4-2.3c-2.4,0-5.4,0.4-5.4,1.9c0,1.4,2.4,1.6,6.1,1.9C200.3,20.9,205.1,22.3,205.1,27.1z"></path>		<path class="st0" d="M209.8,33.6V12.8h6.1v20.8H209.8z"></path>		<path class="st0" d="M220.7,23.2c0-7.1,5.3-11.1,13.6-11.1c8.2,0,13.6,4,13.6,11.1s-5.4,11.1-13.6,11.1   C226.1,34.3,220.7,30.2,220.7,23.2z M241.7,23.2c0-3.9-2.8-6.2-7.4-6.2c-4.6,0-7.4,2.2-7.4,6.2s2.8,6.2,7.4,6.2   C238.9,29.3,241.7,27.1,241.7,23.2z"></path>		<path class="st0" d="M277.5,12.8v20.8h-5.3l-13.5-13.7v13.7h-5.9V12.8h6.4l12.4,12.7V12.8H277.5z"></path>	</g>	<g>		<path class="st1" d="M294.7,31.5c3,0,4.9-0.8,6.7-2.4l2,2.2c-2.2,2-5.1,2.9-8.9,2.9c-6.6,0-10.3-3.4-10.3-8.8   c0-5.4,3.8-8.9,10.1-8.9c5.9,0,9.7,3.1,9.7,8.8c0,0.4,0,0.6-0.1,0.8h-16.3C288,29.8,290.6,31.5,294.7,31.5z M287.8,23.8l12.8,0   c-0.7-3-3.1-4.3-6.3-4.3C290.9,19.4,288.5,20.8,287.8,23.8z"></path>		<path class="st1" d="M328.6,27.4l3.3,1.6c-2,3.1-5.8,5.2-11.1,5.2c-7.8,0-12.8-4.2-12.8-11.1c0-6.9,4.9-11.1,12.9-11.1   c5.1,0,9,2.2,10.9,5.2l-3.4,1.7c-1.6-2.6-4.2-3.7-7.6-3.7c-5.5,0-9.2,2.7-9.2,7.9c0,5.2,3.7,7.9,9.2,7.9   C324.3,31.1,327,30,328.6,27.4z"></path>		<path class="st1" d="M335.3,23.2c0-6.9,5-11.1,13-11.1c8.1,0,13,4.2,13,11.1c0,6.9-5,11.1-13,11.1   C340.3,34.3,335.3,30.1,335.3,23.2z M357.7,23.2c0-5.1-3.7-7.9-9.3-7.9c-5.7,0-9.4,2.8-9.4,7.9c0,5.1,3.7,7.9,9.4,7.9   C354,31.1,357.7,28.3,357.7,23.2z"></path>		<path class="st1" d="M390.2,12.7v21H387l-16.4-16.5v16.5h-3.5v-21h3.8l15.7,15.9V12.7H390.2z"></path>		<path class="st1" d="M417.4,15.8h-9.5v17.8h-3.6V15.8h-9.5v-3.1h22.6V15.8z"></path>		<path class="st1" d="M441,33.7l-6.5-7.6h-8.8v7.6h-3.6v-21h14.2c4.9,0,8.5,2.3,8.5,6.7c0,3.6-2.5,5.8-6.2,6.5l6.8,7.8H441z    M436.1,23c3,0,5-1,5-3.6c0-2.6-2-3.6-5-3.6h-10.4V23H436.1z"></path>		<path class="st1" d="M449.1,23.2c0-6.9,5-11.1,13-11.1c8.1,0,13,4.2,13,11.1c0,6.9-5,11.1-13,11.1   C454.1,34.3,449.1,30.1,449.1,23.2z M471.5,23.2c0-5.1-3.7-7.9-9.3-7.9c-5.7,0-9.4,2.8-9.4,7.9c0,5.1,3.7,7.9,9.4,7.9   C467.8,31.1,471.5,28.3,471.5,23.2z"></path>		<path class="st1" d="M500,30.5v3.2h-19v-21h3.6v17.8H500z"></path>	</g>	<g id="Group_3_00000008143759614126879650000000988863787527913109_" transform="translate(0)">		<g>			<g id="Group_3-2_00000140729752622241818170000005597414322670786707_">				<path id="Fill_1_00000062901479992541205220000004547795547893630131_" class="st2" d="M45.4,46.4c-4.2,0-8.4-0.7-12.4-2     c-6.7-2.2-12.9-5.8-18.1-10.6l0.1-0.2c0.2-0.4,0.6-1.5,0.7-1.6c7.8,7.5,18.1,11.9,28.9,12.5c-0.3-4.6-1.3-9.1-3.2-13.3     c0.4-0.6,0.8-1.1,1.2-1.6c2.4,5,3.7,10.4,3.8,16c0,0.3,0,0.5,0,0.6C46,46.4,45.7,46.4,45.4,46.4z M0,46.3L0,46.3     c0-0.1,0-0.2,0-0.4C0,42.1,0.4,38.3,1.5,34.6c2.1-7.4,5.8-14.2,11-19.8l0.4,0.2c0.5,0.2,1.2,0.5,1.3,0.6     c-7.4,7.9-11.8,18.1-12.4,29c0.1,0,7.6-0.5,13.3-3.2c0.5,0.4,1.1,0.8,1.6,1.2c-5,2.5-10.6,3.8-16.2,3.8h0L0,46.3L0,46.3z      M33.8,31.6L33.8,31.6c-0.2-0.1-0.4-0.2-0.6-0.3c-0.4-0.2-0.8-0.4-1.1-0.5c7.5-7.9,11.9-18.2,12.5-29C40,2.1,35.5,3.2,31.3,5.1     c-0.5-0.4-1.1-0.8-1.6-1.2c5-2.5,10.5-3.8,16-3.8c0.3,0,0.5,0,0.7,0c0,0.1,0,0.2,0,0.4c0.1,3.8-0.4,7.7-1.5,11.4     C42.8,19.1,39,25.9,33.8,31.6z M3.8,16.6L3.8,16.6c-2.4-5-3.7-10.4-3.8-16C0,0.4,0,0.2,0,0c0.3,0,0.5,0,0.8,0     C5,0,9.2,0.7,13.3,1.9c6.8,2.1,13,5.7,18.1,10.6c0,0.1-0.1,0.3-0.3,0.6c-0.2,0.4-0.4,1-0.5,1.1C22.9,6.8,12.6,2.3,1.8,1.7     C2.1,6.3,3.2,10.8,5,15C4.6,15.6,4.2,16.1,3.8,16.6L3.8,16.6z"></path>			</g>		</g>	</g>	<path id="Fill_4_00000163062756960699804920000010260737476381259679_" class="st0" d="M36,17.1c-0.3-0.3-0.6-0.7-1-1  c-0.9,2.1-2,4.1-3.3,6c-4-5-9-9-14.7-11.7c-0.3,0.3-0.7,0.6-1,1c2.1,0.9,4.1,2.1,6,3.4c-4.9,4-8.9,9-11.5,14.7  c0.3,0.3,0.6,0.7,0.9,1.1c0.9-2.1,2-4.1,3.3-5.9c3.9,4.9,8.9,8.9,14.6,11.6c0.3-0.3,0.7-0.6,1-0.9c-2-0.9-4-2.1-5.8-3.3  C29.4,27.9,33.3,22.8,36,17.1"></path></g></svg>