<?xml version="1.0" encoding="UTF-8"?>
<svg width="285px" height="34px" viewBox="0 0 285 34" version="1.1" xmlns="http://www.w3.org/2000/svg" xmlns:xlink="http://www.w3.org/1999/xlink">
    <!-- Generator: Sketch 61 (89581) - https://sketch.com -->
    <title>qe-logo</title>
    <desc>Created with Sketch.</desc>
    <g id="Symbols" stroke="none" stroke-width="1" fill="none" fill-rule="evenodd">
        <g id="Nav" transform="translate(-136.000000, -21.000000)">
            <g id="qe-logo" transform="translate(136.000000, 21.000000)">
                <path d="M3.246264,3.2581656 C3.862548,3.2581656 4.429584,3.3963336 4.948056,3.6726696 C5.467212,3.9490056 5.941224,4.3669296 6.370776,4.9271256 L6.456276,3.5495496 L11.28258,3.5495496 L11.28258,21.9812976 L6.370776,21.9812976 L6.370776,18.3793536 C5.89266,19.0784016 5.452848,19.5182136 5.05134,19.7015256 C4.650516,19.8834696 4.153932,19.9751256 3.562272,19.9751256 C2.703168,19.9751256 1.991808,19.7719776 1.428192,19.3670496 C0.86526,18.9621216 0.486324,18.4368096 0.292068,17.7931656 C0.097128,17.1481536 -6.79545309e-12,16.1618256 -6.79545309e-12,14.8328136 L-6.79545309e-12,7.7198976 C-6.79545309e-12,6.6261816 0.073188,5.8094856 0.21888,5.2704936 C0.364572,4.7315016 0.715464,4.2615936 1.270188,3.8600856 C1.825596,3.4585776 2.484288,3.2581656 3.246264,3.2581656 Z M139.097146,3.258576 C140.474722,3.258576 141.61153,3.51918 142.506886,4.04244 C143.402926,4.565016 144.030838,5.257908 144.39199,6.121116 C144.752458,6.984324 144.93235,8.198424 144.93235,9.762732 L144.93235,11.902284 L138.57457,11.902284 L138.57457,15.391368 C138.57457,16.121196 138.626554,16.591104 138.732574,16.801776 C138.83791,17.013132 139.040374,17.118468 139.339966,17.118468 C139.712746,17.118468 139.962406,16.978248 140.088262,16.699176 C140.213434,16.418736 140.276362,15.877692 140.276362,15.076044 L140.276362,12.94812 L144.93235,12.94812 L144.93235,14.139648 C144.93235,15.136236 144.869422,15.902316 144.74425,16.437204 C144.618394,16.972092 144.324958,17.543916 143.863258,18.151992 C143.400874,18.759384 142.81537,19.214928 142.106062,19.519308 C141.396754,19.823004 140.507554,19.975536 139.437778,19.975536 C138.399466,19.975536 137.484274,19.825056 136.689466,19.52478 C135.895342,19.225872 135.27769,18.814104 134.835826,18.291528 C134.393962,17.768268 134.088214,17.193024 133.917898,16.564428 C133.747582,15.936516 133.662766,15.022692 133.662766,13.822956 L133.662766,9.118404 C133.662766,7.707996 133.852918,6.595812 134.233906,5.781168 C134.614894,4.966524 135.238702,4.342716 136.106014,3.908376 C136.973326,3.475404 137.970598,3.258576 139.097146,3.258576 Z M17.8843428,3.5498916 L17.8843428,14.5280916 C17.8843428,15.7852836 17.9226468,16.5308436 17.9999388,16.7654556 C18.0765468,17.0007516 18.2851668,17.1183996 18.6257988,17.1183996 C18.9903708,17.1183996 19.2071988,16.9966476 19.2762828,16.7538276 C19.3407612,16.5265572 19.3748518,15.8303607 19.3791106,14.6641259 L19.3795668,3.5498916 L24.2913708,3.5498916 L24.2913708,19.6833996 L19.2947508,19.6833996 L19.3795668,18.3427596 C19.0389348,18.8872236 18.6196428,19.2955716 18.1210068,19.5671196 C17.6223708,19.8386676 17.0491788,19.9754676 16.4007468,19.9754676 C15.6633948,19.9754676 15.0512148,19.8455076 14.5648908,19.5855876 C14.0785668,19.3263516 13.7201508,18.9822996 13.4896428,18.5527476 C13.2584508,18.1231956 13.1141268,17.6751756 13.0573548,17.2093716 C13.0046379,16.7762042 12.9766917,15.9472974 12.9729683,14.7210083 L12.9725388,3.5498916 L17.8843428,3.5498916 Z M68.5943928,3.258576 C69.9719688,3.258576 71.1087768,3.51918 72.0048168,4.04244 C72.9001728,4.565016 73.5280848,5.257908 73.8892368,6.121116 C74.2497048,6.984324 74.4302808,8.198424 74.4302808,9.762732 L74.4302808,11.902284 L68.0718168,11.902284 L68.0718168,15.391368 C68.0718168,16.121196 68.1238008,16.591104 68.2298208,16.801776 C68.3351568,17.013132 68.5376208,17.118468 68.8372128,17.118468 C69.2099928,17.118468 69.4596528,16.978248 69.5855088,16.699176 C69.7106808,16.418736 69.7736088,15.877692 69.7736088,15.076044 L69.7736088,12.94812 L74.4302808,12.94812 L74.4302808,14.139648 C74.4302808,15.136236 74.3673528,15.902316 74.2414968,16.437204 C74.1156408,16.972092 73.8222048,17.543916 73.3605048,18.151992 C72.8981208,18.759384 72.3126168,19.214928 71.6033088,19.519308 C70.8940008,19.823004 70.0048008,19.975536 68.9350248,19.975536 C67.8967128,19.975536 66.9815208,19.825056 66.1867128,19.52478 C65.3925888,19.225872 64.7749368,18.814104 64.3330728,18.291528 C63.8912088,17.768268 63.5854608,17.193024 63.4151448,16.564428 C63.2448288,15.936516 63.1600128,15.022692 63.1600128,13.822956 L63.1600128,9.118404 C63.1600128,7.707996 63.3501648,6.595812 63.7311528,5.781168 C64.1121408,4.966524 64.7359488,4.342716 65.6032608,3.908376 C66.4705728,3.475404 67.4678448,3.258576 68.5943928,3.258576 Z M125.638693,3.5498916 L125.638693,14.5280916 C125.638693,15.7852836 125.676997,16.5308436 125.754289,16.7654556 C125.830897,17.0007516 126.039517,17.1183996 126.380149,17.1183996 C126.744721,17.1183996 126.961549,16.9966476 127.030633,16.7538276 C127.095112,16.5265572 127.129202,15.8303607 127.133461,14.6641259 L127.133917,3.5498916 L132.045721,3.5498916 L132.045721,19.6833996 L127.049101,19.6833996 L127.133917,18.3427596 C126.793285,18.8872236 126.373993,19.2955716 125.875357,19.5671196 C125.376721,19.8386676 124.803529,19.9754676 124.155097,19.9754676 C123.417745,19.9754676 122.805565,19.8455076 122.319241,19.5855876 C121.832917,19.3263516 121.474501,18.9822996 121.243993,18.5527476 C121.012801,18.1231956 120.868477,17.6751756 120.811705,17.2093716 C120.754933,16.7428836 120.726889,15.8174316 120.726889,14.4309636 L120.726889,3.5498916 L125.638693,3.5498916 Z M100.556824,3.258576 C102.21826,3.258576 103.470664,3.552012 104.313352,4.139568 C105.156724,4.727808 105.663568,5.448744 105.833884,6.303744 C106.003516,7.158744 106.089016,8.91936 106.089016,11.586276 L106.089016,19.683468 L101.310592,19.683468 L101.310592,18.2457 C101.011,18.822312 100.623856,19.2546 100.149844,19.543248 C99.6758316,19.831212 99.1101636,19.975536 98.4542076,19.975536 C97.5944196,19.975536 96.8064516,19.734084 96.0889356,19.251864 C95.3721036,18.769644 95.0130036,17.713548 95.0130036,16.08426 L95.0130036,14.759352 C95.0130036,13.551408 95.2038396,12.72924 95.5848276,12.29148 C95.9651316,11.85372 96.9097356,11.342772 98.4172716,10.75932 C100.030144,10.127304 100.893352,9.701856 101.006896,9.482976 C101.12044,9.264096 101.177212,8.818812 101.177212,8.145756 C101.177212,7.303068 101.114284,6.753816 100.988428,6.498 C100.863256,6.242868 100.653952,6.11496 100.362568,6.11496 C100.030144,6.11496 99.8235756,6.223032 99.7421796,6.437808 C99.6681936,6.634686 99.6281178,7.118939 99.6219523,7.89109385 L99.6211116,9.798984 L95.0130036,9.798984 L95.0130036,8.716896 C95.0130036,7.468596 95.1566436,6.506208 95.4446076,5.829732 C95.7325716,5.153256 96.3098676,4.55544 97.1771796,4.036284 C98.0444916,3.517812 99.1710396,3.258576 100.556824,3.258576 Z M151.595604,-0.0001368 L151.595604,19.6833312 L146.537424,19.6833312 L146.537424,-0.0001368 L151.595604,-0.0001368 Z M40.8749508,3.2585076 C41.7176388,3.2585076 42.4064268,3.4568676 42.9413148,3.8535876 C43.4762028,4.2509916 43.8209388,4.7516796 43.9748388,5.3556516 C44.1287388,5.9589396 44.2060308,6.9664716 44.2060308,8.3768796 L44.2060308,19.6833996 L39.2942268,19.6833996 L39.2942268,8.5102596 C39.2942268,7.4001276 39.2572908,6.7229676 39.1847868,6.4801476 C39.1115988,6.2366436 38.9091348,6.1148916 38.5767108,6.1148916 C38.2278708,6.1148916 38.0096748,6.2551116 37.9200708,6.5348676 C37.8375022,6.79400589 37.7926793,7.45773017 37.7866973,8.52439751 L37.7860068,19.6833996 L32.8748868,19.6833996 L32.8748868,3.5498916 L37.8715068,3.5498916 L37.7860068,5.0362236 C38.1430548,4.4438796 38.5787628,3.9992796 39.0938148,3.7031076 C39.6081828,3.4062516 40.2018948,3.2585076 40.8749508,3.2585076 Z M53.8959852,3.2585076 C54.7386732,3.2585076 55.4274612,3.4568676 55.9623492,3.8535876 C56.4972372,4.2509916 56.8419732,4.7516796 56.9958732,5.3556516 C57.1497732,5.9589396 57.2270652,6.9664716 57.2270652,8.3768796 L57.2270652,19.6833996 L52.3152612,19.6833996 L52.3152612,8.5102596 C52.3152612,7.4001276 52.2783252,6.7229676 52.2058212,6.4801476 C52.1326332,6.2366436 51.9301692,6.1148916 51.5977452,6.1148916 C51.2489052,6.1148916 51.0307092,6.2551116 50.9411052,6.5348676 C50.8585366,6.79400589 50.8137137,7.45773017 50.8077317,8.52439751 L50.8070412,19.6833996 L45.8959212,19.6833996 L45.8959212,3.5498916 L50.8925412,3.5498916 L50.8070412,5.0362236 C51.1640892,4.4438796 51.5997972,3.9992796 52.1148492,3.7031076 C52.6292172,3.4062516 53.2229292,3.2585076 53.8959852,3.2585076 Z M31.11174,3.5498232 L31.11174,19.6833312 L26.054244,19.6833312 L26.054244,3.5498232 L31.11174,3.5498232 Z M90.1866996,3.2585076 C91.0211796,3.2585076 91.7127036,3.4609716 92.2592196,3.8658996 C92.8064196,4.2715116 93.1566276,4.7680956 93.3112116,5.3556516 C93.4651116,5.9432076 93.5417196,6.8973876 93.5417196,8.2188756 L93.5417196,19.6833996 L88.7762916,19.6833996 L88.7762916,9.1668996 C88.7762916,7.7893236 88.7297796,6.9356916 88.6367556,6.6073716 C88.5430476,6.2797356 88.3262196,6.1148916 87.9855876,6.1148916 C87.6374316,6.1148916 87.4123956,6.2776836 87.3111636,6.6012156 C87.2166804,6.9044556 87.1662894,7.6694716 87.1599905,8.89681972 L87.1593156,19.6833996 L82.3932036,19.6833996 L82.3932036,9.4343436 C82.3932036,7.8536196 82.3548996,6.9055956 82.2776076,6.5895876 C82.2009996,6.2728956 81.9882756,6.1148916 81.6394356,6.1148916 C81.4205556,6.1148916 81.2345076,6.1983396 81.0806076,6.3645516 C80.9267076,6.5307636 80.8412076,6.7332276 80.8247916,6.9726276 C80.8090596,7.2120276 80.8008516,7.7202396 80.8008516,8.4979476 L80.8008516,19.6833996 L76.0347396,19.6833996 L76.0347396,3.5498916 L80.8856676,3.5498916 L80.8008516,5.0847876 C81.1818396,4.4760276 81.6353316,4.0197996 82.1626956,3.7147356 C82.6893756,3.4103556 83.2892436,3.2585076 83.9616156,3.2585076 C85.2748956,3.2585076 86.3084196,3.8672676 87.0621876,5.0847876 C87.4753236,4.4760276 87.9411276,4.0197996 88.4602836,3.7147356 C88.9787556,3.4103556 89.5539996,3.2585076 90.1866996,3.2585076 Z M115.77897,3.2585076 C116.621658,3.2585076 117.310446,3.4568676 117.845334,3.8535876 C118.380222,4.2509916 118.724958,4.7516796 118.878858,5.3556516 C119.032758,5.9589396 119.11005,6.9664716 119.11005,8.3768796 L119.11005,19.6833996 L114.198246,19.6833996 L114.198246,8.5102596 C114.198246,7.4001276 114.16131,6.7229676 114.088806,6.4801476 C114.015618,6.2366436 113.813154,6.1148916 113.48073,6.1148916 C113.13189,6.1148916 112.913694,6.2551116 112.82409,6.5348676 C112.741521,6.79400589 112.696698,7.45773017 112.690716,8.52439751 L112.690026,19.6833996 L107.778906,19.6833996 L107.778906,3.5498916 L112.775526,3.5498916 L112.690026,5.0362236 C113.047074,4.4438796 113.482782,3.9992796 113.997834,3.7031076 C114.512202,3.4062516 115.105914,3.2585076 115.77897,3.2585076 Z M5.617008,6.1152336 C5.341356,6.1152336 5.155308,6.2246736 5.057496,6.4435536 C4.960368,6.6624336 4.911804,7.1610696 4.911804,7.9387776 L4.911804,15.1241976 C4.911804,15.9915096 4.960368,16.5407616 5.057496,16.7719536 C5.155308,17.0024616 5.353668,17.1180576 5.65326,17.1180576 C5.93712,17.1180576 6.127956,16.9990416 6.225084,16.7596416 C6.322212,16.5202416 6.370776,15.9997176 6.370776,15.1973856 L6.370776,7.9387776 C6.370776,7.2260496 6.316056,6.7431456 6.206616,6.4921176 C6.097176,6.2410896 5.900868,6.1152336 5.617008,6.1152336 Z M101.177212,12.011724 C100.390612,12.587652 99.9350676,13.069188 99.8092116,13.458384 C99.6833556,13.84758 99.6211116,14.406408 99.6211116,15.136236 C99.6211116,15.9714 99.6758316,16.510392 99.7852716,16.753896 C99.8947116,16.996716 100.110856,17.118468 100.435756,17.118468 C100.743556,17.118468 100.943968,17.022708 101.036992,16.832556 C101.1307,16.642404 101.177212,16.141716 101.177212,15.331176 L101.177212,12.011724 Z M68.8255848,6.11496 C68.4849528,6.11496 68.2742808,6.218928 68.1935688,6.425496 C68.1121728,6.632064 68.0718168,7.189524 68.0718168,8.097192 L68.0718168,9.276408 L69.5061648,9.276408 L69.5061648,8.097192 C69.5061648,7.262028 69.4617048,6.723036 69.3727848,6.480216 C69.2831808,6.236712 69.1005528,6.11496 68.8255848,6.11496 Z M139.328338,6.11496 C138.987706,6.11496 138.777034,6.218928 138.696322,6.425496 C138.614926,6.632064 138.57457,7.189524 138.57457,8.097192 L138.57457,9.276408 L140.008918,9.276408 L140.008918,8.097192 C140.008918,7.262028 139.964458,6.723036 139.875538,6.480216 C139.785934,6.236712 139.603306,6.11496 139.328338,6.11496 Z M31.11174,0.0005472 L31.11174,2.5655472 L26.054244,2.5655472 L26.054244,0.0005472 L31.11174,0.0005472 Z" id="Combined-Shape" fill="#C1CC23"></path>
                <path d="M244.916665,3.5498916 L246.530905,14.4432756 L247.318189,3.5498916 L251.761453,3.5498916 L250.357885,15.2216676 C250.136269,17.0698356 249.950221,18.3297636 249.800425,19.0028196 C249.649945,19.6751916 249.400969,20.2305996 249.052129,20.6676756 C248.703973,21.1061196 248.219701,21.4282836 247.599997,21.6341676 C246.979609,21.8414196 245.989177,21.9447036 244.627333,21.9447036 L241.649197,21.9447036 L241.649197,19.3673916 C242.412541,19.3673916 242.903653,19.3284036 243.122533,19.2517956 C243.342097,19.1751876 243.452221,19.0028196 243.452221,18.7346916 C243.452221,18.6054156 243.350305,18.0417996 243.147157,17.0445276 L240.458353,3.5498916 L244.916665,3.5498916 Z M186.391505,3.258576 C188.052257,3.258576 189.305345,3.552012 190.148033,4.139568 C190.990721,4.727808 191.497565,5.448744 191.667881,6.303744 C191.830087,7.11802971 191.914741,8.75373584 191.922436,11.2114532 L191.923013,19.683468 L187.144589,19.683468 L187.144589,18.2457 C186.844997,18.822312 186.457853,19.2546 185.983841,19.543248 C185.509829,19.831212 184.944845,19.975536 184.288205,19.975536 C183.428417,19.975536 182.640449,19.734084 181.923617,19.251864 C181.206101,18.769644 180.847001,17.713548 180.847001,16.08426 L180.847001,14.759352 C180.847001,13.551408 181.037837,12.72924 181.418141,12.29148 C181.799813,11.85372 182.743733,11.342772 184.251269,10.75932 C185.864141,10.127304 186.727349,9.701856 186.840893,9.482976 C186.954437,9.264096 187.011209,8.818812 187.011209,8.145756 C187.011209,7.303068 186.948281,6.753816 186.823109,6.498 C186.696569,6.242868 186.487949,6.11496 186.196565,6.11496 C185.864141,6.11496 185.657573,6.223032 185.576177,6.437808 C185.495465,6.652584 185.455109,7.20936 185.455109,8.10882 L185.455109,9.798984 L180.847001,9.798984 L180.847001,8.716896 C180.847001,7.468596 180.990641,6.506208 181.278605,5.829732 C181.566569,5.153256 182.143865,4.55544 183.011177,4.036284 C183.878489,3.517812 185.005037,3.258576 186.391505,3.258576 Z M216.969109,3.258576 C218.629861,3.258576 219.882949,3.552012 220.725637,4.139568 C221.568325,4.727808 222.075169,5.448744 222.245485,6.303744 C222.415801,7.158744 222.500617,8.91936 222.500617,11.586276 L222.500617,19.683468 L217.722193,19.683468 L217.722193,18.2457 C217.422601,18.822312 217.035457,19.2546 216.561445,19.543248 C216.087433,19.831212 215.522449,19.975536 214.865809,19.975536 C214.006021,19.975536 213.218053,19.734084 212.501221,19.251864 C211.783705,18.769644 211.424605,17.713548 211.424605,16.08426 L211.424605,14.759352 C211.424605,13.551408 211.615441,12.72924 211.995745,12.29148 C212.377417,11.85372 213.321337,11.342772 214.828873,10.75932 C216.441745,10.127304 217.304953,9.701856 217.418497,9.482976 C217.532041,9.264096 217.588813,8.818812 217.588813,8.145756 C217.588813,7.303068 217.525885,6.753816 217.400713,6.498 C217.274173,6.242868 217.065553,6.11496 216.774169,6.11496 C216.441745,6.11496 216.235177,6.223032 216.153781,6.437808 C216.073069,6.652584 216.032713,7.20936 216.032713,8.10882 L216.032713,9.798984 L211.424605,9.798984 L211.424605,8.716896 C211.424605,7.468596 211.568245,6.506208 211.856209,5.829732 C212.144173,5.153256 212.721469,4.55544 213.588781,4.036284 C214.456093,3.517812 215.582641,3.258576 216.969109,3.258576 Z M257.928808,3.258576 C259.307068,3.258576 260.443192,3.51918 261.338548,4.04244 C262.234588,4.565016 262.8625,5.257908 263.223652,6.121116 C263.58412,6.984324 263.764012,8.198424 263.764012,9.762732 L263.764012,11.902284 L257.405548,11.902284 L257.405548,15.391368 C257.405548,16.121196 257.458216,16.591104 257.564236,16.801776 C257.668888,17.013132 257.872036,17.118468 258.171628,17.118468 C258.544408,17.118468 258.794068,16.978248 258.91924,16.699176 C259.045096,16.418736 259.108024,15.877692 259.108024,15.076044 L259.108024,12.94812 L263.764012,12.94812 L263.764012,14.139648 C263.764012,15.136236 263.701084,15.902316 263.575912,16.437204 C263.450056,16.972092 263.15662,17.543916 262.69492,18.151992 C262.232536,18.759384 261.647032,19.214928 260.937724,19.519308 C260.228416,19.823004 259.339216,19.975536 258.26944,19.975536 C257.231128,19.975536 256.315936,19.825056 255.521128,19.52478 C254.727004,19.225872 254.109352,18.814104 253.667488,18.291528 C253.225624,17.768268 252.919876,17.193024 252.74956,16.564428 C252.579244,15.936516 252.494428,15.022692 252.494428,13.822956 L252.494428,9.118404 C252.494428,7.707996 252.68458,6.595812 253.066252,5.781168 C253.446556,4.966524 254.070364,4.342716 254.937676,3.908376 C255.805672,3.475404 256.80226,3.258576 257.928808,3.258576 Z M278.998265,3.258234 C280.068041,3.258234 280.977761,3.393666 281.728109,3.665214 C282.477089,3.936762 283.053017,4.295862 283.453841,4.74183 C283.855349,5.187114 284.098169,5.60025 284.182985,5.981922 C284.268485,6.36291 284.310893,6.95799 284.310893,7.76853 L284.310893,8.704926 L279.958601,8.704926 L279.958601,7.829406 C279.958601,7.083846 279.916193,6.611886 279.830693,6.412842 C279.745877,6.214482 279.533153,6.115302 279.193205,6.115302 C278.916869,6.115302 278.710301,6.206274 278.572133,6.388902 C278.434649,6.570846 278.366249,6.844446 278.366249,7.209018 C278.366249,7.704234 278.400449,8.066754 278.469533,8.297262 C278.538617,8.528454 278.744501,8.782218 279.089237,9.057186 C279.433973,9.332838 280.140545,9.734346 281.211005,10.261026 C282.637829,10.958022 283.573541,11.614662 284.019509,12.230262 C284.465477,12.846546 284.688461,13.742586 284.688461,14.917698 C284.688461,16.230294 284.518145,17.22141 284.177513,17.889678 C283.837565,18.55863 283.267793,19.073682 282.469565,19.43415 C281.671337,19.794618 280.708265,19.975194 279.581717,19.975194 C278.333417,19.975194 277.265693,19.780938 276.377861,19.391742 C275.490029,19.002546 274.880585,18.475866 274.548845,17.811018 C274.215737,17.14617 274.050209,16.142058 274.050209,14.795946 L274.050209,14.018238 L278.402501,14.018238 L278.402501,15.038766 C278.402501,15.906762 278.457221,16.469694 278.566661,16.72893 C278.676101,16.98885 278.892929,17.118126 279.217145,17.118126 C279.565985,17.118126 279.808805,17.030574 279.946289,16.856154 C280.083773,16.682418 280.153541,16.31511 280.153541,15.756282 C280.153541,14.986782 280.063937,14.504562 279.885413,14.309622 C279.699365,14.115366 278.746553,13.539438 277.029029,12.583206 C275.585789,11.772666 274.706849,11.037366 274.390157,10.376622 C274.074149,9.715878 273.916145,8.932014 273.916145,8.023662 C273.916145,6.73569 274.086461,5.78493 274.427093,5.17275 C274.767725,4.561254 275.345021,4.089294 276.159665,3.75687 C276.973625,3.424446 277.920281,3.258234 278.998265,3.258234 Z M162.926953,1.3980276 L162.926953,3.9390876 L164.251861,3.9390876 L164.251861,6.4924596 L162.926953,6.4924596 L162.926953,15.1238556 C162.926953,16.1861076 162.981673,16.7777676 163.091113,16.8995196 C163.200553,17.0205876 163.656097,17.0814636 164.458429,17.0814636 L164.458429,19.6833996 L162.477565,19.6833996 C161.358541,19.6833996 160.560313,19.6368876 160.082197,19.5438636 C159.604081,19.4501556 159.182053,19.2360636 158.817481,18.8988516 C158.452909,18.5630076 158.225821,18.1779156 158.136901,17.7442596 C158.052897,17.3377071 158.009172,16.4165515 158.004035,14.9807927 L158.003521,6.4924596 L156.945373,6.4924596 L156.945373,3.9390876 L158.003521,3.9390876 L158.003521,1.3980276 L162.926953,1.3980276 Z M173.151522,3.2585076 L173.151522,8.9357076 C172.252062,8.9357076 171.591318,9.0574596 171.169974,9.3009636 C170.747946,9.5437836 170.48871,9.8823636 170.391582,10.3160196 C170.294454,10.7496756 170.24589,11.7483156 170.24589,13.3126236 L170.24589,19.6833996 L165.333402,19.6833996 L165.333402,3.5498916 L170.24589,3.5498916 L170.051634,5.6716596 C170.764362,4.1518116 171.797886,3.3481116 173.151522,3.2585076 Z M179.303076,3.5498232 L179.303076,19.6833312 L174.244896,19.6833312 L174.244896,3.5498232 L179.303076,3.5498232 Z M198.670536,-0.0001368 L198.670536,19.6833312 L193.612356,19.6833312 L193.612356,-0.0001368 L198.670536,-0.0001368 Z M209.880612,-0.0001368 L209.880612,19.6833312 L204.822432,19.6833312 L204.822432,-0.0001368 L209.880612,-0.0001368 Z M227.475486,3.5498916 C227.508318,3.9712356 227.86605,7.0512876 228.549366,12.7900476 C228.602718,12.1997556 228.97071,9.1197036 229.651974,3.5498916 L233.719722,3.5498916 L234.713574,12.7900476 C234.87021,10.0916676 235.245726,7.0122996 235.839438,3.5498916 L240.06861,3.5498916 L238.108266,19.6833996 L232.77717,19.6833996 C232.48647,17.7121116 232.14789,15.1149636 231.759378,11.8899036 C231.625314,13.3092036 231.442002,14.7394476 231.206706,16.1820036 L230.667714,19.6833996 L225.324306,19.6833996 L223.24221,3.5498916 L227.475486,3.5498916 Z M273.187138,3.2585076 L273.187138,8.9357076 C272.287678,8.9357076 271.626934,9.0574596 271.20559,9.3009636 C270.783562,9.5437836 270.524326,9.8823636 270.427198,10.3160196 C270.33614,10.7225721 270.287766,11.6256926 270.282075,13.0259446 L270.281506,19.6833996 L265.369018,19.6833996 L265.369018,3.5498916 L270.281506,3.5498916 L270.08725,5.6716596 C270.799978,4.1518116 271.833502,3.3481116 273.187138,3.2585076 Z M187.011209,12.011724 C186.225293,12.587652 185.769065,13.069188 185.643209,13.458384 C185.517353,13.84758 185.455109,14.406408 185.455109,15.136236 C185.455109,15.9714 185.509829,16.510392 185.619269,16.753896 C185.728709,16.996716 185.944853,17.118468 186.269753,17.118468 C186.577553,17.118468 186.777965,17.022708 186.870989,16.832556 C186.964697,16.642404 187.011209,16.141716 187.011209,15.331176 L187.011209,12.011724 Z M217.588813,12.011724 C216.802897,12.587652 216.346669,13.069188 216.220813,13.458384 C216.094957,13.84758 216.032713,14.406408 216.032713,15.136236 C216.032713,15.9714 216.087433,16.510392 216.196873,16.753896 C216.306313,16.996716 216.522457,17.118468 216.847357,17.118468 C217.155157,17.118468 217.355569,17.022708 217.448593,16.832556 C217.542301,16.642404 217.588813,16.141716 217.588813,15.331176 L217.588813,12.011724 Z M258.16,6.11496 C257.819368,6.11496 257.608012,6.218928 257.5273,6.425496 C257.446588,6.632064 257.405548,7.189524 257.405548,8.097192 L257.405548,9.276408 L258.84058,9.276408 L258.84058,8.097192 C258.84058,7.262028 258.79612,6.723036 258.7072,6.480216 C258.617596,6.236712 258.434968,6.11496 258.16,6.11496 Z M179.303076,0.0005472 L179.303076,2.5655472 L174.244896,2.5655472 L174.244896,0.0005472 L179.303076,0.0005472 Z" id="Combined-Shape" fill="#FEFEFE"></path>
                <path d="M190.573893,30.8430656 L190.573893,31.7166102 C190.573893,32.1747688 190.51404,32.5506726 190.396899,32.8434993 C190.279758,33.1363259 190.076257,33.3863801 189.788962,33.5903717 C189.499956,33.7960084 189.172474,33.9317286 188.80908,34 L188.80908,33.3008353 C189.069013,33.1642925 189.216081,32.9825097 189.251138,32.7530191 L188.80908,32.7530191 L188.80908,30.8430656 L190.573893,30.8430656 Z M1.73830736,24.6148238 C2.06835489,24.6148238 2.37275107,24.6830952 2.65064083,24.8196379 C2.92853059,24.9561807 3.18247909,25.1634625 3.41248631,25.4414833 L3.45865876,24.7587695 L6.04431614,24.7587695 L6.04431614,33.8923286 L3.41248631,33.8923286 L3.41248631,32.1074022 C3.15682772,32.4536944 2.92083519,32.6716692 2.70621878,32.7621494 C2.49074733,32.8526295 2.22482821,32.8978696 1.9084614,32.8978696 C1.44759191,32.8978696 1.0670967,32.7975189 0.765265659,32.5968175 C0.463434622,32.3961161 0.25993381,32.1353688 0.155618268,31.8170432 C0.0521577712,31.4970725 -2.22044605e-15,31.0084797 -2.22044605e-15,30.3496198 L-2.22044605e-15,26.8250069 C-2.22044605e-15,26.2829486 0.0393320897,25.8782556 0.117141224,25.6117505 C0.194950358,25.3436002 0.383060352,25.1108195 0.680616161,24.9125857 C0.977316925,24.7135294 1.33045069,24.6148238 1.73830736,24.6148238 Z M97.91091,24.6148238 C98.2409576,24.6148238 98.5453538,24.6830952 98.8232435,24.8196379 C99.1011333,24.9561807 99.3550818,25.1634625 99.585089,25.4414833 L99.6312615,24.7587695 L102.216919,24.7587695 L102.216919,33.8923286 L99.585089,33.8923286 L99.585089,32.1074022 C99.3294304,32.4536944 99.0934379,32.6716692 98.8788215,32.7621494 C98.66335,32.8526295 98.3974309,32.8978696 98.0810641,32.8978696 C97.6201946,32.8978696 97.2396994,32.7975189 96.9378684,32.5968175 C96.6360373,32.3961161 96.4325365,32.1353688 96.328221,31.8170432 C96.2247605,31.4970725 96.1726027,31.0084797 96.1726027,30.3496198 L96.1726027,26.8250069 C96.1726027,26.2829486 96.2119348,25.8782556 96.2897439,25.6117505 C96.367553,25.3436002 96.555663,25.1108195 96.8532189,24.9125857 C97.1499196,24.7135294 97.5030534,24.6148238 97.91091,24.6148238 Z M205.273663,24.6144948 C205.680665,24.6144948 206.034654,24.715668 206.33221,24.9180145 C206.629765,25.1211836 206.814455,25.3547868 206.887989,25.6204694 C206.961523,25.8853295 207,26.3352626 207,26.9694461 L207,30.3369525 C207,31.0649064 206.952973,31.5814658 206.859773,31.8890983 C206.766573,32.1959082 206.574187,32.4410271 206.285182,32.6236325 C205.997887,32.8062379 205.649028,32.8975406 205.241172,32.8975406 C204.916254,32.8975406 204.613568,32.8268016 204.334823,32.6869686 C204.057789,32.5463131 203.80384,32.3365637 203.572978,32.0593654 L203.572978,33.8919996 L200.942858,33.8919996 L200.942858,24.759263 L203.618295,24.759263 L203.572978,25.4650081 C203.80897,25.1795844 204.065484,24.9665448 204.348504,24.8250667 C204.630669,24.6844112 204.939341,24.6144948 205.273663,24.6144948 Z M138.240239,24.4397036 C139.021751,24.4397036 139.637383,24.6428726 140.086282,25.0483882 C140.536036,25.4539037 140.760913,25.9696405 140.760913,26.5964212 C140.760913,27.2552811 140.487299,27.8401119 139.939215,28.3500909 L140.867794,29.901414 L142.30427,29.048433 L142.30427,30.692704 L141.571496,31.1270087 L142.489815,32.7531836 L140.053791,32.7531836 L139.737424,32.2119479 C138.920855,32.7087661 138.148749,32.9579978 137.419396,32.9579978 C136.654985,32.9579978 136.066714,32.7227494 135.654582,32.2538977 C135.241595,31.7825785 135.036384,31.2174888 135.036384,30.5536936 C135.036384,30.0239735 135.1578,29.6085874 135.400633,29.3075353 C135.644321,29.0056606 136.008571,28.7613642 136.494236,28.5721785 C135.79994,28.1107297 135.451936,27.4864168 135.451936,26.698417 C135.451936,26.0206384 135.699899,25.4744674 136.195826,25.0599038 C136.690042,24.6469854 137.372368,24.4397036 138.240239,24.4397036 Z M87.0998012,24.7591807 L87.0998012,30.1986824 C87.0998012,30.8213503 87.1203222,31.1906738 87.1613644,31.3074755 C87.2024066,31.4242771 87.3144176,31.4826779 87.4973973,31.4826779 C87.6923476,31.4826779 87.8086338,31.4218095 87.8454008,31.3008951 C87.878491,31.1928124 87.897037,30.8681944 87.9004152,30.3270409 L87.9009787,24.7591807 L90.5319535,24.7591807 L90.5319535,32.7535126 L87.8556613,32.7535126 L87.9009787,32.0888949 C87.717999,32.3586902 87.4939771,32.5602142 87.2263479,32.6951118 C86.9595737,32.830832 86.6526124,32.8982809 86.3054639,32.8982809 C85.9095779,32.8982809 85.5820955,32.8332997 85.3213067,32.7049824 C85.0613728,32.5766651 84.8689876,32.4063979 84.745006,32.1925358 C84.6210245,31.9803187 84.5440704,31.7582311 84.5141438,31.527918 C84.4833621,31.2959598 84.4688264,30.8378013 84.4688264,30.1509747 L84.4688264,24.7591807 L87.0998012,24.7591807 Z M67.30644,24.7591807 L67.30644,30.1986824 C67.30644,30.8213503 67.3269611,31.1906738 67.3680033,31.3074755 C67.4090455,31.4242771 67.5210564,31.4826779 67.7040361,31.4826779 C67.8989865,31.4826779 68.0152727,31.4218095 68.0520396,31.3008951 C68.0851299,31.1928124 68.1036758,30.8681944 68.1070541,30.3270409 L68.1076176,24.7591807 L70.7385924,24.7591807 L70.7385924,32.7535126 L68.0623002,32.7535126 L68.1076176,32.0888949 C67.9246379,32.3586902 67.700616,32.5602142 67.4329867,32.6951118 C67.1662126,32.830832 66.8592513,32.8982809 66.5121028,32.8982809 C66.1162168,32.8982809 65.7887344,32.8332997 65.5279455,32.7049824 C65.2680117,32.5766651 65.0756265,32.4063979 64.9516449,32.1925358 C64.8276633,31.9803187 64.7507092,31.7582311 64.7207826,31.527918 C64.690001,31.2959598 64.6754652,30.8378013 64.6754652,30.1509747 L64.6754652,24.7591807 L67.30644,24.7591807 Z M105.752532,24.7591807 L105.752532,30.1986824 C105.752532,30.8213503 105.773908,31.1906738 105.81495,31.3074755 C105.855992,31.4242771 105.968003,31.4826779 106.150128,31.4826779 C106.345933,31.4826779 106.462219,31.4218095 106.498986,31.3008951 C106.532077,31.1928124 106.550623,30.8681944 106.554001,30.3270409 L106.554564,24.7591807 L109.185539,24.7591807 L109.185539,32.7535126 L106.509247,32.7535126 L106.554564,32.0888949 C106.37244,32.3586902 106.146708,32.5602142 105.879933,32.6951118 C105.613159,32.830832 105.306198,32.8982809 104.95905,32.8982809 C104.564019,32.8982809 104.235681,32.8332997 103.974892,32.7049824 C103.714958,32.5766651 103.522573,32.4063979 103.398592,32.1925358 C103.27461,31.9803187 103.197656,31.7582311 103.167729,31.527918 C103.140368,31.3217329 103.125843,30.9368217 103.122953,30.3714511 L103.122412,24.7591807 L105.752532,24.7591807 Z M154.177859,24.7591807 L154.177859,30.1986824 C154.177859,30.8213503 154.19838,31.1906738 154.240277,31.3074755 C154.280464,31.4242771 154.392475,31.4826779 154.575455,31.4826779 C154.77126,31.4826779 154.885836,31.4218095 154.922603,31.3008951 C154.95937,31.1808033 154.979036,30.7933837 154.979036,30.1386365 L154.979036,24.7591807 L157.610011,24.7591807 L157.610011,32.7535126 L154.932864,32.7535126 L154.979036,32.0888949 C154.796056,32.3586902 154.572034,32.5602142 154.30526,32.6951118 C154.037631,32.830832 153.73067,32.8982809 153.383521,32.8982809 C152.987635,32.8982809 152.660153,32.8332997 152.399364,32.7049824 C152.13943,32.5766651 151.947045,32.4063979 151.823063,32.1925358 C151.699937,31.9803187 151.622128,31.7582311 151.592201,31.527918 C151.56484,31.3217329 151.549639,30.9368217 151.546599,30.3714511 L151.546029,24.7591807 L154.177859,24.7591807 Z M9.58078403,24.7591807 L9.58078403,30.1986824 C9.58078403,30.8213503 9.60130512,31.1906738 9.6423473,31.3074755 C9.68338948,31.4242771 9.79540043,31.4826779 9.97838016,31.4826779 C10.1733305,31.4826779 10.2896167,31.4218095 10.3263836,31.3008951 C10.3594739,31.1928124 10.3780198,30.8681944 10.3813981,30.3270409 L10.3819616,24.7591807 L13.0129364,24.7591807 L13.0129364,32.7535126 L10.3366442,32.7535126 L10.3819616,32.0888949 C10.1989819,32.3586902 9.97495997,32.5602142 9.70733075,32.6951118 C9.44055658,32.830832 9.13359527,32.8982809 8.78644683,32.8982809 C8.39056079,32.8982809 8.06307839,32.8332997 7.80228954,32.7049824 C7.54235573,32.5766651 7.34997051,32.4063979 7.22598892,32.1925358 C7.10200733,31.9803187 7.02505324,31.7582311 6.99512665,31.527918 C6.96434502,31.2959598 6.94980925,30.8378013 6.94980925,30.1509747 L6.94980925,24.7591807 L9.58078403,24.7591807 Z M74.5163541,24.614577 C75.2542583,24.614577 75.8630506,24.7437169 76.3427311,25.0028191 C76.8224116,25.2619213 77.1592995,25.6049233 77.3525398,26.0334702 C77.54578,26.4603719 77.6424002,27.0624762 77.6424002,27.8373152 L77.6424002,28.897578 L74.2358992,28.897578 L74.2358992,30.6265713 C74.2358992,30.9876693 74.2641157,31.2212726 74.3205487,31.3249134 C74.3769817,31.4301994 74.4855725,31.4828424 74.646321,31.4828424 C74.8455466,31.4828424 74.9797887,31.4129259 75.0473373,31.2747381 C75.1140308,31.1357277 75.1473776,30.8675775 75.1473776,30.4702874 L75.1473776,29.4157824 L77.6424002,29.4157824 L77.6424002,30.006371 C77.6424002,30.4998991 77.6090534,30.8799157 77.5415048,31.1447757 C77.4739562,31.4104583 77.3166279,31.6925918 77.0695197,31.9944665 C76.8215566,32.2955186 76.5077549,32.5208964 76.1281147,32.672245 C75.7484745,32.8227711 75.2713592,32.8976228 74.6984788,32.8976228 C74.1426992,32.8976228 73.6519032,32.8227711 73.2260905,32.6747127 C72.801133,32.5266543 72.4702304,32.3226627 72.2333828,32.0635604 C71.9965352,31.8044582 71.8332215,31.519857 71.7417317,31.2081118 C71.6502418,30.8971891 71.6049244,30.4439659 71.6049244,29.8492646 L71.6049244,27.5173445 C71.6049244,26.8190023 71.7066748,26.267896 71.9110307,25.8648481 C72.1153865,25.4601551 72.4497093,25.1508775 72.913999,24.9370154 C73.3782886,24.7215081 73.912692,24.614577 74.5163541,24.614577 Z M53.8694866,24.614906 C54.7595889,24.614906 55.4307996,24.7596743 55.8822635,25.0508558 C56.3337275,25.3420374 56.605632,25.6998452 56.6962668,26.1234568 C56.7877567,26.5470684 56.8330741,27.4197905 56.8330741,28.7408006 L56.8330741,32.7531836 L54.2730681,32.7531836 L54.2730681,32.0408581 C54.1131746,32.3271044 53.9053985,32.5409666 53.65145,32.6832672 C53.3975015,32.8263903 53.0948155,32.8979519 52.7425367,32.8979519 C52.2825223,32.8979519 51.8601299,32.77786 51.4762145,32.5393215 C51.0922991,32.2999604 50.8999138,31.7776432 50.8999138,30.9699023 L50.8999138,30.3126874 C50.8999138,29.7155185 51.0016642,29.3075353 51.2060201,29.0903829 C51.4095209,28.8732306 51.9157078,28.6207087 52.7237257,28.3311723 C53.5873216,28.017782 54.0499012,27.8063874 54.1106094,27.6994564 C54.1713176,27.5900577 54.2020993,27.3696151 54.2020993,27.0356611 C54.2020993,26.6186299 54.1678975,26.346367 54.1012039,26.2196948 C54.0336553,26.0930226 53.9216444,26.0296865 53.7651711,26.0296865 C53.5873216,26.0296865 53.4770208,26.083152 53.4334134,26.1900831 C53.3898061,26.2961916 53.36843,26.5717448 53.36843,27.0175651 L53.36843,27.8549177 L50.8999138,27.8549177 L50.8999138,27.3194398 C50.8999138,26.7008846 50.9768679,26.2238075 51.1307761,25.8882084 C51.2846843,25.5526093 51.5942107,25.2573151 52.0593554,24.9998579 C52.5236451,24.7432233 53.1273072,24.614906 53.8694866,24.614906 Z M36.7473729,24.614577 C37.4852771,24.614577 38.0940695,24.7437169 38.5737499,25.0028191 C39.0534304,25.2619213 39.3903183,25.6049233 39.5835586,26.0334702 C39.7767989,26.4603719 39.873419,27.0624762 39.873419,27.8373152 L39.873419,28.897578 L36.466918,28.897578 L36.466918,30.6265713 C36.466918,30.9876693 36.4951345,31.2212726 36.5515675,31.3249134 C36.6080005,31.4301994 36.7165913,31.4828424 36.8773398,31.4828424 C37.0765654,31.4828424 37.2108075,31.4129259 37.2783561,31.2747381 C37.3450497,31.1357277 37.3783964,30.8675775 37.3783964,30.4702874 L37.3783964,29.4157824 L39.873419,29.4157824 L39.873419,30.006371 C39.873419,30.4998991 39.8400722,30.8799157 39.7725236,31.1447757 C39.704975,31.4104583 39.5476467,31.6925918 39.3005386,31.9944665 C39.0525754,32.2955186 38.7387737,32.5208964 38.3591335,32.672245 C37.9794934,32.8227711 37.502378,32.8976228 36.9294976,32.8976228 C36.3737181,32.8976228 35.882922,32.8227711 35.4571094,32.6747127 C35.0321518,32.5266543 34.7012492,32.3226627 34.4644016,32.0635604 C34.227554,31.8044582 34.0642403,31.519857 33.9727505,31.2081118 C33.8812606,30.8971891 33.8359432,30.4439659 33.8359432,29.8492646 L33.8359432,27.5173445 C33.8359432,26.8190023 33.9376936,26.267896 34.1420495,25.8648481 C34.3464053,25.4601551 34.6807281,25.1508775 35.1450178,24.9370154 C35.6093074,24.7215081 36.1437108,24.614577 36.7473729,24.614577 Z M147.833849,24.6147415 C148.407584,24.6147415 148.894105,24.6813678 149.296832,24.8162655 C149.697848,24.9503406 150.006519,25.1288333 150.221136,25.3484532 C150.435752,25.5705409 150.565719,25.775355 150.611892,25.9637182 C150.658064,26.152904 150.680295,26.4473757 150.680295,26.8496011 L150.680295,27.3135174 L148.347731,27.3135174 L148.347731,26.8800353 C148.347731,26.5098893 148.326355,26.2754634 148.280183,26.1775804 C148.234865,26.0788748 148.121144,26.029522 147.93902,26.029522 C147.790242,26.029522 147.679941,26.074762 147.606407,26.1652422 C147.532018,26.2557223 147.495251,26.3914425 147.495251,26.5724028 C147.495251,26.8166992 147.514062,26.9968369 147.550829,27.1111709 C147.588451,27.2263275 147.698752,27.3513546 147.883442,27.4878973 C148.067276,27.6244401 148.446917,27.8234964 149.019797,28.0842437 C149.784208,28.4297134 150.285264,28.7554419 150.523822,29.0597842 C150.763235,29.3657716 150.882086,29.8091243 150.882086,30.3914874 C150.882086,31.0421219 150.791451,31.5331823 150.609326,31.8646686 C150.426347,32.196155 150.121951,32.4511445 149.694428,32.6296371 C149.26605,32.8089523 148.750458,32.8977873 148.146796,32.8977873 C147.47815,32.8977873 146.906125,32.8015494 146.430719,32.6082509 C145.955314,32.415775 145.628687,32.1550276 145.450837,31.8251864 C145.272133,31.4961677 145.183208,30.9977043 145.183208,30.3314415 L145.183208,29.945667 L147.514917,29.945667 L147.514917,30.4515333 C147.514917,30.8817253 147.544844,31.1613912 147.602987,31.2897084 C147.661985,31.4180257 147.777416,31.4821844 147.951845,31.4821844 C148.13739,31.4821844 148.268212,31.439412 148.342601,31.352222 C148.41699,31.2666771 148.453757,31.0840718 148.453757,30.807696 C148.453757,30.4260344 148.405019,30.1866732 148.310109,30.0904353 C148.209214,29.9941973 147.700462,29.7087736 146.779578,29.2349867 C146.006617,28.8335838 145.534632,28.4683731 145.365333,28.141822 C145.196889,27.8136259 145.111384,27.4262063 145.111384,26.9762733 C145.111384,26.3371544 145.203729,25.8658351 145.385854,25.5631379 C145.567979,25.2596182 145.87665,25.0260149 146.313578,24.8615056 C146.749651,24.6961737 147.256693,24.6147415 147.833849,24.6147415 Z M119.970997,24.614906 C120.861099,24.614906 121.53231,24.7596743 121.983774,25.0508558 C122.435238,25.3420374 122.707142,25.6998452 122.797777,26.1234568 C122.888412,26.5470684 122.934584,27.4197905 122.934584,28.7408006 L122.934584,32.7531836 L120.375433,32.7531836 L120.375433,32.0408581 C120.214685,32.3271044 120.006909,32.5409666 119.752105,32.6832672 C119.499012,32.8263903 119.196325,32.8979519 118.844047,32.8979519 C118.384887,32.8979519 117.962495,32.77786 117.577724,32.5393215 C117.193809,32.2999604 117.001424,31.7776432 117.001424,30.9699023 L117.001424,30.3126874 C117.001424,29.7155185 117.104029,29.3075353 117.30753,29.0903829 C117.511031,28.8732306 118.017218,28.6207087 118.825236,28.3311723 C119.688832,28.017782 120.151411,27.8063874 120.212119,27.6994564 C120.273683,27.5900577 120.303609,27.3696151 120.303609,27.0356611 C120.303609,26.6186299 120.270263,26.346367 120.202714,26.2196948 C120.135165,26.0930226 120.023154,26.0296865 119.866681,26.0296865 C119.688832,26.0296865 119.578531,26.083152 119.535778,26.1900831 C119.492171,26.2961916 119.46994,26.5717448 119.46994,27.0175651 L119.46994,27.8549177 L117.001424,27.8549177 L117.001424,27.3194398 C117.001424,26.7008846 117.079233,26.2238075 117.232286,25.8882084 C117.386194,25.5526093 117.695721,25.2573151 118.160865,24.9998579 C118.625155,24.7432233 119.228817,24.614906 119.970997,24.614906 Z M178.197624,24.614906 C179.087726,24.614906 179.758937,24.7596743 180.209546,25.0508558 C180.66272,25.3420374 180.932914,25.6998452 181.024404,26.1234568 C181.115039,26.5470684 181.162066,27.4197905 181.162066,28.7408006 L181.162066,32.7531836 L178.60206,32.7531836 L178.60206,32.0408581 C178.441312,32.3271044 178.234391,32.5409666 177.980442,32.6832672 C177.726494,32.8263903 177.422953,32.8979519 177.071529,32.8979519 C176.611514,32.8979519 176.189122,32.77786 175.804352,32.5393215 C175.420436,32.2999604 175.228906,31.7776432 175.228906,30.9699023 L175.228906,30.3126874 C175.228906,29.7155185 175.330656,29.3075353 175.534157,29.0903829 C175.737658,28.8732306 176.243845,28.6207087 177.051863,28.3311723 C177.915459,28.017782 178.378038,27.8063874 178.440457,27.6994564 C178.50031,27.5900577 178.530236,27.3696151 178.530236,27.0356611 C178.530236,26.6186299 178.49689,26.346367 178.430196,26.2196948 C178.361792,26.0930226 178.249781,26.0296865 178.094163,26.0296865 C177.915459,26.0296865 177.805158,26.083152 177.762406,26.1900831 C177.718798,26.2961916 177.696567,26.5717448 177.696567,27.0175651 L177.696567,27.8549177 L175.228906,27.8549177 L175.228906,27.3194398 C175.228906,26.7008846 175.30586,26.2238075 175.458913,25.8882084 C175.613676,25.5526093 175.923203,25.2573151 176.387493,24.9998579 C176.851782,24.7432233 177.456299,24.614906 178.197624,24.614906 Z M48.314342,24.6144125 C48.7615307,24.6144125 49.1317654,24.7147632 49.4241909,24.9146421 C49.7174715,25.1169886 49.9055815,25.3621075 49.9885209,25.6532891 C50.0706053,25.9444706 50.1116475,26.4182575 50.1116475,27.0730048 L50.1116475,32.7535126 L47.5584818,32.7535126 L47.5584818,27.5418564 C47.5584818,26.8599652 47.5336855,26.4363536 47.4840929,26.2743119 C47.4336452,26.1114476 47.318214,26.0300155 47.1352343,26.0300155 C46.9488344,26.0300155 46.828273,26.1106251 46.7735501,26.2710217 C46.7196822,26.4314183 46.6923208,26.8558524 46.6923208,27.5418564 L46.6923208,32.7535126 L44.1391551,32.7535126 L44.1391551,27.675109 C44.1391551,26.8912219 44.118634,26.4215477 44.0775919,26.2644413 C44.0365497,26.10898 43.9219736,26.0300155 43.7355737,26.0300155 C43.6184325,26.0300155 43.5183922,26.0711428 43.4363078,26.1533975 C43.3533684,26.2356522 43.308051,26.3360029 43.2995005,26.4552722 C43.2909501,26.5728963 43.2858198,26.8254182 43.2858198,27.2103701 L43.2858198,32.7535126 L40.7326541,32.7535126 L40.7326541,24.7591807 L43.3319922,24.7591807 L43.2858198,25.5192139 C43.4901757,25.2181618 43.7330086,24.9911389 44.0160286,24.8406129 C44.2981936,24.6892643 44.6188356,24.6144125 44.9796648,24.6144125 C45.6833672,24.6144125 46.2365816,24.9154646 46.640163,25.5192139 C46.8616198,25.2181618 47.111293,24.9911389 47.3891828,24.8406129 C47.6670726,24.6892643 47.975744,24.6144125 48.314342,24.6144125 Z M62.0237128,24.6144125 C62.4760319,24.6144125 62.8445565,24.7122956 63.1309967,24.9097068 C63.4174369,25.1062955 63.6021267,25.3547046 63.6850661,25.6532891 C63.7671505,25.9526961 63.8081927,26.451982 63.8081927,27.1503242 L63.8081927,32.7535126 L61.1772179,32.7535126 L61.1772179,27.2169504 C61.1772179,26.6666667 61.1575518,26.3310676 61.1190748,26.2109758 C61.0797427,26.0900614 60.9711519,26.0300155 60.7933025,26.0300155 C60.6060475,26.0300155 60.4889063,26.0991094 60.4410238,26.2381198 C60.3992215,26.3609535 60.3756603,26.6670627 60.3709405,27.1564476 L60.370055,32.7535126 L57.7382252,32.7535126 L57.7382252,24.7591807 L60.4153724,24.7591807 L60.370055,25.4953601 C60.5607301,25.2017109 60.7941575,24.9820909 61.0703372,24.834855 C61.3456618,24.6876192 61.6637387,24.6144125 62.0237128,24.6144125 Z M186.352277,24.6144125 C186.804597,24.6144125 187.173976,24.7122956 187.459561,24.9097068 C187.746857,25.1062955 187.930691,25.3547046 188.013631,25.6532891 C188.095715,25.9526961 188.137612,26.451982 188.137612,27.1503242 L188.137612,32.7535126 L185.505783,32.7535126 L185.505783,27.2169504 C185.505783,26.6666667 185.486972,26.3310676 185.446784,26.2109758 C185.408307,26.0900614 185.299717,26.0300155 185.121012,26.0300155 C184.934612,26.0300155 184.817471,26.0991094 184.770443,26.2381198 C184.722561,26.3763077 184.69862,26.7464537 184.69862,27.3485579 L184.69862,32.7535126 L182.06679,32.7535126 L182.06679,24.7591807 L184.743937,24.7591807 L184.69862,25.4953601 C184.889295,25.2017109 185.122722,24.9820909 185.398902,24.834855 C185.674226,24.6876192 185.991448,24.6144125 186.352277,24.6144125 Z M171.318954,24.7591807 L172.059424,30.5967951 C172.117567,30.1666031 172.216752,29.1211462 172.356124,27.4587792 C172.431368,26.5309465 172.516873,25.6310803 172.611783,24.7591807 L174.961448,24.7591807 L173.731037,32.7535126 L170.292045,32.7535126 L168.969289,24.7591807 L171.318954,24.7591807 Z M95.6640217,24.6144125 L95.6640217,27.4275224 C95.1826311,27.4275224 94.8286423,27.4875683 94.6029103,27.6084827 C94.3763233,27.7285745 94.2378059,27.8963741 94.1856481,28.1110588 C94.1334904,28.326566 94.107839,28.8209166 94.107839,29.5965782 L94.107839,32.7535126 L91.4760092,32.7535126 L91.4760092,24.7591807 L94.107839,24.7591807 L94.0035234,25.8095729 C94.3857288,25.0569427 94.9389431,24.65883 95.6640217,24.6144125 Z M131.629627,23.6924199 L131.629627,24.9517389 L132.339314,24.9517389 L132.339314,26.2159933 L131.629627,26.2159933 L131.629627,30.4948815 C131.629627,31.0204889 131.658698,31.3141381 131.717696,31.3733614 C131.776694,31.4342299 132.020382,31.4638416 132.449615,31.4638416 L132.449615,32.7535949 L131.389359,32.7535949 C130.789972,32.7535949 130.362449,32.729741 130.105081,32.684501 C129.849422,32.6376158 129.62369,32.5315073 129.42874,32.3645303 C129.232934,32.1983758 129.111518,32.0067225 129.06278,31.7928603 C129.015753,31.577353 128.991811,31.0731319 128.991811,30.2777292 L128.991811,26.2159933 L128.424916,26.2159933 L128.424916,24.9517389 L128.991811,24.9517389 L128.991811,23.6924199 L131.629627,23.6924199 Z M28.872319,24.6144125 C29.324638,24.6144125 29.6931626,24.7122956 29.9796028,24.9097068 C30.266043,25.1062955 30.4507329,25.3547046 30.5336723,25.6532891 C30.6157566,25.9526961 30.6567988,26.451982 30.6567988,27.1503242 L30.6567988,32.7535126 L28.025824,32.7535126 L28.025824,27.2169504 C28.025824,26.6666667 28.006158,26.3310676 27.9676809,26.2109758 C27.9283488,26.0900614 27.8197581,26.0300155 27.6419086,26.0300155 C27.4546537,26.0300155 27.3375125,26.0991094 27.2896299,26.2381198 C27.2426024,26.3763077 27.2186611,26.7464537 27.2186611,27.3485579 L27.2186611,32.7535126 L24.5868313,32.7535126 L24.5868313,24.7591807 L27.2639785,24.7591807 L27.2186611,25.4953601 C27.4093363,25.2017109 27.6427637,24.9820909 27.9189433,24.834855 C28.194268,24.6876192 28.5123449,24.6144125 28.872319,24.6144125 Z M128.027149,24.6144125 L128.027149,27.4275224 C127.546614,27.4275224 127.192625,27.4875683 126.966038,27.6084827 C126.739451,27.7285745 126.600933,27.8963741 126.549631,28.1110588 C126.497473,28.326566 126.470966,28.8209166 126.470966,29.5965782 L126.470966,32.7535126 L123.839992,32.7535126 L123.839992,24.7591807 L126.470966,24.7591807 L126.367506,25.8095729 C126.748856,25.0569427 127.302926,24.65883 128.027149,24.6144125 Z M21.8966874,24.6144125 C22.3490064,24.6144125 22.717531,24.7122956 23.0039712,24.9097068 C23.2904114,25.1062955 23.4751012,25.3547046 23.5580406,25.6532891 C23.640125,25.9526961 23.6811672,26.451982 23.6811672,27.1503242 L23.6811672,32.7535126 L21.0501924,32.7535126 L21.0501924,27.2169504 C21.0501924,26.6666667 21.0305264,26.3310676 20.9920493,26.2109758 C20.9527172,26.0900614 20.8441265,26.0300155 20.666277,26.0300155 C20.4790221,26.0300155 20.3618808,26.0991094 20.3139983,26.2381198 C20.2721961,26.3609535 20.2486348,26.6670627 20.2439151,27.1564476 L20.2430295,32.7535126 L17.6111997,32.7535126 L17.6111997,24.7591807 L20.2883469,24.7591807 L20.2430295,25.4953601 C20.4337047,25.2017109 20.6671321,24.9820909 20.9433117,24.834855 C21.2186364,24.6876192 21.5367133,24.6144125 21.8966874,24.6144125 Z M196.343911,23 L196.343911,32.7529369 L193.635127,32.7529369 L193.635127,23 L196.343911,23 Z M16.6672295,24.758605 L16.6672295,32.7529369 L13.9575906,32.7529369 L13.9575906,24.758605 L16.6672295,24.758605 Z M168.572035,24.758605 L168.572035,32.7529369 L165.862396,32.7529369 L165.862396,24.758605 L168.572035,24.758605 Z M112.761852,23 L112.761852,25.1937322 C112.987584,25.0012563 113.231272,24.8556655 113.493771,24.7594275 C113.757125,24.662367 114.03758,24.6146593 114.337701,24.6146593 C114.797715,24.6146593 115.190181,24.7224129 115.513388,24.9387427 C115.836595,25.155895 116.034111,25.4067718 116.10508,25.6897279 C116.176904,25.972684 116.21367,26.4900659 116.21367,27.2410511 L116.21367,32.7529369 L113.581841,32.7529369 L113.581841,27.1267171 C113.581841,26.6603331 113.557044,26.360926 113.506597,26.2293186 C113.456149,26.096066 113.344993,26.0302622 113.171419,26.0302622 C113.01067,26.0302622 112.90208,26.0985336 112.845647,26.2350764 C112.789214,26.3716191 112.761852,26.6430596 112.761852,27.0485751 L112.761852,32.7529369 L110.130022,32.7529369 L110.130022,23 L112.761852,23 Z M81.2111888,23 L81.2111888,32.7529369 L78.5015498,32.7529369 L78.5015498,23 L81.2111888,23 Z M161.263962,23 L161.263962,32.7529369 L158.554323,32.7529369 L158.554323,23 L161.263962,23 Z M164.917571,23 L164.917571,32.7529369 L162.207932,32.7529369 L162.207932,23 L164.917571,23 Z M199.99752,23 L199.99752,32.7529369 L197.288736,32.7529369 L197.288736,23 L199.99752,23 Z M203.984255,26.0300977 C203.810681,26.0300977 203.69867,26.0901436 203.648222,26.2102355 C203.598629,26.3311498 203.572978,26.6223314 203.572978,27.0837801 L203.572978,30.397821 C203.572978,30.8798334 203.600339,31.180063 203.651642,31.3009773 C203.7038,31.4210692 203.816666,31.4827602 203.991095,31.4827602 C204.159539,31.4827602 204.26471,31.426827 204.306607,31.3166057 C204.348504,31.2063845 204.36817,30.9382342 204.36817,30.512155 L204.36817,27.0837801 C204.36817,26.5902521 204.348504,26.2908451 204.310027,26.1863816 C204.26984,26.0819182 204.161249,26.0300977 203.984255,26.0300977 Z M178.530236,28.9521951 C178.109554,29.2376188 177.865866,29.4761574 177.797462,29.6686333 C177.729914,29.8611092 177.696567,30.1383075 177.696567,30.5002281 C177.696567,30.9139691 177.726494,31.1804742 177.784637,31.3005661 C177.843635,31.4214804 177.959066,31.4823489 178.13264,31.4823489 C178.298519,31.4823489 178.4054,31.4354637 178.454992,31.3400483 C178.50544,31.246278 178.530236,30.9978689 178.530236,30.596466 L178.530236,28.9521951 Z M99.1815076,26.0296042 C99.0335847,26.0296042 98.9335444,26.0847148 98.8822417,26.1924685 C98.8300839,26.3010446 98.8035775,26.5478087 98.8035775,26.9335831 L98.8035775,30.494388 C98.8035775,30.9245799 98.8300839,31.1960204 98.8822417,31.3103544 C98.9335444,31.4246884 99.0404251,31.4822666 99.2011736,31.4822666 C99.3533717,31.4822666 99.4551221,31.4230433 99.5072799,31.303774 C99.5594376,31.1861498 99.585089,30.9278701 99.585089,30.5297575 L99.585089,26.9335831 C99.585089,26.579888 99.5560175,26.3413494 99.4970193,26.2163223 C99.4388762,26.0929403 99.3337056,26.0296042 99.1815076,26.0296042 Z M54.2020993,28.9521951 C53.7805619,29.2376188 53.5368739,29.4761574 53.4693253,29.6686333 C53.4017768,29.8611092 53.36843,30.1383075 53.36843,30.5002281 C53.36843,30.9139691 53.3975015,31.1804742 53.4556446,31.3005661 C53.5146428,31.4214804 53.6309289,31.4823489 53.8045032,31.4823489 C53.9695269,31.4823489 54.0772626,31.4354637 54.1268553,31.3400483 C54.177303,31.246278 54.2020993,30.9978689 54.2020993,30.596466 L54.2020993,28.9521951 Z M3.00890486,26.0296042 C2.86098201,26.0296042 2.76094169,26.0847148 2.70963896,26.1924685 C2.65748119,26.3010446 2.63097478,26.5478087 2.63097478,26.9335831 L2.63097478,30.494388 C2.63097478,30.9245799 2.65748119,31.1960204 2.70963896,31.3103544 C2.76094169,31.4246884 2.86782237,31.4822666 3.02857091,31.4822666 C3.180769,31.4822666 3.2825194,31.4230433 3.33467717,31.303774 C3.38683494,31.1861498 3.41248631,30.9278701 3.41248631,30.5297575 L3.41248631,26.9335831 C3.41248631,26.579888 3.38341476,26.3413494 3.32441663,26.2163223 C3.26627354,26.0929403 3.16110295,26.0296042 3.00890486,26.0296042 Z M120.303609,28.9521951 C119.882927,29.2376188 119.638384,29.4761574 119.570835,29.6686333 C119.503287,29.8611092 119.46994,30.1383075 119.46994,30.5002281 C119.46994,30.9139691 119.499012,31.1804742 119.557155,31.3005661 C119.616153,31.4214804 119.732439,31.4823489 119.906013,31.4823489 C120.071892,31.4823489 120.178773,31.4354637 120.228365,31.3400483 C120.278813,31.246278 120.303609,30.9978689 120.303609,30.596466 L120.303609,28.9521951 Z M137.986291,29.794483 C137.659663,30.068391 137.49806,30.3636853 137.49806,30.6811884 C137.49806,30.9098564 137.548508,31.0817686 137.650258,31.1961026 C137.752008,31.3104366 137.902496,31.3680149 138.102577,31.3680149 C138.314628,31.3680149 138.558316,31.2816475 138.835351,31.1105578 L137.986291,29.794483 Z M36.8713545,26.03018 C36.6883748,26.03018 36.5755088,26.0811779 36.5319015,26.1831737 C36.4882941,26.285992 36.466918,26.5623677 36.466918,27.0114783 L36.466918,27.596309 L37.2356038,27.596309 L37.2356038,27.0114783 C37.2356038,26.5985598 37.2116626,26.3312321 37.1646351,26.2103177 C37.1158975,26.0902259 37.0184223,26.03018 36.8713545,26.03018 Z M74.6403357,26.03018 C74.457356,26.03018 74.34449,26.0811779 74.3008826,26.1831737 C74.2572753,26.285992 74.2358992,26.5623677 74.2358992,27.0114783 L74.2358992,27.596309 L75.004585,27.596309 L75.004585,27.0114783 C75.004585,26.5985598 74.9806438,26.3312321 74.9336163,26.2103177 C74.8848787,26.0902259 74.7874035,26.03018 74.6403357,26.03018 Z M138.194067,25.7524882 C138.050419,25.7524882 137.942683,25.7969057 137.86915,25.8865633 C137.795616,25.9745758 137.758849,26.1094735 137.758849,26.2912563 C137.758849,26.6704504 137.920452,27.0208553 138.246225,27.3432936 C138.54207,26.9838407 138.689993,26.6416612 138.689993,26.3151102 C138.689993,26.1744547 138.646386,26.0453148 138.559171,25.9276907 C138.472812,25.8117116 138.351395,25.7524882 138.194067,25.7524882 Z M16.6672295,23 L16.6672295,24.2708347 L13.9575906,24.2708347 L13.9575906,23 L16.6672295,23 Z M168.572035,23 L168.572035,24.2708347 L165.862396,24.2708347 L165.862396,23 L168.572035,23 Z" id="Combined-Shape" fill="#FEFEFE" opacity="0.6"></path>
            </g>
        </g>
    </g>
</svg>