<?xml version="1.0" standalone="no"?>
<!DOCTYPE svg PUBLIC "-//W3C//DTD SVG 20010904//EN"
 "http://www.w3.org/TR/2001/REC-SVG-20010904/DTD/svg10.dtd">
<svg version="1.0" xmlns="http://www.w3.org/2000/svg"
 width="1170.000000pt" height="658.000000pt" viewBox="0 0 1170.000000 658.000000"
 preserveAspectRatio="xMidYMid meet">
<metadata>
Created by potrace 1.16, written by Peter Selinger 2001-2019
</metadata>
<g transform="translate(0.000000,658.000000) scale(0.100000,-0.100000)"
fill="#000000" stroke="none">
<path d="M3779 4402 l-146 -3 -22 -142 c-12 -78 -28 -182 -36 -232 -8 -49 -24
-148 -35 -220 -11 -71 -25 -157 -31 -190 -42 -261 -60 -388 -55 -400 4 -12 33
-15 153 -15 81 0 153 4 159 8 6 4 16 41 23 82 7 41 16 100 21 130 5 30 21 129
35 220 14 91 30 193 35 228 6 34 15 91 20 127 6 36 14 93 20 128 5 34 17 106
26 159 9 53 14 102 12 109 -5 15 0 15 -179 11z"/>
<path d="M4110 4390 c-6 -11 -15 -50 -20 -87 -5 -38 -12 -89 -16 -115 l-7 -48
136 0 c81 0 138 -4 142 -10 4 -6 1 -34 -4 -63 -6 -28 -23 -128 -36 -222 -14
-93 -30 -196 -35 -227 -28 -161 -47 -282 -56 -355 l-6 -53 160 0 160 0 6 28
c6 37 21 126 51 322 14 91 29 190 35 220 5 30 14 87 20 125 6 39 17 106 24
150 l12 80 140 5 139 5 12 55 c24 116 35 189 28 199 -4 8 -145 11 -440 11
-423 0 -435 -1 -445 -20z"/>
<path d="M5131 4392 c-9 -17 -11 -28 -32 -167 -6 -38 -14 -95 -20 -125 -8 -50
-56 -360 -81 -520 -5 -36 -14 -92 -19 -125 -6 -33 -14 -87 -19 -120 -5 -33
-12 -74 -15 -92 -6 -28 -4 -33 16 -38 13 -3 210 -4 438 -3 356 3 415 5 422 18
4 8 12 53 19 100 6 47 14 97 16 112 l6 28 -269 2 -268 3 2 55 c2 30 8 79 14
108 l10 52 232 0 c128 0 238 4 244 8 12 8 29 90 40 200 l5 52 -235 0 c-133 0
-238 4 -242 9 -6 11 13 145 26 179 l9 22 264 0 c243 0 266 1 274 18 12 23 25
113 26 182 l1 55 -427 3 c-401 2 -428 1 -437 -16z"/>
<path d="M2370 4396 c0 -4 -43 -272 -59 -371 -6 -33 -15 -94 -21 -135 -6 -41
-15 -100 -21 -130 -5 -30 -20 -129 -34 -220 -14 -91 -30 -187 -35 -213 -6 -26
-10 -64 -10 -82 l0 -35 163 0 163 0 12 78 c26 163 33 208 40 242 l7 35 88 3
87 3 41 -88 c81 -173 99 -214 99 -221 0 -4 8 -17 18 -30 17 -22 20 -22 204
-20 l186 3 -45 95 c-115 240 -143 302 -143 315 0 7 24 27 53 44 145 84 227
229 227 400 0 43 -7 97 -15 122 -21 60 -85 132 -142 159 -99 47 -127 50 -505
50 -197 0 -358 -2 -358 -4z m567 -266 c27 -6 62 -21 78 -34 28 -22 30 -29 30
-88 0 -55 -4 -70 -28 -101 -48 -63 -74 -71 -239 -75 -126 -3 -149 -2 -154 12
-3 8 0 48 6 88 6 40 15 100 20 132 5 33 15 63 22 67 19 12 208 11 265 -1z"/>
<path d="M6231 4378 c-5 -13 -14 -57 -20 -98 -20 -132 -39 -250 -71 -450 -11
-69 -29 -186 -40 -260 -12 -74 -26 -164 -32 -200 -6 -36 -12 -87 -12 -113 l-1
-48 138 0 c75 0 145 1 155 1 19 0 35 49 46 145 7 56 36 243 45 285 l7 35 194
3 c106 1 197 -1 202 -6 4 -4 3 -35 -2 -67 -23 -145 -50 -313 -55 -352 l-7 -43
161 0 c121 0 163 3 165 13 2 6 9 46 16 87 6 41 15 100 20 130 11 65 56 356 71
455 5 39 14 93 19 120 16 88 49 309 52 345 l3 35 -160 0 -160 0 -13 -80 c-7
-44 -17 -102 -22 -130 -5 -27 -14 -84 -20 -125 -19 -121 -17 -117 -51 -124
-46 -9 -342 -7 -357 3 -14 9 -11 45 27 285 12 71 21 139 21 152 l0 24 -155 0
c-152 0 -156 -1 -164 -22z"/>
<path d="M7504 4392 c-6 -4 -23 -86 -38 -182 -15 -96 -31 -197 -36 -225 -10
-60 -24 -148 -49 -315 -11 -69 -31 -199 -46 -288 -15 -90 -24 -166 -21 -169 9
-9 310 -2 316 8 4 5 19 92 35 192 15 100 32 207 37 237 5 30 13 82 18 115 5
33 14 92 20 130 6 39 15 95 20 125 5 30 16 102 25 160 27 174 32 210 27 215
-8 8 -296 5 -308 -3z"/>
<path d="M7970 4396 c0 -2 -6 -41 -14 -87 -8 -46 -16 -102 -18 -124 l-3 -40
130 -3 c71 -1 133 -6 138 -11 7 -7 0 -66 -33 -261 -5 -30 -14 -89 -20 -130 -6
-41 -15 -97 -20 -125 -8 -42 -26 -162 -56 -362 l-7 -43 156 0 c86 0 158 4 161
8 5 8 31 167 56 337 5 33 14 89 20 125 18 107 28 169 45 285 9 61 20 124 24
140 l7 30 139 5 c137 5 138 5 145 30 11 38 30 166 30 200 l0 30 -440 0 c-242
0 -440 -2 -440 -4z"/>
<path d="M8981 4348 c-5 -29 -24 -145 -41 -258 -18 -113 -36 -232 -41 -265
-12 -74 -25 -159 -38 -245 -5 -36 -17 -110 -26 -165 -9 -55 -19 -124 -22 -152
l-6 -53 436 0 435 0 5 33 c18 112 27 192 23 203 -4 11 -61 14 -268 16 l-263 3
3 45 c2 25 9 72 16 105 l12 60 238 5 c199 4 240 8 247 20 11 21 40 211 33 221
-3 5 -109 9 -235 9 -194 0 -231 2 -235 15 -9 22 17 184 31 195 7 6 124 11 276
12 l264 3 18 109 c10 60 16 115 13 122 -4 12 -79 14 -435 14 l-430 0 -10 -52z"/>
<path d="M5094 2962 c-15 -9 -114 -207 -114 -227 0 -26 20 -16 42 21 19 32 24
35 62 32 37 -3 41 -6 46 -33 6 -37 36 -42 34 -5 -4 80 -18 187 -26 203 -9 18
-26 22 -44 9z"/>
<path d="M5483 2955 c-9 -25 2 -214 13 -225 20 -20 42 2 71 71 15 38 33 67 38
66 6 -2 12 -33 15 -69 6 -73 13 -87 37 -72 20 13 116 220 108 233 -13 21 -33
-3 -65 -79 -19 -44 -36 -77 -39 -74 -3 3 -8 40 -11 82 -4 62 -8 77 -22 80 -13
3 -26 -16 -53 -73 -19 -42 -35 -82 -35 -88 0 -7 -4 -6 -10 3 -5 8 -10 45 -10
81 0 51 -4 68 -15 73 -9 3 -18 -1 -22 -9z"/>
<path d="M5847 2858 c-31 -62 -57 -119 -57 -125 0 -24 20 -13 42 22 20 31 28
35 65 35 40 0 42 -1 45 -32 5 -51 33 -44 32 7 -2 74 -17 180 -27 193 -24 30
-43 10 -100 -100z"/>
<path d="M6315 2946 c-37 -38 -33 -71 15 -104 68 -47 45 -108 -34 -88 -30 7
-42 -7 -20 -24 18 -15 76 -15 104 0 20 11 36 52 32 80 -2 8 -22 32 -45 52 -35
31 -40 40 -31 55 6 10 27 20 48 23 51 7 50 24 -1 28 -35 3 -48 -2 -68 -22z"/>
<path d="M6847 2949 c-53 -40 -76 -151 -39 -195 25 -32 75 -45 115 -32 88 31
126 160 66 224 -30 32 -101 33 -142 3z m117 -31 c21 -30 20 -71 -4 -117 -27
-54 -75 -68 -112 -34 -35 31 -16 136 29 162 31 18 71 13 87 -11z"/>
<path d="M7127 2951 c-41 -26 -55 -51 -62 -107 -7 -61 8 -93 55 -116 48 -24
102 -8 139 41 22 29 26 45 26 98 0 57 -3 66 -25 83 -32 25 -96 26 -133 1z
m108 -31 c23 -25 16 -100 -12 -139 -22 -29 -75 -40 -98 -21 -36 30 -21 135 22
168 25 18 68 15 88 -8z"/>
<path d="M7393 2962 c-13 -9 -42 -126 -45 -191 -4 -60 15 -62 33 -4 19 65 39
66 67 3 12 -28 28 -50 37 -50 20 0 19 23 -5 70 -29 57 -26 81 20 125 37 36 43
55 18 55 -5 0 -30 -20 -55 -45 -24 -25 -48 -45 -52 -45 -5 0 -6 20 -3 45 5 47
4 49 -15 37z"/>
<path d="M7765 2958 c-16 -46 -44 -223 -37 -230 14 -14 29 13 41 75 6 32 15
66 20 75 9 16 10 15 16 -3 4 -11 13 -33 20 -50 8 -16 16 -42 20 -57 4 -15 13
-33 21 -39 23 -19 43 8 55 77 6 32 14 79 19 104 4 25 5 49 1 53 -14 14 -31
-20 -42 -81 -13 -72 -28 -73 -54 -4 -10 26 -24 57 -31 70 -16 24 -42 29 -49
10z"/>
<path d="M8075 2952 c-63 -39 -91 -123 -61 -181 19 -36 50 -51 105 -51 58 0
75 18 76 81 0 48 -2 54 -22 57 -12 2 -30 -1 -39 -6 -16 -9 -15 -11 4 -28 38
-32 22 -74 -28 -74 -53 0 -81 63 -57 123 18 43 60 67 117 67 61 0 47 24 -16
28 -34 2 -58 -3 -79 -16z"/>
<path d="M8479 2948 c-71 -131 -108 -213 -99 -222 12 -12 26 0 44 36 9 18 21
24 54 26 40 3 43 2 48 -28 7 -34 15 -42 32 -31 11 7 10 21 -16 191 -6 36 -12
46 -29 48 -14 2 -26 -5 -34 -20z"/>
<path d="M8680 2945 c-21 -56 -46 -225 -33 -225 17 0 33 24 33 48 0 46 17 62
65 62 48 0 48 1 45 -67 -3 -69 33 -51 43 22 3 22 11 68 17 103 6 35 8 67 4 73
-11 18 -32 -10 -39 -52 l-7 -39 -49 0 c-45 0 -51 3 -51 30 -1 3 2 17 6 31 8
37 -21 49 -34 14z"/>
<path d="M8960 2948 c-12 -30 -32 -144 -34 -188 l-1 -35 63 -3 c51 -2 62 0 62
13 0 11 -11 15 -40 15 -46 0 -56 13 -41 53 8 21 17 27 40 27 16 0 36 3 45 6
25 10 8 24 -30 24 -32 0 -34 2 -34 34 0 38 12 46 66 46 24 0 34 5 34 15 0 12
-13 15 -60 15 -53 0 -62 -3 -70 -22z"/>
<path d="M9237 2948 c-29 -46 -107 -203 -107 -215 0 -24 21 -13 42 23 19 32
24 35 61 32 37 -3 42 -6 49 -36 5 -19 14 -32 21 -29 15 5 11 126 -7 196 -13
53 -37 65 -59 29z"/>
<path d="M9447 2963 c-10 -17 -47 -225 -42 -233 7 -11 67 -13 115 -4 18 4 47
22 65 40 57 57 55 152 -4 187 -29 17 -126 24 -134 10z m112 -40 c37 -32 32
-104 -10 -144 -28 -27 -85 -40 -101 -24 -4 5 17 143 27 173 6 18 60 15 84 -5z"/>
</g>
</svg>
