<svg xmlns="http://www.w3.org/2000/svg" height="304.75018" width="1176.5909" viewBox="0 0 289.06486 74.871023">
  <path style="fill:#4c5458;fill-opacity:1" d="M196.27265 59.584684V33.911582c-.009-.169337.0535-.334689.17265-.455366.11915-.120677.28369-.185471.45313-.178439h7.46124v25.673102c-.004.348233-.28557.629478-.6338.633805zm8.39991-33.350964c.0817 1.178555-.35091 2.334759-1.18628 3.170125-.83536.835367-1.99156 1.268025-3.17012 1.186279-1.7667.0032-3.3611-1.058922-4.03869-2.690523-.67758-1.631602-.30469-3.510764.94456-4.760013 1.24925-1.249249 3.12841-1.62214 4.76001-.944553 1.6316.677587 2.69377 2.271983 2.69052 4.038685zM134.96207 33.309869l7.09219.01604.41719 3.730623c1.49576-2.72918 4.4077-4.376274 7.51741-4.252107.44231-.03754.8876.0171 1.30772.160456l-1.25959 8.022845c-.48224-.105862-.97445-.159656-1.46818-.160457-4.04351 0-6.1455 2.62347-6.1455 7.140331v11.015365c-.004.348233-.28557.629479-.6338.633805h-7.46125V33.943673c-.007-.170105.0577-.335331.1781-.455712.12038-.12038.2856-.184951.45571-.178092zM182.55358 59.584684V22.84808c.008-.174553.0857-.338628.21516-.456028.12944-.1174.30027-.178476.47481-.169754h7.40508v36.728581c.007.170105-.0577.335332-.17809.455712-.12038.120381-.28561.184951-.45571.178093zM280.27183 39.671984l-.0321 9.819962c0 3.000543.8424 4.524884 3.46587 4.524884 1.1887-.0011 2.35428-.328523 3.3696-.946696l1.98966 5.567854c-2.10701 1.31185-4.5552 1.970655-7.03603 1.893392-6.8836 0-9.87612-3.762714-9.87612-10.983274V25.960943c.004-.345177.28068-.6252.62578-.633804h7.46124v7.98273h8.02285v.320913l-2.15815 6.041202zM162.22369 22.221883v20.755513l8.24749-9.659505h8.88129v.633805l-9.98042 11.231982 10.55806 13.350013c.12341.168605.19581.369096.2086.577645 0 .312891-.2086.473348-.62579.473348h-8.3598l-8.92943-11.87381v11.231982c-.004.345178-.28068.625201-.62578.633805h-7.46166V22.84808c-.004-.167296.0605-.329073.17879-.447412.11834-.118338.28011-.182834.44741-.178785zM249.43201 22.222298l.008 14.44112c1.81961-2.651075 4.88348-4.169347 8.09505-4.011422 6.34607 0 9.62742 4.131764 9.65951 10.694451v15.644546c.007.170106-.0577.335332-.17809.455712-.12038.120381-.28561.184951-.45572.178093h-7.40506V45.336112c0-3.883056-1.31575-5.615991-4.20397-5.615991-3.67446 0-5.4074 2.527196-5.4074 6.883601v12.339134c-.006.175971-.0827.342102-.21241.461221-.12967.119119-.30169.181283-.47755.172584h-7.40552V22.84808c-.004-.168737.0614-.33182.18155-.450416.12012-.118596.28402-.182091.45269-.175366zM49.799577 31.793551v-.01605c0 2.567311 1.676774 3.514006 8.456078 5.511694 6.51455 1.941529 9.827984 4.99021 9.827984 11.135708 0 7.27672-5.567854 12.090427-13.927657 12.090427-5.679587.101621-11.150053-2.141705-15.123062-6.201659l5.431465-5.872722c2.743813 2.968452 6.105385 4.573021 9.627414 4.573021 3.305412 0 5.3031-1.363883 5.3031-3.939216s-1.676775-3.522029-8.456078-5.519717c-6.51455-1.885369-9.827984-5.198803-9.827984-10.870954 0-7.044057 5.102529-11.456622 13.085259-11.456622 4.940415-.152841 9.739358 1.662274 13.34199 5.046369l-4.813707 5.35926c-2.944384-2.471036-5.150666-3.361572-8.247484-3.361572-2.888224 0-4.677318 1.363884-4.677318 3.522029zM121.35533 59.584684l-.34499-3.489937c-1.73293 2.751835-4.62116 4.011422-8.19934 4.011422-5.88075 0-10.50191-4.099674-10.50191-12.555752 0-9.202202 5.88075-14.81848 15.33968-14.81848 3.86575-.01112 7.70415.648519 11.3443 1.949838v24.269104c.007.168665-.0568.33257-.17536.452687-.1186.120116-.28168.185694-.45042.181118zm-5.98505-6.410253c3.89108 0 5.67215-2.631493 5.67215-6.8836v-6.305956c-1.1725-.441541-2.42304-.638133-3.67446-.577645-4.57302 0-6.93174 3.096818-6.93174 7.461246 0 4.573021 2.10199 6.305955 4.93405 6.305955zM85.100092 60.106169c-1.831816.01597-3.643923-.378801-5.3031-1.15529v11.584987c-.02368.338375-.295156.606419-.633805.625782h-7.405085V33.911582c-.0069-.170105.05771-.335332.178092-.455712.120381-.120381.285607-.184951.455713-.178093h7.092194l.369051 3.522029c1.941528-2.96043 5.142643-4.011422 8.295621-4.011422 7.565542 0 10.77468 5.880745 10.77468 12.611911 0 8.287598-5.254963 14.705874-13.823361 14.705874zm-5.3031-13.358036v5.487625c1.260589.822717 2.748509 1.226982 4.252107 1.15529 4.051537 0 6.779304-2.286511 6.779304-7.22056 0-3.995376-1.628638-6.514549-5.094506-6.514549-3.995377 0-5.936905 2.575333-5.936905 7.092194zM221.22369 64.992081l-.016-.03209c4.46872 0 6.5707-1.941528 6.5707-5.72831v-3.040658c-1.72491 2.751835-4.40454 4.011422-8.02284 4.011422-6.0412 0-10.67038-4.091651-10.67038-12.451455 0-8.929425 5.88877-14.914467 15.18724-14.914467 3.91864-.02673 7.81191.630292 11.50476 1.941528v24.068533c0 8.560375-4.83777 12.764346-13.91963 12.764346-3.71711.05558-7.38785-.830364-10.67039-2.575333l2.15815-6.354093c2.33325 1.546616 5.07944 2.352013 7.87843 2.310579zm6.62687-18.596953v-6.305956c-1.17267-.440881-2.42308-.637451-3.67446-.577645-4.57302 0-6.93976 3.104841-6.93976 7.461246 0 4.573021 2.10198 6.305955 4.94207 6.305955 3.88306 0 5.67215-2.631493 5.67215-6.8836z"/>
  <path d="M34.500013 3.8981211c.187742-.535992-.09152-1.123148-.625782-1.315746l-6.8836-2.52719596c-.53501-.173226-1.116034.07286-1.363884.577645L.04991938 70.985146c-.17012702.520284.10838291 1.080875.62578186 1.259586l6.88360046 2.575333c.2510653.0836.5250941.06374.7614752-.05521.2363811-.118943.4156343-.327162.4981113-.5786z" fill="#8d3b90"/>
</svg>
