<?xml version="1.0" standalone="no"?>
<!DOCTYPE svg PUBLIC "-//W3C//DTD SVG 20010904//EN"
 "http://www.w3.org/TR/2001/REC-SVG-20010904/DTD/svg10.dtd">
<svg version="1.0" xmlns="http://www.w3.org/2000/svg"
 width="768.000000pt" height="303.000000pt" viewBox="0 0 768.000000 303.000000"
 preserveAspectRatio="xMidYMid meet">
<metadata>
Created by potrace 1.16, written by Peter Selinger 2001-2019
</metadata>
<g transform="translate(0.000000,303.000000) scale(0.100000,-0.100000)"
fill="#000000" stroke="none">
<path d="M1284 2263 c-37 -115 -67 -213 -67 -220 0 -7 21 -80 48 -162 l49
-150 275 -3 c152 -2 296 -1 321 2 36 5 67 22 148 79 56 40 104 77 108 82 3 5
-121 9 -303 9 l-308 0 -95 285 c-52 157 -98 285 -101 285 -4 0 -37 -93 -75
-207z"/>
<path d="M2020 2183 c-6 -32 -16 -74 -21 -93 -16 -62 -25 -59 184 -62 l194 -3
-103 -485 c-57 -267 -106 -495 -109 -507 -5 -23 -5 -23 113 -23 l119 0 31 143
c16 78 65 307 108 509 l78 368 195 2 196 3 22 95 c12 52 22 98 23 103 0 4
-229 7 -509 7 l-510 0 -11 -57z"/>
<path d="M1012 1972 c-45 -136 -82 -256 -82 -267 0 -10 14 -63 32 -117 l32
-98 311 0 311 0 122 88 c67 48 122 90 122 94 0 4 -131 9 -291 10 l-291 3 -85
260 c-47 143 -88 263 -92 267 -3 4 -43 -104 -89 -240z"/>
<path d="M3940 2218 c1 -2 40 -273 89 -603 l87 -600 118 0 118 0 64 110 c35
61 65 115 67 120 9 22 18 -7 32 -106 8 -57 15 -110 15 -116 0 -10 30 -13 118
-13 l117 0 340 596 c187 327 342 599 343 605 2 5 -47 9 -122 9 l-125 0 -54
-97 c-30 -54 -141 -255 -247 -446 -106 -192 -194 -347 -195 -345 -2 2 -10 57
-18 122 l-15 118 184 322 184 321 -117 3 c-64 1 -122 1 -129 -2 -7 -3 -45 -64
-85 -137 -56 -101 -74 -127 -79 -113 -4 11 -13 72 -20 137 l-13 117 -119 0
c-65 0 -118 -4 -118 -9 0 -5 18 -132 40 -282 22 -151 41 -287 42 -304 0 -20
-23 -74 -73 -162 -41 -73 -76 -133 -79 -133 -3 0 -27 186 -54 413 -27 226 -51
427 -54 445 l-5 32 -118 0 c-66 0 -119 -1 -119 -2z"/>
<path d="M685 1710 l-89 -270 -288 0 c-158 0 -288 -3 -288 -7 0 -5 104 -82
230 -172 127 -91 230 -167 230 -171 0 -3 -40 -127 -90 -275 -49 -148 -89 -270
-87 -271 1 -2 109 74 239 167 l236 170 141 -100 c77 -55 181 -130 231 -167 50
-36 93 -64 96 -61 3 3 -33 122 -80 264 -47 142 -86 264 -86 270 0 6 103 84
230 174 126 90 229 167 230 171 0 4 -131 9 -292 10 l-292 3 -85 262 c-48 144
-89 264 -92 267 -3 3 -45 -116 -94 -264z"/>
<path d="M6418 1914 c-60 -14 -139 -51 -173 -81 -64 -56 -94 -142 -75 -213 13
-48 39 -76 198 -218 94 -84 117 -119 107 -168 -15 -82 -140 -118 -256 -75 -30
12 -81 37 -114 56 -32 20 -59 34 -60 33 -8 -12 -34 -162 -29 -169 11 -18 104
-59 166 -74 121 -28 272 -11 369 42 91 49 169 159 169 239 0 74 -42 136 -159
236 -138 117 -152 134 -149 178 2 26 11 40 37 57 55 37 112 31 217 -21 49 -25
90 -43 92 -42 8 9 41 143 38 153 -7 19 -94 59 -154 72 -69 14 -153 13 -224 -5z"/>
<path d="M2727 1468 c-48 -238 -87 -439 -87 -445 0 -10 27 -13 103 -13 l102 0
74 368 c40 202 79 370 85 374 20 14 195 9 231 -6 60 -25 56 -102 -8 -164 -44
-42 -79 -54 -165 -54 -69 1 -72 0 -67 -21 23 -104 98 -430 106 -459 l10 -38
116 0 c105 0 115 2 110 18 -2 9 -34 101 -70 204 l-65 186 46 12 c113 27 215
136 234 251 10 57 9 69 -10 111 -14 32 -34 56 -63 75 l-42 28 -277 3 -276 3
-87 -433z"/>
<path d="M3665 1878 c-3 -13 -43 -203 -90 -423 -46 -220 -87 -410 -90 -422 -5
-23 -4 -23 100 -23 58 0 105 3 105 7 0 9 180 856 185 871 3 9 -21 12 -100 12
-100 0 -105 -1 -110 -22z"/>
<path d="M6907 1818 c-9 -46 -17 -86 -17 -90 0 -5 61 -8 135 -8 74 0 135 -4
135 -9 0 -9 -21 -110 -99 -477 -23 -105 -41 -198 -41 -208 0 -15 12 -16 102
-14 l103 3 75 353 75 352 132 0 c150 0 131 -12 153 95 6 28 13 58 16 68 5 16
-17 17 -373 17 l-379 0 -17 -82z"/>
<path d="M5375 1853 c-6 -38 -160 -777 -170 -820 l-5 -23 344 0 344 0 10 48
c6 26 14 64 17 85 l7 37 -242 0 -242 0 7 38 c3 20 13 67 21 105 l16 67 222 0
223 0 15 75 15 75 -218 0 -219 0 1 28 c0 15 8 56 17 92 l17 65 241 3 240 2 15
80 16 80 -343 0 -342 0 -7 -37z"/>
<path d="M340 1672 c0 -8 192 -149 214 -158 12 -5 68 150 58 160 -9 9 -272 7
-272 -2z"/>
<path d="M1573 1390 c-62 -45 -113 -86 -112 -93 3 -55 27 -79 211 -212 104
-74 190 -135 192 -135 2 0 -35 117 -82 260 -48 143 -89 260 -92 260 -3 0 -56
-36 -117 -80z"/>
<path d="M1284 1184 c-65 -47 -123 -90 -127 -94 -7 -6 403 -310 417 -310 2 0
-32 110 -77 245 -45 135 -84 245 -87 245 -4 0 -60 -39 -126 -86z"/>
<path d="M7321 924 c-29 -21 -54 -79 -45 -107 23 -78 119 -104 175 -48 63 63
20 171 -68 171 -21 0 -49 -7 -62 -16z m127 -29 c31 -37 29 -80 -7 -116 -37
-37 -79 -38 -120 -3 -43 36 -43 84 -1 126 27 26 36 30 68 25 22 -4 46 -17 60
-32z"/>
<path d="M3855 876 c-66 -30 -105 -94 -105 -173 0 -115 91 -176 189 -125 34
17 75 77 65 94 -12 19 -40 6 -51 -22 -19 -52 -85 -65 -130 -26 -24 21 -28 31
-27 78 1 69 25 115 71 134 49 21 92 10 106 -27 8 -20 18 -29 33 -29 20 0 22 3
14 30 -12 43 -19 51 -56 66 -41 17 -70 17 -109 0z"/>
<path d="M6725 876 c-101 -44 -137 -223 -59 -285 72 -57 188 -23 209 62 10 39
-24 36 -50 -5 -26 -40 -66 -54 -106 -37 -88 36 -52 216 47 235 39 7 72 -9 84
-42 11 -27 50 -34 50 -9 0 73 -94 116 -175 81z"/>
<path d="M2125 868 c-7 -21 -55 -270 -55 -285 0 -19 38 -16 44 5 2 9 7 33 11
52 13 73 10 70 87 70 l71 0 -6 -37 c-4 -21 -9 -53 -13 -71 -6 -31 -5 -34 17
-30 21 3 25 13 51 138 33 165 33 170 8 170 -20 0 -22 -5 -38 -85 l-8 -40 -73
-3 -73 -3 7 38 c4 21 9 50 12 66 5 23 2 27 -16 27 -12 0 -23 -6 -26 -12z"/>
<path d="M2445 868 c-8 -23 -55 -260 -55 -280 0 -17 8 -18 102 -16 89 3 103 5
106 21 3 15 -6 17 -78 17 l-82 0 7 43 c4 23 9 45 12 50 2 4 38 7 79 7 67 0 74
2 74 20 0 18 -7 20 -70 20 -75 0 -75 0 -64 58 l6 31 82 3 c68 3 81 6 84 21 3
15 -7 17 -98 17 -71 0 -102 -4 -105 -12z"/>
<path d="M2803 868 c-6 -7 -38 -62 -73 -123 -34 -60 -71 -125 -82 -142 l-20
-33 25 0 c19 0 31 11 51 45 l27 45 58 0 c63 0 70 -8 71 -67 0 -18 6 -23 26
-23 22 0 25 4 21 23 -3 12 -16 82 -28 155 -21 123 -24 132 -45 132 -12 0 -26
-6 -31 -12z"/>
<path d="M2984 725 l-31 -156 101 3 c87 3 101 5 104 21 3 15 -6 17 -72 17 -42
0 -76 4 -76 10 0 12 36 195 45 233 6 24 4 27 -17 27 -23 0 -25 -7 -54 -155z"/>
<path d="M3190 860 c0 -17 7 -20 45 -20 32 0 45 -4 45 -14 0 -12 -31 -175 -45
-233 -4 -19 -1 -23 18 -23 22 0 25 8 46 123 13 67 26 128 29 135 2 7 23 12 52
12 39 0 49 4 53 20 5 19 0 20 -119 20 -117 0 -124 -1 -124 -20z"/>
<path d="M3485 868 c-7 -21 -55 -270 -55 -285 0 -7 9 -13 19 -13 14 0 21 9 26
33 4 17 11 49 16 70 l10 37 71 0 71 0 -6 -37 c-4 -21 -9 -53 -13 -70 -6 -29
-4 -33 14 -33 25 0 25 0 57 165 30 156 30 145 5 145 -20 0 -22 -5 -38 -85 l-8
-40 -73 -3 -73 -3 7 38 c4 21 9 50 12 66 5 23 2 27 -16 27 -12 0 -23 -6 -26
-12z"/>
<path d="M4126 730 c-47 -82 -86 -152 -86 -155 0 -3 10 -5 23 -5 16 0 28 12
46 45 l24 45 63 0 c60 0 64 -2 64 -22 0 -43 12 -68 31 -68 23 0 23 2 4 115
-32 190 -34 195 -60 195 -20 0 -37 -24 -109 -150z"/>
<path d="M4416 863 c-6 -22 -56 -273 -56 -285 0 -4 9 -8 20 -8 20 0 22 5 38
85 l8 40 59 0 60 0 3 -62 c3 -57 5 -63 25 -63 20 0 22 6 24 56 2 31 -2 64 -7
74 -7 13 -3 23 15 40 35 33 35 91 -1 119 -22 17 -41 21 -105 21 -65 0 -78 -3
-83 -17z"/>
<path d="M4720 877 c0 -2 -13 -71 -30 -152 -16 -81 -30 -150 -30 -152 0 -1 47
-3 104 -3 95 0 104 2 109 20 5 19 0 20 -74 20 -87 0 -87 0 -73 69 l7 31 78 0
c72 0 79 2 79 20 0 18 -7 20 -75 20 l-75 0 6 28 c14 64 9 61 97 64 69 3 82 6
85 21 3 15 -7 17 -102 17 -58 0 -106 -2 -106 -3z"/>
<path d="M5182 813 c-96 -167 -132 -230 -132 -236 0 -4 10 -7 23 -7 16 0 28
12 46 45 l24 45 58 0 c63 0 61 1 71 -65 4 -23 48 -35 48 -13 0 7 -11 76 -25
152 -14 77 -25 141 -25 143 0 2 -11 3 -25 3 -19 0 -32 -13 -63 -67z"/>
<path d="M5425 868 c-7 -21 -55 -270 -55 -285 0 -10 23 -13 100 -13 93 0 100
1 100 20 0 18 -7 20 -75 20 -41 0 -75 2 -75 4 0 2 11 58 25 126 14 68 25 127
25 131 0 14 -40 10 -45 -3z"/>
<path d="M5675 868 c-7 -21 -55 -270 -55 -285 0 -10 23 -13 100 -13 93 0 100
1 100 20 0 18 -7 20 -75 20 l-74 0 5 33 c4 17 15 74 25 126 11 51 19 97 19
102 0 14 -40 11 -45 -3z"/>
<path d="M6092 788 c-28 -51 -68 -121 -87 -155 l-36 -63 24 0 c19 0 32 11 51
45 l27 45 58 0 59 0 6 -45 c6 -40 10 -45 33 -45 20 0 24 4 20 20 -3 11 -16 81
-28 155 -23 133 -23 135 -49 135 -23 0 -33 -12 -78 -92z"/>
<path d="M6326 743 c-15 -76 -29 -146 -32 -155 -4 -14 1 -18 19 -18 21 0 25 6
36 68 23 126 33 164 41 155 4 -4 27 -56 51 -115 37 -93 46 -108 66 -108 26 0
22 -9 58 169 30 148 30 141 6 141 -20 0 -25 -13 -52 -162 -7 -38 -15 -68 -18
-68 -3 0 -27 51 -52 113 -40 98 -48 112 -71 115 -25 3 -25 1 -52 -135z"/>
<path d="M6980 823 c-6 -32 -20 -98 -31 -148 -10 -49 -19 -93 -19 -97 0 -4 47
-8 104 -8 95 0 104 2 109 20 5 19 0 20 -74 20 -87 0 -87 0 -73 69 l7 31 78 0
c72 0 79 2 79 20 0 17 -8 19 -72 22 -79 3 -77 1 -63 66 5 21 11 22 84 22 75 0
91 6 91 36 0 2 -47 4 -104 4 l-105 0 -11 -57z"/>
</g>
</svg>
