<?xml version="1.0" encoding="UTF-8"?><svg id="VSP_Optics" xmlns="http://www.w3.org/2000/svg" viewBox="0 0 266.51 97.85"><defs><style>.cls-1{fill:#3a60ff;}</style></defs><g id="VSP_Logotype"><path id="TM" class="cls-1" d="m257.23,74.85h1.78l-.04-5.34,2.69,3.44h.36c.37-.48,2.36-2.88,2.73-3.35l-.04,5.25h1.79v-8h-1.65l-2.99,3.76-2.94-3.76h-1.7v8Zm-6.28,0h1.77v-6.46h2.97v-1.54h-7.71v1.54h2.97v6.46Z"/><path id="VSP" class="cls-1" d="m216.75,1.2c-8.62,0-16.95,3.25-21.73,10.48l-.26-1.94c-.56-4.23-3.65-6.89-9.12-6.89h-19.15v95h21.54c5.37,0,8.34-3.46,8.34-8.36v-19.95c4.92,5.11,13.01,6.86,19.48,6.86,18.87,0,33.28-14.12,33.28-37.55S235.62,1.2,216.75,1.2Zm-9.41,51.39c-7.57,0-12.84-5.57-12.84-13.74s5.23-13.61,12.84-13.61,13.15,5.32,13.15,13.61-5.58,13.74-13.15,13.74Zm-78.43-26.03c-.76-.09-5.34-.63-7.5-.89-2.31-.28-4.38-.63-4.38-2.4s2.29-2.23,5.2-2.23c4.98,0,10.38.63,17.81,2.31,5.1,1.15,8.82-.96,9.93-5.2l3.52-13.69c-8.57-2.94-19.11-4.45-29.63-4.45-23.47,0-36.05,10.39-36.05,25.54,0,13.42,7.96,21.6,26.94,24.22.77.11,4.24.53,5.01.62,5.97.64,7.89,1.12,7.87,2.91-.02,1.56-1.77,2.23-6.34,2.23-6.52,0-13.4-1.32-20.22-3.17-5.75-1.56-9.08.33-10.68,4.17l-4.89,14.27c9.74,4.05,25.08,6.59,35.84,6.59,23.14,0,35.94-8.2,35.94-26.05,0-13.64-8.06-22.35-28.35-24.77Zm-79.98,8.94c-.05-.07-.05-.16,0-.22.06-.08.18-.09.26-.03,3.42,2.74,7.78,4.38,12.53,4.38,10.98,0,19.87-8.76,19.87-19.55S72.71.51,61.73.52s-19.87,8.76-19.87,19.55c0,2.13.35,4.18.99,6.1.03.1-.02.2-.12.24-.08.03-.16,0-.21-.07l-11.77-16.81C27.44,4.8,23.13,1.06,15.33,1.19,6.07,1.35-.14,8.45,0,16.57c.06,3.74,1.77,7.62,4.09,10.94l30.86,44.07c3.31,4.73,9.06,4.73,12.37,0l13.43-19.19-11.82-16.89Z"/></g></svg>