<?xml version="1.0" encoding="utf-8"?>
<!-- Generator: Adobe Illustrator 25.0.1, SVG Export Plug-In . SVG Version: 6.00 Build 0)  -->
<svg version="1.0" id="katman_1" xmlns="http://www.w3.org/2000/svg" xmlns:xlink="http://www.w3.org/1999/xlink" x="0px" y="0px"
	 viewBox="0 0 800 600" style="enable-background:new 0 0 800 600;" xml:space="preserve">
<g>
	<g>
		<path d="M382.9,265.7l-14.7,51.1l-17.5-51.2c-0.2-0.6-0.8-1-1.4-1h-16.5c-0.6,0-1.2,0.4-1.4,1l-17.5,51.2l-15-51.1
			c-0.2-0.6-0.8-1.1-1.4-1.1h-16.1c-1,0-1.7,1-1.4,1.9l23.5,72.5c0.2,0.6,0.8,1,1.4,1h16.3c0.6,0,1.2-0.4,1.4-1l17.9-53.2l18.4,53.2
			c0.2,0.6,0.8,1,1.4,1h15.8c0.6,0,1.2-0.4,1.4-1l23.2-72.5c0.3-1-0.4-1.9-1.4-1.9h-15.1C383.7,264.6,383.1,265,382.9,265.7z"/>
		<path d="M435.5,262.3c-19.1,0-36.7,15.8-36.7,39.7c0,25.6,18.1,40.5,38.6,40.5c17.4,0,29.2-9.9,33.6-22.4c0.3-0.8-0.1-1.7-0.9-1.9
			l-12.4-3.9c-0.7-0.2-1.5,0.1-1.8,0.9c-2.7,6.8-8.2,11.9-18.5,11.9c-11.2,0-20.2-8.2-20.6-19.7h53.9c0.7,0,1.4-0.6,1.5-1.3
			c0.1-1.1,0.2-2.6,0.2-4.4C472.4,277.6,458.8,262.3,435.5,262.3z M417.2,294.1c0.6-8.1,7.1-16.7,18.5-16.7
			c12.4,0,18.3,7.9,18.6,16.7H417.2z"/>
		<path d="M609.7,265.6l-19.2,52.9l-19.6-53c-0.2-0.6-0.8-1-1.4-1H553c-1,0-1.8,1.1-1.4,2l29.5,72.5c0.2,0.6,0.8,0.9,1.4,0.9h16
			c0.6,0,1.2-0.4,1.4-0.9l28.4-72.5c0.4-1-0.3-2-1.4-2h-15.7C610.5,264.6,610,265,609.7,265.6z"/>
		<path d="M699,301.5c0-23.9-13.6-39.2-36.9-39.2c-19.1,0-36.7,15.8-36.7,39.7c0,25.6,18.1,40.5,38.6,40.5
			c17.4,0,29.2-9.9,33.6-22.4c0.3-0.8-0.1-1.7-0.9-1.9l-12.4-3.9c-0.7-0.2-1.5,0.1-1.8,0.9c-2.7,6.8-8.2,11.9-18.5,11.9
			c-11.2,0-20.2-8.2-20.6-19.7h53.9c0.7,0,1.4-0.6,1.5-1.3C698.9,304.9,699,303.3,699,301.5z M643.8,294.1
			c0.6-8.1,7.1-16.7,18.5-16.7c12.4,0,18.3,7.9,18.6,16.7H643.8z"/>
		<path d="M517.9,262.3c-0.5,0-1,0-1.5,0c-22.7,0-38.2,17.9-38.2,39.7c0,22.6,14.3,40.2,36.4,40.2c10.8,0,18.8-5.6,22.2-12.9
			c0,3.5-0.1,7.3-0.1,9.3c0,0.8,0.6,1.5,1.5,1.5H553c0.8,0,1.5-0.7,1.5-1.5v-36.4C554.5,279.6,540.1,262.3,517.9,262.3z
			 M516.7,326.6c-12.6,0-20.5-10.2-20.5-24.6c0-14.5,8.3-23.8,20.3-23.9c11.1,0,20.1,8.4,20.2,24
			C536.6,316.6,528.4,326.6,516.7,326.6z"/>
	</g>
	<path d="M167.1,286.9v25.5c0,23.8,19.1,43.5,42.6,43.9c10.9,0,21.3-4.1,29.3-11.5c8-7.4,12.9-17.3,13.8-28.1
		c0.3-3.3,0.5-13.4,0.5-16.7c0-3.3-0.1-13.5-0.5-16.7c-0.9-10.7-5.8-20.7-13.8-28.1c-8-7.4-18.5-11.5-29.3-11.5
		c-9.3,0-18.2,3-25.6,8.5c-0.3,0.3-0.4,0.9-0.1,1.4l9,15c0.4,0.5,0.9,0.5,1.3,0.2v0c4.3-3.6,9.7-5.6,15.3-5.6
		c5.8,0,11.3,2.1,15.6,5.9c4.3,3.8,7.1,8.9,7.9,14.5c0.5,3.6,0.6,12.7,0.6,16.4c0,3.8,0,11.9-0.6,16.3c-0.8,5.6-3.5,10.8-7.9,14.6
		c-4.4,3.8-9.9,5.9-15.7,5.9h0c-6.2-0.1-12-2.6-16.3-7.1c-4.3-4.5-6.7-10.4-6.7-16.6v-26.2v0.6c0-23.8-19.1-43.5-42.6-43.9
		c-10.9,0-21.3,4.1-29.3,11.5c-8,7.4-12.9,17.3-13.8,28.1c-0.4,3.3-0.5,13.4-0.5,16.7c0,3.3,0.1,13.5,0.5,16.7
		c0.9,10.7,5.8,20.7,13.8,28.1c8,7.4,18.4,11.5,29.3,11.5c9.3,0,18.2-3,25.6-8.5c0.3-0.3,0.4-0.9,0.1-1.4l-9-15
		c-0.4-0.5-0.9-0.5-1.3-0.2v0c-4.3,3.6-9.7,5.6-15.3,5.6c-5.8,0-11.3-2.1-15.6-5.9c-4.3-3.8-7.1-8.9-7.9-14.5
		c-0.5-3.6-0.6-12.7-0.6-16.4c0-3.8,0-11.9,0.6-16.3c0.8-5.6,3.5-10.8,7.9-14.6c4.4-3.8,9.9-5.9,15.7-5.9h0c6.2,0.1,12,2.6,16.3,7.1
		C164.7,274.8,167.1,280.6,167.1,286.9L167.1,286.9z"/>
</g>
</svg>
